%TF.GenerationSoftware,KiCad,Pcbnew,(6.0.5)*%
%TF.CreationDate,2022-07-21T09:59:54-05:00*%
%TF.ProjectId,First Round Clock,46697273-7420-4526-9f75-6e6420436c6f,rev?*%
%TF.SameCoordinates,PX3dc4fd0PYa381e90*%
%TF.FileFunction,Soldermask,Top*%
%TF.FilePolarity,Negative*%
%FSLAX46Y46*%
G04 Gerber Fmt 4.6, Leading zero omitted, Abs format (unit mm)*
G04 Created by KiCad (PCBNEW (6.0.5)) date 2022-07-21 09:59:54*
%MOMM*%
%LPD*%
G01*
G04 APERTURE LIST*
G04 Aperture macros list*
%AMRoundRect*
0 Rectangle with rounded corners*
0 $1 Rounding radius*
0 $2 $3 $4 $5 $6 $7 $8 $9 X,Y pos of 4 corners*
0 Add a 4 corners polygon primitive as box body*
4,1,4,$2,$3,$4,$5,$6,$7,$8,$9,$2,$3,0*
0 Add four circle primitives for the rounded corners*
1,1,$1+$1,$2,$3*
1,1,$1+$1,$4,$5*
1,1,$1+$1,$6,$7*
1,1,$1+$1,$8,$9*
0 Add four rect primitives between the rounded corners*
20,1,$1+$1,$2,$3,$4,$5,0*
20,1,$1+$1,$4,$5,$6,$7,0*
20,1,$1+$1,$6,$7,$8,$9,0*
20,1,$1+$1,$8,$9,$2,$3,0*%
G04 Aperture macros list end*
%ADD10C,3.200000*%
%ADD11R,1.400000X1.150000*%
%ADD12R,1.600000X1.400000*%
%ADD13R,4.500000X2.000000*%
%ADD14R,1.800000X1.000000*%
%ADD15C,2.000000*%
%ADD16R,2.200000X1.200000*%
%ADD17R,6.400000X5.800000*%
%ADD18R,1.150000X1.400000*%
%ADD19R,0.800000X0.900000*%
%ADD20C,1.600000*%
%ADD21RoundRect,0.243750X0.456250X-0.243750X0.456250X0.243750X-0.456250X0.243750X-0.456250X-0.243750X0*%
%ADD22R,1.700000X1.700000*%
%ADD23O,1.700000X1.700000*%
%ADD24R,1.600000X1.600000*%
%ADD25O,1.600000X1.600000*%
%ADD26C,3.000000*%
%ADD27R,1.800000X2.600000*%
%ADD28O,1.800000X2.600000*%
%ADD29RoundRect,0.500000X-0.500000X1.750000X-0.500000X-1.750000X0.500000X-1.750000X0.500000X1.750000X0*%
%ADD30RoundRect,0.500000X-1.500000X-0.500000X1.500000X-0.500000X1.500000X0.500000X-1.500000X0.500000X0*%
%ADD31R,2.000000X2.000000*%
%ADD32R,3.000000X3.000000*%
%ADD33C,1.440000*%
G04 APERTURE END LIST*
D10*
%TO.C,H4*%
X30730000Y71450000D03*
%TD*%
D11*
%TO.C,R14*%
X92710000Y46600000D03*
X92710000Y48300000D03*
%TD*%
D12*
%TO.C,SW4*%
X57230000Y41200000D03*
X49230000Y41200000D03*
X57230000Y45700000D03*
X49230000Y45700000D03*
%TD*%
D13*
%TO.C,Y1*%
X75980000Y63450000D03*
X84480000Y63450000D03*
%TD*%
D14*
%TO.C,Y2*%
X66230000Y110950000D03*
X66230000Y113450000D03*
%TD*%
D15*
%TO.C,TP14*%
X115697000Y39446200D03*
%TD*%
D16*
%TO.C,U1*%
X72430000Y27170000D03*
D17*
X66130000Y29450000D03*
D16*
X72430000Y31730000D03*
%TD*%
D11*
%TO.C,R13*%
X71230000Y46600000D03*
X71230000Y48300000D03*
%TD*%
D18*
%TO.C,R1*%
X99380000Y61450000D03*
X101080000Y61450000D03*
%TD*%
%TO.C,C1*%
X103380000Y61450000D03*
X105080000Y61450000D03*
%TD*%
D11*
%TO.C,C6*%
X70230000Y64300000D03*
X70230000Y62600000D03*
%TD*%
D15*
%TO.C,TP9*%
X129540000Y66040000D03*
%TD*%
%TO.C,TP11*%
X46990000Y106680000D03*
%TD*%
D11*
%TO.C,R7*%
X116230000Y54600000D03*
X116230000Y56300000D03*
%TD*%
D19*
%TO.C,Q1*%
X127280000Y71450000D03*
X129180000Y71450000D03*
X128230000Y73450000D03*
%TD*%
D11*
%TO.C,C5*%
X82423000Y47980600D03*
X82423000Y46280600D03*
%TD*%
D12*
%TO.C,SW1*%
X109230000Y63700000D03*
X117230000Y63700000D03*
X109230000Y59200000D03*
X117230000Y59200000D03*
%TD*%
D11*
%TO.C,R3*%
X104230000Y46600000D03*
X104230000Y48300000D03*
%TD*%
D15*
%TO.C,TP15*%
X64770000Y106680000D03*
%TD*%
D20*
%TO.C,R9*%
X86905000Y117450000D03*
X83505000Y117450000D03*
%TD*%
D15*
%TO.C,TP5*%
X83820000Y109220000D03*
%TD*%
%TO.C,TP1*%
X138430000Y78740000D03*
%TD*%
%TO.C,TP12*%
X81432400Y42951400D03*
%TD*%
D21*
%TO.C,D1*%
X75539600Y46766000D03*
X75539600Y48641000D03*
%TD*%
D18*
%TO.C,R5*%
X132380000Y75450000D03*
X134080000Y75450000D03*
%TD*%
D15*
%TO.C,TP8*%
X109220000Y45720000D03*
%TD*%
%TO.C,TP7*%
X73660000Y39370000D03*
%TD*%
D11*
%TO.C,R6*%
X79248000Y46089200D03*
X79248000Y47789200D03*
%TD*%
%TO.C,R4*%
X100230000Y48300000D03*
X100230000Y46600000D03*
%TD*%
D10*
%TO.C,H3*%
X139730000Y71450000D03*
%TD*%
D11*
%TO.C,C3*%
X77230000Y25600000D03*
X77230000Y27300000D03*
%TD*%
D22*
%TO.C,J2*%
X92880000Y64450000D03*
D23*
X95420000Y64450000D03*
X97960000Y64450000D03*
X100500000Y64450000D03*
X103040000Y64450000D03*
X105580000Y64450000D03*
%TD*%
D10*
%TO.C,H2*%
X85230000Y16950000D03*
%TD*%
D11*
%TO.C,C2*%
X88230000Y63300000D03*
X88230000Y61600000D03*
%TD*%
D24*
%TO.C,U3*%
X69430000Y113250000D03*
D25*
X69430000Y110710000D03*
X69430000Y108170000D03*
X69430000Y105630000D03*
X77050000Y105630000D03*
X77050000Y108170000D03*
X77050000Y110710000D03*
X77050000Y113250000D03*
%TD*%
D10*
%TO.C,H1*%
X85230000Y125950000D03*
%TD*%
D12*
%TO.C,SW3*%
X125230000Y44200000D03*
X117230000Y44200000D03*
X125230000Y48700000D03*
X117230000Y48700000D03*
%TD*%
D11*
%TO.C,R10*%
X97230000Y48300000D03*
X97230000Y46600000D03*
%TD*%
D15*
%TO.C,TP16*%
X68580000Y120650000D03*
%TD*%
D18*
%TO.C,R2*%
X95380000Y61450000D03*
X97080000Y61450000D03*
%TD*%
D15*
%TO.C,TP2*%
X63500000Y55880000D03*
%TD*%
%TO.C,TP10*%
X92710000Y114300000D03*
%TD*%
D22*
%TO.C,J3*%
X108955000Y54975000D03*
D23*
X111495000Y54975000D03*
X108955000Y52435000D03*
X111495000Y52435000D03*
X108955000Y49895000D03*
X111495000Y49895000D03*
%TD*%
D15*
%TO.C,TP6*%
X121920000Y107950000D03*
%TD*%
D11*
%TO.C,R11*%
X67230000Y46600000D03*
X67230000Y48300000D03*
%TD*%
D18*
%TO.C,C4*%
X76380000Y35450000D03*
X78080000Y35450000D03*
%TD*%
D15*
%TO.C,TP3*%
X74930000Y22860000D03*
%TD*%
D12*
%TO.C,SW2*%
X50230000Y53200000D03*
X42230000Y53200000D03*
X50230000Y57700000D03*
X42230000Y57700000D03*
%TD*%
%TO.C,SW5*%
X130230000Y54200000D03*
X122230000Y54200000D03*
X130230000Y58700000D03*
X122230000Y58700000D03*
%TD*%
D26*
%TO.C,DS1*%
X47870300Y100625300D03*
X122869400Y100625300D03*
X122868880Y69624600D03*
X47870300Y69624600D03*
D27*
X53369400Y100625300D03*
D28*
X55909400Y100625300D03*
X58449400Y100625300D03*
X60989400Y100625300D03*
X63529400Y100625300D03*
X66069400Y100625300D03*
X68609400Y100625300D03*
X71149400Y100625300D03*
X73689400Y100625300D03*
X76229400Y100625300D03*
X78769400Y100625300D03*
X81309400Y100625300D03*
X83849400Y100625300D03*
X86389400Y100625300D03*
X88929400Y100625300D03*
X91469400Y100625300D03*
%TD*%
D24*
%TO.C,U2*%
X102730000Y59250000D03*
D25*
X100190000Y59250000D03*
X97650000Y59250000D03*
X95110000Y59250000D03*
X92570000Y59250000D03*
X90030000Y59250000D03*
X87490000Y59250000D03*
X84950000Y59250000D03*
X82410000Y59250000D03*
X79870000Y59250000D03*
X77330000Y59250000D03*
X74790000Y59250000D03*
X72250000Y59250000D03*
X69710000Y59250000D03*
X69710000Y51630000D03*
X72250000Y51630000D03*
X74790000Y51630000D03*
X77330000Y51630000D03*
X79870000Y51630000D03*
X82410000Y51630000D03*
X84950000Y51630000D03*
X87490000Y51630000D03*
X90030000Y51630000D03*
X92570000Y51630000D03*
X95110000Y51630000D03*
X97650000Y51630000D03*
X100190000Y51630000D03*
X102730000Y51630000D03*
%TD*%
D18*
%TO.C,R8*%
X120380000Y64450000D03*
X122080000Y64450000D03*
%TD*%
D11*
%TO.C,R12*%
X87884000Y46902000D03*
X87884000Y48602000D03*
%TD*%
D29*
%TO.C,J1*%
X81730000Y26450000D03*
D30*
X84030000Y31750000D03*
X87730000Y29250000D03*
%TD*%
D31*
%TO.C,BZ1*%
X133230000Y83450000D03*
D15*
X128230000Y83450000D03*
%TD*%
D32*
%TO.C,BT1*%
X93288314Y106553000D03*
D26*
X113778314Y106553000D03*
%TD*%
D33*
%TO.C,RV1*%
X59230000Y110450000D03*
X56690000Y107910000D03*
X54150000Y110450000D03*
%TD*%
M02*
