%TF.GenerationSoftware,KiCad,Pcbnew,(6.0.5)*%
%TF.CreationDate,2022-07-22T17:55:24-05:00*%
%TF.ProjectId,First Round Clock,46697273-7420-4526-9f75-6e6420436c6f,rev?*%
%TF.SameCoordinates,PX574d060PY96dce60*%
%TF.FileFunction,Legend,Top*%
%TF.FilePolarity,Positive*%
%FSLAX46Y46*%
G04 Gerber Fmt 4.6, Leading zero omitted, Abs format (unit mm)*
G04 Created by KiCad (PCBNEW (6.0.5)) date 2022-07-22 17:55:24*
%MOMM*%
%LPD*%
G01*
G04 APERTURE LIST*
G04 Aperture macros list*
%AMRoundRect*
0 Rectangle with rounded corners*
0 $1 Rounding radius*
0 $2 $3 $4 $5 $6 $7 $8 $9 X,Y pos of 4 corners*
0 Add a 4 corners polygon primitive as box body*
4,1,4,$2,$3,$4,$5,$6,$7,$8,$9,$2,$3,0*
0 Add four circle primitives for the rounded corners*
1,1,$1+$1,$2,$3*
1,1,$1+$1,$4,$5*
1,1,$1+$1,$6,$7*
1,1,$1+$1,$8,$9*
0 Add four rect primitives between the rounded corners*
20,1,$1+$1,$2,$3,$4,$5,0*
20,1,$1+$1,$4,$5,$6,$7,0*
20,1,$1+$1,$6,$7,$8,$9,0*
20,1,$1+$1,$8,$9,$2,$3,0*%
G04 Aperture macros list end*
%ADD10C,0.150000*%
%ADD11C,0.300000*%
%ADD12C,0.120000*%
%ADD13R,1.400000X1.150000*%
%ADD14C,3.200000*%
%ADD15R,1.600000X1.400000*%
%ADD16R,4.500000X2.000000*%
%ADD17R,1.800000X1.000000*%
%ADD18C,2.000000*%
%ADD19R,2.200000X1.200000*%
%ADD20R,6.400000X5.800000*%
%ADD21R,1.150000X1.400000*%
%ADD22R,0.800000X0.900000*%
%ADD23C,1.600000*%
%ADD24RoundRect,0.243750X0.456250X-0.243750X0.456250X0.243750X-0.456250X0.243750X-0.456250X-0.243750X0*%
%ADD25R,1.700000X1.700000*%
%ADD26O,1.700000X1.700000*%
%ADD27R,1.600000X1.600000*%
%ADD28O,1.600000X1.600000*%
%ADD29C,3.000000*%
%ADD30R,1.800000X2.600000*%
%ADD31O,1.800000X2.600000*%
%ADD32RoundRect,0.500000X-0.500000X1.750000X-0.500000X-1.750000X0.500000X-1.750000X0.500000X1.750000X0*%
%ADD33RoundRect,0.500000X-1.500000X-0.500000X1.500000X-0.500000X1.500000X0.500000X-1.500000X0.500000X0*%
%ADD34R,2.000000X2.000000*%
%ADD35R,3.000000X3.000000*%
%ADD36C,1.440000*%
G04 APERTURE END LIST*
D10*
%TO.C,C7*%
X49227742Y13117534D02*
X49275361Y13069915D01*
X49322980Y12927058D01*
X49322980Y12831820D01*
X49275361Y12688962D01*
X49180123Y12593724D01*
X49084885Y12546105D01*
X48894409Y12498486D01*
X48751552Y12498486D01*
X48561076Y12546105D01*
X48465838Y12593724D01*
X48370600Y12688962D01*
X48322980Y12831820D01*
X48322980Y12927058D01*
X48370600Y13069915D01*
X48418219Y13117534D01*
X48322980Y13450867D02*
X48322980Y14117534D01*
X49322980Y13688962D01*
%TO.C,H4*%
X3196495Y62793620D02*
X3196495Y63793620D01*
X3196495Y63317429D02*
X3767923Y63317429D01*
X3767923Y62793620D02*
X3767923Y63793620D01*
X4672685Y63460286D02*
X4672685Y62793620D01*
X4434590Y63841239D02*
X4196495Y63126953D01*
X4815542Y63126953D01*
%TO.C,R14*%
X66416180Y30345143D02*
X65939990Y30011810D01*
X66416180Y29773715D02*
X65416180Y29773715D01*
X65416180Y30154667D01*
X65463800Y30249905D01*
X65511419Y30297524D01*
X65606657Y30345143D01*
X65749514Y30345143D01*
X65844752Y30297524D01*
X65892371Y30249905D01*
X65939990Y30154667D01*
X65939990Y29773715D01*
X66416180Y31297524D02*
X66416180Y30726096D01*
X66416180Y31011810D02*
X65416180Y31011810D01*
X65559038Y30916572D01*
X65654276Y30821334D01*
X65701895Y30726096D01*
X65749514Y32154667D02*
X66416180Y32154667D01*
X65368561Y31916572D02*
X66082847Y31678477D01*
X66082847Y32297524D01*
%TO.C,SW4*%
X23304666Y25486439D02*
X23447523Y25438820D01*
X23685619Y25438820D01*
X23780857Y25486439D01*
X23828476Y25534058D01*
X23876095Y25629296D01*
X23876095Y25724534D01*
X23828476Y25819772D01*
X23780857Y25867391D01*
X23685619Y25915010D01*
X23495142Y25962629D01*
X23399904Y26010248D01*
X23352285Y26057867D01*
X23304666Y26153105D01*
X23304666Y26248343D01*
X23352285Y26343581D01*
X23399904Y26391200D01*
X23495142Y26438820D01*
X23733238Y26438820D01*
X23876095Y26391200D01*
X24209428Y26438820D02*
X24447523Y25438820D01*
X24638000Y26153105D01*
X24828476Y25438820D01*
X25066571Y26438820D01*
X25876095Y26105486D02*
X25876095Y25438820D01*
X25638000Y26486439D02*
X25399904Y25772153D01*
X26018952Y25772153D01*
%TO.C,Y1*%
X52635209Y54659210D02*
X52635209Y54183020D01*
X52301876Y55183020D02*
X52635209Y54659210D01*
X52968542Y55183020D01*
X53825685Y54183020D02*
X53254257Y54183020D01*
X53539971Y54183020D02*
X53539971Y55183020D01*
X53444733Y55040162D01*
X53349495Y54944924D01*
X53254257Y54897305D01*
%TO.C,Y2*%
X37484590Y98465010D02*
X37960780Y98465010D01*
X36960780Y98131677D02*
X37484590Y98465010D01*
X36960780Y98798343D01*
X37056019Y99084058D02*
X37008400Y99131677D01*
X36960780Y99226915D01*
X36960780Y99465010D01*
X37008400Y99560248D01*
X37056019Y99607867D01*
X37151257Y99655486D01*
X37246495Y99655486D01*
X37389352Y99607867D01*
X37960780Y99036439D01*
X37960780Y99655486D01*
%TO.C,TP14*%
X90565504Y27116020D02*
X91136933Y27116020D01*
X90851219Y26116020D02*
X90851219Y27116020D01*
X91470266Y26116020D02*
X91470266Y27116020D01*
X91851219Y27116020D01*
X91946457Y27068400D01*
X91994076Y27020781D01*
X92041695Y26925543D01*
X92041695Y26782686D01*
X91994076Y26687448D01*
X91946457Y26639829D01*
X91851219Y26592210D01*
X91470266Y26592210D01*
X92994076Y26116020D02*
X92422647Y26116020D01*
X92708361Y26116020D02*
X92708361Y27116020D01*
X92613123Y26973162D01*
X92517885Y26877924D01*
X92422647Y26830305D01*
X93851219Y26782686D02*
X93851219Y26116020D01*
X93613123Y27163639D02*
X93375028Y26449353D01*
X93994076Y26449353D01*
%TO.C,U1*%
X40696495Y12238820D02*
X40696495Y11429296D01*
X40744114Y11334058D01*
X40791733Y11286439D01*
X40886971Y11238820D01*
X41077447Y11238820D01*
X41172685Y11286439D01*
X41220304Y11334058D01*
X41267923Y11429296D01*
X41267923Y12238820D01*
X42267923Y11238820D02*
X41696495Y11238820D01*
X41982209Y11238820D02*
X41982209Y12238820D01*
X41886971Y12095962D01*
X41791733Y12000724D01*
X41696495Y11953105D01*
%TO.C,R13*%
X37511980Y33240743D02*
X37035790Y32907410D01*
X37511980Y32669315D02*
X36511980Y32669315D01*
X36511980Y33050267D01*
X36559600Y33145505D01*
X36607219Y33193124D01*
X36702457Y33240743D01*
X36845314Y33240743D01*
X36940552Y33193124D01*
X36988171Y33145505D01*
X37035790Y33050267D01*
X37035790Y32669315D01*
X37511980Y34193124D02*
X37511980Y33621696D01*
X37511980Y33907410D02*
X36511980Y33907410D01*
X36654838Y33812172D01*
X36750076Y33716934D01*
X36797695Y33621696D01*
X36511980Y34526458D02*
X36511980Y35145505D01*
X36892933Y34812172D01*
X36892933Y34955029D01*
X36940552Y35050267D01*
X36988171Y35097886D01*
X37083409Y35145505D01*
X37321504Y35145505D01*
X37416742Y35097886D01*
X37464361Y35050267D01*
X37511980Y34955029D01*
X37511980Y34669315D01*
X37464361Y34574077D01*
X37416742Y34526458D01*
%TO.C,R1*%
X73467933Y54081420D02*
X73134600Y54557610D01*
X72896504Y54081420D02*
X72896504Y55081420D01*
X73277457Y55081420D01*
X73372695Y55033800D01*
X73420314Y54986181D01*
X73467933Y54890943D01*
X73467933Y54748086D01*
X73420314Y54652848D01*
X73372695Y54605229D01*
X73277457Y54557610D01*
X72896504Y54557610D01*
X74420314Y54081420D02*
X73848885Y54081420D01*
X74134600Y54081420D02*
X74134600Y55081420D01*
X74039361Y54938562D01*
X73944123Y54843324D01*
X73848885Y54795705D01*
%TO.C,C1*%
X79284533Y45845458D02*
X79236914Y45797839D01*
X79094057Y45750220D01*
X78998819Y45750220D01*
X78855961Y45797839D01*
X78760723Y45893077D01*
X78713104Y45988315D01*
X78665485Y46178791D01*
X78665485Y46321648D01*
X78713104Y46512124D01*
X78760723Y46607362D01*
X78855961Y46702600D01*
X78998819Y46750220D01*
X79094057Y46750220D01*
X79236914Y46702600D01*
X79284533Y46654981D01*
X80236914Y45750220D02*
X79665485Y45750220D01*
X79951200Y45750220D02*
X79951200Y46750220D01*
X79855961Y46607362D01*
X79760723Y46512124D01*
X79665485Y46464505D01*
%TO.C,C6*%
X41962342Y50531734D02*
X42009961Y50484115D01*
X42057580Y50341258D01*
X42057580Y50246020D01*
X42009961Y50103162D01*
X41914723Y50007924D01*
X41819485Y49960305D01*
X41629009Y49912686D01*
X41486152Y49912686D01*
X41295676Y49960305D01*
X41200438Y50007924D01*
X41105200Y50103162D01*
X41057580Y50246020D01*
X41057580Y50341258D01*
X41105200Y50484115D01*
X41152819Y50531734D01*
X41057580Y51388877D02*
X41057580Y51198400D01*
X41105200Y51103162D01*
X41152819Y51055543D01*
X41295676Y50960305D01*
X41486152Y50912686D01*
X41867104Y50912686D01*
X41962342Y50960305D01*
X42009961Y51007924D01*
X42057580Y51103162D01*
X42057580Y51293639D01*
X42009961Y51388877D01*
X41962342Y51436496D01*
X41867104Y51484115D01*
X41629009Y51484115D01*
X41533771Y51436496D01*
X41486152Y51388877D01*
X41438533Y51293639D01*
X41438533Y51103162D01*
X41486152Y51007924D01*
X41533771Y50960305D01*
X41629009Y50912686D01*
%TO.C,TP9*%
X104579895Y53455820D02*
X105151323Y53455820D01*
X104865609Y52455820D02*
X104865609Y53455820D01*
X105484657Y52455820D02*
X105484657Y53455820D01*
X105865609Y53455820D01*
X105960847Y53408200D01*
X106008466Y53360581D01*
X106056085Y53265343D01*
X106056085Y53122486D01*
X106008466Y53027248D01*
X105960847Y52979629D01*
X105865609Y52932010D01*
X105484657Y52932010D01*
X106532276Y52455820D02*
X106722752Y52455820D01*
X106817990Y52503439D01*
X106865609Y52551058D01*
X106960847Y52693915D01*
X107008466Y52884391D01*
X107008466Y53265343D01*
X106960847Y53360581D01*
X106913228Y53408200D01*
X106817990Y53455820D01*
X106627514Y53455820D01*
X106532276Y53408200D01*
X106484657Y53360581D01*
X106437038Y53265343D01*
X106437038Y53027248D01*
X106484657Y52932010D01*
X106532276Y52884391D01*
X106627514Y52836772D01*
X106817990Y52836772D01*
X106913228Y52884391D01*
X106960847Y52932010D01*
X107008466Y53027248D01*
%TO.C,TP11*%
X18480304Y95966820D02*
X19051733Y95966820D01*
X18766019Y94966820D02*
X18766019Y95966820D01*
X19385066Y94966820D02*
X19385066Y95966820D01*
X19766019Y95966820D01*
X19861257Y95919200D01*
X19908876Y95871581D01*
X19956495Y95776343D01*
X19956495Y95633486D01*
X19908876Y95538248D01*
X19861257Y95490629D01*
X19766019Y95443010D01*
X19385066Y95443010D01*
X20908876Y94966820D02*
X20337447Y94966820D01*
X20623161Y94966820D02*
X20623161Y95966820D01*
X20527923Y95823962D01*
X20432685Y95728724D01*
X20337447Y95681105D01*
X21861257Y94966820D02*
X21289828Y94966820D01*
X21575542Y94966820D02*
X21575542Y95966820D01*
X21480304Y95823962D01*
X21385066Y95728724D01*
X21289828Y95681105D01*
%TO.C,R7*%
X90038180Y39203334D02*
X89561990Y38870000D01*
X90038180Y38631905D02*
X89038180Y38631905D01*
X89038180Y39012858D01*
X89085800Y39108096D01*
X89133419Y39155715D01*
X89228657Y39203334D01*
X89371514Y39203334D01*
X89466752Y39155715D01*
X89514371Y39108096D01*
X89561990Y39012858D01*
X89561990Y38631905D01*
X89038180Y39536667D02*
X89038180Y40203334D01*
X90038180Y39774762D01*
%TO.C,Q1*%
X104662219Y58477162D02*
X104614600Y58381924D01*
X104519361Y58286686D01*
X104376504Y58143829D01*
X104328885Y58048591D01*
X104328885Y57953353D01*
X104566980Y58000972D02*
X104519361Y57905734D01*
X104424123Y57810496D01*
X104233647Y57762877D01*
X103900314Y57762877D01*
X103709838Y57810496D01*
X103614600Y57905734D01*
X103566980Y58000972D01*
X103566980Y58191448D01*
X103614600Y58286686D01*
X103709838Y58381924D01*
X103900314Y58429543D01*
X104233647Y58429543D01*
X104424123Y58381924D01*
X104519361Y58286686D01*
X104566980Y58191448D01*
X104566980Y58000972D01*
X104566980Y59381924D02*
X104566980Y58810496D01*
X104566980Y59096210D02*
X103566980Y59096210D01*
X103709838Y59000972D01*
X103805076Y58905734D01*
X103852695Y58810496D01*
%TO.C,C5*%
X57786542Y32003334D02*
X57834161Y31955715D01*
X57881780Y31812858D01*
X57881780Y31717620D01*
X57834161Y31574762D01*
X57738923Y31479524D01*
X57643685Y31431905D01*
X57453209Y31384286D01*
X57310352Y31384286D01*
X57119876Y31431905D01*
X57024638Y31479524D01*
X56929400Y31574762D01*
X56881780Y31717620D01*
X56881780Y31812858D01*
X56929400Y31955715D01*
X56977019Y32003334D01*
X56881780Y32908096D02*
X56881780Y32431905D01*
X57357971Y32384286D01*
X57310352Y32431905D01*
X57262733Y32527143D01*
X57262733Y32765239D01*
X57310352Y32860477D01*
X57357971Y32908096D01*
X57453209Y32955715D01*
X57691304Y32955715D01*
X57786542Y32908096D01*
X57834161Y32860477D01*
X57881780Y32765239D01*
X57881780Y32527143D01*
X57834161Y32431905D01*
X57786542Y32384286D01*
%TO.C,SW1*%
X90125066Y47786439D02*
X90267923Y47738820D01*
X90506019Y47738820D01*
X90601257Y47786439D01*
X90648876Y47834058D01*
X90696495Y47929296D01*
X90696495Y48024534D01*
X90648876Y48119772D01*
X90601257Y48167391D01*
X90506019Y48215010D01*
X90315542Y48262629D01*
X90220304Y48310248D01*
X90172685Y48357867D01*
X90125066Y48453105D01*
X90125066Y48548343D01*
X90172685Y48643581D01*
X90220304Y48691200D01*
X90315542Y48738820D01*
X90553638Y48738820D01*
X90696495Y48691200D01*
X91029828Y48738820D02*
X91267923Y47738820D01*
X91458400Y48453105D01*
X91648876Y47738820D01*
X91886971Y48738820D01*
X92791733Y47738820D02*
X92220304Y47738820D01*
X92506019Y47738820D02*
X92506019Y48738820D01*
X92410780Y48595962D01*
X92315542Y48500724D01*
X92220304Y48453105D01*
%TO.C,R3*%
X77910780Y31024534D02*
X77434590Y30691200D01*
X77910780Y30453105D02*
X76910780Y30453105D01*
X76910780Y30834058D01*
X76958400Y30929296D01*
X77006019Y30976915D01*
X77101257Y31024534D01*
X77244114Y31024534D01*
X77339352Y30976915D01*
X77386971Y30929296D01*
X77434590Y30834058D01*
X77434590Y30453105D01*
X76910780Y31357867D02*
X76910780Y31976915D01*
X77291733Y31643581D01*
X77291733Y31786439D01*
X77339352Y31881677D01*
X77386971Y31929296D01*
X77482209Y31976915D01*
X77720304Y31976915D01*
X77815542Y31929296D01*
X77863161Y31881677D01*
X77910780Y31786439D01*
X77910780Y31500724D01*
X77863161Y31405486D01*
X77815542Y31357867D01*
%TO.C,TP15*%
X36260304Y95966820D02*
X36831733Y95966820D01*
X36546019Y94966820D02*
X36546019Y95966820D01*
X37165066Y94966820D02*
X37165066Y95966820D01*
X37546019Y95966820D01*
X37641257Y95919200D01*
X37688876Y95871581D01*
X37736495Y95776343D01*
X37736495Y95633486D01*
X37688876Y95538248D01*
X37641257Y95490629D01*
X37546019Y95443010D01*
X37165066Y95443010D01*
X38688876Y94966820D02*
X38117447Y94966820D01*
X38403161Y94966820D02*
X38403161Y95966820D01*
X38307923Y95823962D01*
X38212685Y95728724D01*
X38117447Y95681105D01*
X39593638Y95966820D02*
X39117447Y95966820D01*
X39069828Y95490629D01*
X39117447Y95538248D01*
X39212685Y95585867D01*
X39450780Y95585867D01*
X39546019Y95538248D01*
X39593638Y95490629D01*
X39641257Y95395391D01*
X39641257Y95157296D01*
X39593638Y95062058D01*
X39546019Y95014439D01*
X39450780Y94966820D01*
X39212685Y94966820D01*
X39117447Y95014439D01*
X39069828Y95062058D01*
%TO.C,R9*%
X58291133Y99191420D02*
X57957800Y99667610D01*
X57719704Y99191420D02*
X57719704Y100191420D01*
X58100657Y100191420D01*
X58195895Y100143800D01*
X58243514Y100096181D01*
X58291133Y100000943D01*
X58291133Y99858086D01*
X58243514Y99762848D01*
X58195895Y99715229D01*
X58100657Y99667610D01*
X57719704Y99667610D01*
X58767323Y99191420D02*
X58957800Y99191420D01*
X59053038Y99239039D01*
X59100657Y99286658D01*
X59195895Y99429515D01*
X59243514Y99619991D01*
X59243514Y100000943D01*
X59195895Y100096181D01*
X59148276Y100143800D01*
X59053038Y100191420D01*
X58862561Y100191420D01*
X58767323Y100143800D01*
X58719704Y100096181D01*
X58672085Y100000943D01*
X58672085Y99762848D01*
X58719704Y99667610D01*
X58767323Y99619991D01*
X58862561Y99572372D01*
X59053038Y99572372D01*
X59148276Y99619991D01*
X59195895Y99667610D01*
X59243514Y99762848D01*
%TO.C,TP5*%
X55710295Y93562420D02*
X56281723Y93562420D01*
X55996009Y92562420D02*
X55996009Y93562420D01*
X56615057Y92562420D02*
X56615057Y93562420D01*
X56996009Y93562420D01*
X57091247Y93514800D01*
X57138866Y93467181D01*
X57186485Y93371943D01*
X57186485Y93229086D01*
X57138866Y93133848D01*
X57091247Y93086229D01*
X56996009Y93038610D01*
X56615057Y93038610D01*
X58091247Y93562420D02*
X57615057Y93562420D01*
X57567438Y93086229D01*
X57615057Y93133848D01*
X57710295Y93181467D01*
X57948390Y93181467D01*
X58043628Y93133848D01*
X58091247Y93086229D01*
X58138866Y92990991D01*
X58138866Y92752896D01*
X58091247Y92657658D01*
X58043628Y92610039D01*
X57948390Y92562420D01*
X57710295Y92562420D01*
X57615057Y92610039D01*
X57567438Y92657658D01*
%TO.C,TP1*%
X110396495Y68026820D02*
X110967923Y68026820D01*
X110682209Y67026820D02*
X110682209Y68026820D01*
X111301257Y67026820D02*
X111301257Y68026820D01*
X111682209Y68026820D01*
X111777447Y67979200D01*
X111825066Y67931581D01*
X111872685Y67836343D01*
X111872685Y67693486D01*
X111825066Y67598248D01*
X111777447Y67550629D01*
X111682209Y67503010D01*
X111301257Y67503010D01*
X112825066Y67026820D02*
X112253638Y67026820D01*
X112539352Y67026820D02*
X112539352Y68026820D01*
X112444114Y67883962D01*
X112348876Y67788724D01*
X112253638Y67741105D01*
%TO.C,TP12*%
X49112704Y28970220D02*
X49684133Y28970220D01*
X49398419Y27970220D02*
X49398419Y28970220D01*
X50017466Y27970220D02*
X50017466Y28970220D01*
X50398419Y28970220D01*
X50493657Y28922600D01*
X50541276Y28874981D01*
X50588895Y28779743D01*
X50588895Y28636886D01*
X50541276Y28541648D01*
X50493657Y28494029D01*
X50398419Y28446410D01*
X50017466Y28446410D01*
X51541276Y27970220D02*
X50969847Y27970220D01*
X51255561Y27970220D02*
X51255561Y28970220D01*
X51160323Y28827362D01*
X51065085Y28732124D01*
X50969847Y28684505D01*
X51922228Y28874981D02*
X51969847Y28922600D01*
X52065085Y28970220D01*
X52303180Y28970220D01*
X52398419Y28922600D01*
X52446038Y28874981D01*
X52493657Y28779743D01*
X52493657Y28684505D01*
X52446038Y28541648D01*
X51874609Y27970220D01*
X52493657Y27970220D01*
%TO.C,D1*%
X43283380Y33043905D02*
X42283380Y33043905D01*
X42283380Y33282000D01*
X42331000Y33424858D01*
X42426238Y33520096D01*
X42521476Y33567715D01*
X42711952Y33615334D01*
X42854809Y33615334D01*
X43045285Y33567715D01*
X43140523Y33520096D01*
X43235761Y33424858D01*
X43283380Y33282000D01*
X43283380Y33043905D01*
X43283380Y34567715D02*
X43283380Y33996286D01*
X43283380Y34282000D02*
X42283380Y34282000D01*
X42426238Y34186762D01*
X42521476Y34091524D01*
X42569095Y33996286D01*
%TO.C,R5*%
X107021333Y59669420D02*
X106688000Y60145610D01*
X106449904Y59669420D02*
X106449904Y60669420D01*
X106830857Y60669420D01*
X106926095Y60621800D01*
X106973714Y60574181D01*
X107021333Y60478943D01*
X107021333Y60336086D01*
X106973714Y60240848D01*
X106926095Y60193229D01*
X106830857Y60145610D01*
X106449904Y60145610D01*
X107926095Y60669420D02*
X107449904Y60669420D01*
X107402285Y60193229D01*
X107449904Y60240848D01*
X107545142Y60288467D01*
X107783238Y60288467D01*
X107878476Y60240848D01*
X107926095Y60193229D01*
X107973714Y60097991D01*
X107973714Y59859896D01*
X107926095Y59764658D01*
X107878476Y59717039D01*
X107783238Y59669420D01*
X107545142Y59669420D01*
X107449904Y59717039D01*
X107402285Y59764658D01*
%TO.C,TP8*%
X81059495Y30418020D02*
X81630923Y30418020D01*
X81345209Y29418020D02*
X81345209Y30418020D01*
X81964257Y29418020D02*
X81964257Y30418020D01*
X82345209Y30418020D01*
X82440447Y30370400D01*
X82488066Y30322781D01*
X82535685Y30227543D01*
X82535685Y30084686D01*
X82488066Y29989448D01*
X82440447Y29941829D01*
X82345209Y29894210D01*
X81964257Y29894210D01*
X83107114Y29989448D02*
X83011876Y30037067D01*
X82964257Y30084686D01*
X82916638Y30179924D01*
X82916638Y30227543D01*
X82964257Y30322781D01*
X83011876Y30370400D01*
X83107114Y30418020D01*
X83297590Y30418020D01*
X83392828Y30370400D01*
X83440447Y30322781D01*
X83488066Y30227543D01*
X83488066Y30179924D01*
X83440447Y30084686D01*
X83392828Y30037067D01*
X83297590Y29989448D01*
X83107114Y29989448D01*
X83011876Y29941829D01*
X82964257Y29894210D01*
X82916638Y29798972D01*
X82916638Y29608496D01*
X82964257Y29513258D01*
X83011876Y29465639D01*
X83107114Y29418020D01*
X83297590Y29418020D01*
X83392828Y29465639D01*
X83440447Y29513258D01*
X83488066Y29608496D01*
X83488066Y29798972D01*
X83440447Y29894210D01*
X83392828Y29941829D01*
X83297590Y29989448D01*
%TO.C,TP7*%
X41384695Y26328620D02*
X41956123Y26328620D01*
X41670409Y25328620D02*
X41670409Y26328620D01*
X42289457Y25328620D02*
X42289457Y26328620D01*
X42670409Y26328620D01*
X42765647Y26281000D01*
X42813266Y26233381D01*
X42860885Y26138143D01*
X42860885Y25995286D01*
X42813266Y25900048D01*
X42765647Y25852429D01*
X42670409Y25804810D01*
X42289457Y25804810D01*
X43194219Y26328620D02*
X43860885Y26328620D01*
X43432314Y25328620D01*
%TO.C,R6*%
X48194933Y30891220D02*
X47861600Y31367410D01*
X47623504Y30891220D02*
X47623504Y31891220D01*
X48004457Y31891220D01*
X48099695Y31843600D01*
X48147314Y31795981D01*
X48194933Y31700743D01*
X48194933Y31557886D01*
X48147314Y31462648D01*
X48099695Y31415029D01*
X48004457Y31367410D01*
X47623504Y31367410D01*
X49052076Y31891220D02*
X48861600Y31891220D01*
X48766361Y31843600D01*
X48718742Y31795981D01*
X48623504Y31653124D01*
X48575885Y31462648D01*
X48575885Y31081696D01*
X48623504Y30986458D01*
X48671123Y30938839D01*
X48766361Y30891220D01*
X48956838Y30891220D01*
X49052076Y30938839D01*
X49099695Y30986458D01*
X49147314Y31081696D01*
X49147314Y31319791D01*
X49099695Y31415029D01*
X49052076Y31462648D01*
X48956838Y31510267D01*
X48766361Y31510267D01*
X48671123Y31462648D01*
X48623504Y31415029D01*
X48575885Y31319791D01*
%TO.C,R4*%
X74086980Y30770534D02*
X73610790Y30437200D01*
X74086980Y30199105D02*
X73086980Y30199105D01*
X73086980Y30580058D01*
X73134600Y30675296D01*
X73182219Y30722915D01*
X73277457Y30770534D01*
X73420314Y30770534D01*
X73515552Y30722915D01*
X73563171Y30675296D01*
X73610790Y30580058D01*
X73610790Y30199105D01*
X73420314Y31627677D02*
X74086980Y31627677D01*
X73039361Y31389581D02*
X73753647Y31151486D01*
X73753647Y31770534D01*
%TO.C,H3*%
X113157095Y62641220D02*
X113157095Y63641220D01*
X113157095Y63165029D02*
X113728523Y63165029D01*
X113728523Y62641220D02*
X113728523Y63641220D01*
X114109476Y63641220D02*
X114728523Y63641220D01*
X114395190Y63260267D01*
X114538047Y63260267D01*
X114633285Y63212648D01*
X114680904Y63165029D01*
X114728523Y63069791D01*
X114728523Y62831696D01*
X114680904Y62736458D01*
X114633285Y62688839D01*
X114538047Y62641220D01*
X114252333Y62641220D01*
X114157095Y62688839D01*
X114109476Y62736458D01*
%TO.C,C3*%
X54153342Y33513734D02*
X54200961Y33466115D01*
X54248580Y33323258D01*
X54248580Y33228020D01*
X54200961Y33085162D01*
X54105723Y32989924D01*
X54010485Y32942305D01*
X53820009Y32894686D01*
X53677152Y32894686D01*
X53486676Y32942305D01*
X53391438Y32989924D01*
X53296200Y33085162D01*
X53248580Y33228020D01*
X53248580Y33323258D01*
X53296200Y33466115D01*
X53343819Y33513734D01*
X53248580Y33847067D02*
X53248580Y34466115D01*
X53629533Y34132781D01*
X53629533Y34275639D01*
X53677152Y34370877D01*
X53724771Y34418496D01*
X53820009Y34466115D01*
X54058104Y34466115D01*
X54153342Y34418496D01*
X54200961Y34370877D01*
X54248580Y34275639D01*
X54248580Y33989924D01*
X54200961Y33894686D01*
X54153342Y33847067D01*
%TO.C,J2*%
X63230780Y50857867D02*
X63945066Y50857867D01*
X64087923Y50810248D01*
X64183161Y50715010D01*
X64230780Y50572153D01*
X64230780Y50476915D01*
X63326019Y51286439D02*
X63278400Y51334058D01*
X63230780Y51429296D01*
X63230780Y51667391D01*
X63278400Y51762629D01*
X63326019Y51810248D01*
X63421257Y51857867D01*
X63516495Y51857867D01*
X63659352Y51810248D01*
X64230780Y51238820D01*
X64230780Y51857867D01*
%TO.C,H2*%
X62230095Y6253220D02*
X62230095Y7253220D01*
X62230095Y6777029D02*
X62801523Y6777029D01*
X62801523Y6253220D02*
X62801523Y7253220D01*
X63230095Y7157981D02*
X63277714Y7205600D01*
X63372952Y7253220D01*
X63611047Y7253220D01*
X63706285Y7205600D01*
X63753904Y7157981D01*
X63801523Y7062743D01*
X63801523Y6967505D01*
X63753904Y6824648D01*
X63182476Y6253220D01*
X63801523Y6253220D01*
%TO.C,C2*%
X63465542Y49024534D02*
X63513161Y48976915D01*
X63560780Y48834058D01*
X63560780Y48738820D01*
X63513161Y48595962D01*
X63417923Y48500724D01*
X63322685Y48453105D01*
X63132209Y48405486D01*
X62989352Y48405486D01*
X62798876Y48453105D01*
X62703638Y48500724D01*
X62608400Y48595962D01*
X62560780Y48738820D01*
X62560780Y48834058D01*
X62608400Y48976915D01*
X62656019Y49024534D01*
X62656019Y49405486D02*
X62608400Y49453105D01*
X62560780Y49548343D01*
X62560780Y49786439D01*
X62608400Y49881677D01*
X62656019Y49929296D01*
X62751257Y49976915D01*
X62846495Y49976915D01*
X62989352Y49929296D01*
X63560780Y49357867D01*
X63560780Y49976915D01*
%TO.C,U3*%
X45706495Y102868820D02*
X45706495Y102059296D01*
X45754114Y101964058D01*
X45801733Y101916439D01*
X45896971Y101868820D01*
X46087447Y101868820D01*
X46182685Y101916439D01*
X46230304Y101964058D01*
X46277923Y102059296D01*
X46277923Y102868820D01*
X46658876Y102868820D02*
X47277923Y102868820D01*
X46944590Y102487867D01*
X47087447Y102487867D01*
X47182685Y102440248D01*
X47230304Y102392629D01*
X47277923Y102297391D01*
X47277923Y102059296D01*
X47230304Y101964058D01*
X47182685Y101916439D01*
X47087447Y101868820D01*
X46801733Y101868820D01*
X46706495Y101916439D01*
X46658876Y101964058D01*
%TO.C,H1*%
X52446495Y112188820D02*
X52446495Y113188820D01*
X52446495Y112712629D02*
X53017923Y112712629D01*
X53017923Y112188820D02*
X53017923Y113188820D01*
X54017923Y112188820D02*
X53446495Y112188820D01*
X53732209Y112188820D02*
X53732209Y113188820D01*
X53636971Y113045962D01*
X53541733Y112950724D01*
X53446495Y112903105D01*
%TO.C,SW3*%
X93125066Y28486439D02*
X93267923Y28438820D01*
X93506019Y28438820D01*
X93601257Y28486439D01*
X93648876Y28534058D01*
X93696495Y28629296D01*
X93696495Y28724534D01*
X93648876Y28819772D01*
X93601257Y28867391D01*
X93506019Y28915010D01*
X93315542Y28962629D01*
X93220304Y29010248D01*
X93172685Y29057867D01*
X93125066Y29153105D01*
X93125066Y29248343D01*
X93172685Y29343581D01*
X93220304Y29391200D01*
X93315542Y29438820D01*
X93553638Y29438820D01*
X93696495Y29391200D01*
X94029828Y29438820D02*
X94267923Y28438820D01*
X94458400Y29153105D01*
X94648876Y28438820D01*
X94886971Y29438820D01*
X95172685Y29438820D02*
X95791733Y29438820D01*
X95458400Y29057867D01*
X95601257Y29057867D01*
X95696495Y29010248D01*
X95744114Y28962629D01*
X95791733Y28867391D01*
X95791733Y28629296D01*
X95744114Y28534058D01*
X95696495Y28486439D01*
X95601257Y28438820D01*
X95315542Y28438820D01*
X95220304Y28486439D01*
X95172685Y28534058D01*
%TO.C,R10*%
X70937380Y30370543D02*
X70461190Y30037210D01*
X70937380Y29799115D02*
X69937380Y29799115D01*
X69937380Y30180067D01*
X69985000Y30275305D01*
X70032619Y30322924D01*
X70127857Y30370543D01*
X70270714Y30370543D01*
X70365952Y30322924D01*
X70413571Y30275305D01*
X70461190Y30180067D01*
X70461190Y29799115D01*
X70937380Y31322924D02*
X70937380Y30751496D01*
X70937380Y31037210D02*
X69937380Y31037210D01*
X70080238Y30941972D01*
X70175476Y30846734D01*
X70223095Y30751496D01*
X69937380Y31941972D02*
X69937380Y32037210D01*
X69985000Y32132448D01*
X70032619Y32180067D01*
X70127857Y32227686D01*
X70318333Y32275305D01*
X70556428Y32275305D01*
X70746904Y32227686D01*
X70842142Y32180067D01*
X70889761Y32132448D01*
X70937380Y32037210D01*
X70937380Y31941972D01*
X70889761Y31846734D01*
X70842142Y31799115D01*
X70746904Y31751496D01*
X70556428Y31703877D01*
X70318333Y31703877D01*
X70127857Y31751496D01*
X70032619Y31799115D01*
X69985000Y31846734D01*
X69937380Y31941972D01*
%TO.C,TP16*%
X40070304Y109936820D02*
X40641733Y109936820D01*
X40356019Y108936820D02*
X40356019Y109936820D01*
X40975066Y108936820D02*
X40975066Y109936820D01*
X41356019Y109936820D01*
X41451257Y109889200D01*
X41498876Y109841581D01*
X41546495Y109746343D01*
X41546495Y109603486D01*
X41498876Y109508248D01*
X41451257Y109460629D01*
X41356019Y109413010D01*
X40975066Y109413010D01*
X42498876Y108936820D02*
X41927447Y108936820D01*
X42213161Y108936820D02*
X42213161Y109936820D01*
X42117923Y109793962D01*
X42022685Y109698724D01*
X41927447Y109651105D01*
X43356019Y109936820D02*
X43165542Y109936820D01*
X43070304Y109889200D01*
X43022685Y109841581D01*
X42927447Y109698724D01*
X42879828Y109508248D01*
X42879828Y109127296D01*
X42927447Y109032058D01*
X42975066Y108984439D01*
X43070304Y108936820D01*
X43260780Y108936820D01*
X43356019Y108984439D01*
X43403638Y109032058D01*
X43451257Y109127296D01*
X43451257Y109365391D01*
X43403638Y109460629D01*
X43356019Y109508248D01*
X43260780Y109555867D01*
X43070304Y109555867D01*
X42975066Y109508248D01*
X42927447Y109460629D01*
X42879828Y109365391D01*
%TO.C,R2*%
X66291733Y47738820D02*
X65958400Y48215010D01*
X65720304Y47738820D02*
X65720304Y48738820D01*
X66101257Y48738820D01*
X66196495Y48691200D01*
X66244114Y48643581D01*
X66291733Y48548343D01*
X66291733Y48405486D01*
X66244114Y48310248D01*
X66196495Y48262629D01*
X66101257Y48215010D01*
X65720304Y48215010D01*
X66672685Y48643581D02*
X66720304Y48691200D01*
X66815542Y48738820D01*
X67053638Y48738820D01*
X67148876Y48691200D01*
X67196495Y48643581D01*
X67244114Y48548343D01*
X67244114Y48453105D01*
X67196495Y48310248D01*
X66625066Y47738820D01*
X67244114Y47738820D01*
%TO.C,TP2*%
X35466495Y45166820D02*
X36037923Y45166820D01*
X35752209Y44166820D02*
X35752209Y45166820D01*
X36371257Y44166820D02*
X36371257Y45166820D01*
X36752209Y45166820D01*
X36847447Y45119200D01*
X36895066Y45071581D01*
X36942685Y44976343D01*
X36942685Y44833486D01*
X36895066Y44738248D01*
X36847447Y44690629D01*
X36752209Y44643010D01*
X36371257Y44643010D01*
X37323638Y45071581D02*
X37371257Y45119200D01*
X37466495Y45166820D01*
X37704590Y45166820D01*
X37799828Y45119200D01*
X37847447Y45071581D01*
X37895066Y44976343D01*
X37895066Y44881105D01*
X37847447Y44738248D01*
X37276019Y44166820D01*
X37895066Y44166820D01*
%TO.C,TP10*%
X64200304Y103586820D02*
X64771733Y103586820D01*
X64486019Y102586820D02*
X64486019Y103586820D01*
X65105066Y102586820D02*
X65105066Y103586820D01*
X65486019Y103586820D01*
X65581257Y103539200D01*
X65628876Y103491581D01*
X65676495Y103396343D01*
X65676495Y103253486D01*
X65628876Y103158248D01*
X65581257Y103110629D01*
X65486019Y103063010D01*
X65105066Y103063010D01*
X66628876Y102586820D02*
X66057447Y102586820D01*
X66343161Y102586820D02*
X66343161Y103586820D01*
X66247923Y103443962D01*
X66152685Y103348724D01*
X66057447Y103301105D01*
X67247923Y103586820D02*
X67343161Y103586820D01*
X67438400Y103539200D01*
X67486019Y103491581D01*
X67533638Y103396343D01*
X67581257Y103205867D01*
X67581257Y102967772D01*
X67533638Y102777296D01*
X67486019Y102682058D01*
X67438400Y102634439D01*
X67343161Y102586820D01*
X67247923Y102586820D01*
X67152685Y102634439D01*
X67105066Y102682058D01*
X67057447Y102777296D01*
X67009828Y102967772D01*
X67009828Y103205867D01*
X67057447Y103396343D01*
X67105066Y103491581D01*
X67152685Y103539200D01*
X67247923Y103586820D01*
%TO.C,J3*%
X83120066Y44593820D02*
X83120066Y43879534D01*
X83072447Y43736677D01*
X82977209Y43641439D01*
X82834352Y43593820D01*
X82739114Y43593820D01*
X83501019Y44593820D02*
X84120066Y44593820D01*
X83786733Y44212867D01*
X83929590Y44212867D01*
X84024828Y44165248D01*
X84072447Y44117629D01*
X84120066Y44022391D01*
X84120066Y43784296D01*
X84072447Y43689058D01*
X84024828Y43641439D01*
X83929590Y43593820D01*
X83643876Y43593820D01*
X83548638Y43641439D01*
X83501019Y43689058D01*
%TO.C,TP6*%
X93886495Y97236820D02*
X94457923Y97236820D01*
X94172209Y96236820D02*
X94172209Y97236820D01*
X94791257Y96236820D02*
X94791257Y97236820D01*
X95172209Y97236820D01*
X95267447Y97189200D01*
X95315066Y97141581D01*
X95362685Y97046343D01*
X95362685Y96903486D01*
X95315066Y96808248D01*
X95267447Y96760629D01*
X95172209Y96713010D01*
X94791257Y96713010D01*
X96219828Y97236820D02*
X96029352Y97236820D01*
X95934114Y97189200D01*
X95886495Y97141581D01*
X95791257Y96998724D01*
X95743638Y96808248D01*
X95743638Y96427296D01*
X95791257Y96332058D01*
X95838876Y96284439D01*
X95934114Y96236820D01*
X96124590Y96236820D01*
X96219828Y96284439D01*
X96267447Y96332058D01*
X96315066Y96427296D01*
X96315066Y96665391D01*
X96267447Y96760629D01*
X96219828Y96808248D01*
X96124590Y96855867D01*
X95934114Y96855867D01*
X95838876Y96808248D01*
X95791257Y96760629D01*
X95743638Y96665391D01*
%TO.C,R11*%
X34311580Y37050743D02*
X33835390Y36717410D01*
X34311580Y36479315D02*
X33311580Y36479315D01*
X33311580Y36860267D01*
X33359200Y36955505D01*
X33406819Y37003124D01*
X33502057Y37050743D01*
X33644914Y37050743D01*
X33740152Y37003124D01*
X33787771Y36955505D01*
X33835390Y36860267D01*
X33835390Y36479315D01*
X34311580Y38003124D02*
X34311580Y37431696D01*
X34311580Y37717410D02*
X33311580Y37717410D01*
X33454438Y37622172D01*
X33549676Y37526934D01*
X33597295Y37431696D01*
X34311580Y38955505D02*
X34311580Y38384077D01*
X34311580Y38669791D02*
X33311580Y38669791D01*
X33454438Y38574553D01*
X33549676Y38479315D01*
X33597295Y38384077D01*
%TO.C,C4*%
X50291733Y23484058D02*
X50244114Y23436439D01*
X50101257Y23388820D01*
X50006019Y23388820D01*
X49863161Y23436439D01*
X49767923Y23531677D01*
X49720304Y23626915D01*
X49672685Y23817391D01*
X49672685Y23960248D01*
X49720304Y24150724D01*
X49767923Y24245962D01*
X49863161Y24341200D01*
X50006019Y24388820D01*
X50101257Y24388820D01*
X50244114Y24341200D01*
X50291733Y24293581D01*
X51148876Y24055486D02*
X51148876Y23388820D01*
X50910780Y24436439D02*
X50672685Y23722153D01*
X51291733Y23722153D01*
%TO.C,TP3*%
X46871095Y7735820D02*
X47442523Y7735820D01*
X47156809Y6735820D02*
X47156809Y7735820D01*
X47775857Y6735820D02*
X47775857Y7735820D01*
X48156809Y7735820D01*
X48252047Y7688200D01*
X48299666Y7640581D01*
X48347285Y7545343D01*
X48347285Y7402486D01*
X48299666Y7307248D01*
X48252047Y7259629D01*
X48156809Y7212010D01*
X47775857Y7212010D01*
X48680619Y7735820D02*
X49299666Y7735820D01*
X48966333Y7354867D01*
X49109190Y7354867D01*
X49204428Y7307248D01*
X49252047Y7259629D01*
X49299666Y7164391D01*
X49299666Y6926296D01*
X49252047Y6831058D01*
X49204428Y6783439D01*
X49109190Y6735820D01*
X48823476Y6735820D01*
X48728238Y6783439D01*
X48680619Y6831058D01*
%TO.C,SW2*%
X16480366Y37484639D02*
X16623223Y37437020D01*
X16861319Y37437020D01*
X16956557Y37484639D01*
X17004176Y37532258D01*
X17051795Y37627496D01*
X17051795Y37722734D01*
X17004176Y37817972D01*
X16956557Y37865591D01*
X16861319Y37913210D01*
X16670842Y37960829D01*
X16575604Y38008448D01*
X16527985Y38056067D01*
X16480366Y38151305D01*
X16480366Y38246543D01*
X16527985Y38341781D01*
X16575604Y38389400D01*
X16670842Y38437020D01*
X16908938Y38437020D01*
X17051795Y38389400D01*
X17385128Y38437020D02*
X17623223Y37437020D01*
X17813700Y38151305D01*
X18004176Y37437020D01*
X18242271Y38437020D01*
X18575604Y38341781D02*
X18623223Y38389400D01*
X18718461Y38437020D01*
X18956557Y38437020D01*
X19051795Y38389400D01*
X19099414Y38341781D01*
X19147033Y38246543D01*
X19147033Y38151305D01*
X19099414Y38008448D01*
X18527985Y37437020D01*
X19147033Y37437020D01*
%TO.C,SW5*%
X98125066Y38486439D02*
X98267923Y38438820D01*
X98506019Y38438820D01*
X98601257Y38486439D01*
X98648876Y38534058D01*
X98696495Y38629296D01*
X98696495Y38724534D01*
X98648876Y38819772D01*
X98601257Y38867391D01*
X98506019Y38915010D01*
X98315542Y38962629D01*
X98220304Y39010248D01*
X98172685Y39057867D01*
X98125066Y39153105D01*
X98125066Y39248343D01*
X98172685Y39343581D01*
X98220304Y39391200D01*
X98315542Y39438820D01*
X98553638Y39438820D01*
X98696495Y39391200D01*
X99029828Y39438820D02*
X99267923Y38438820D01*
X99458400Y39153105D01*
X99648876Y38438820D01*
X99886971Y39438820D01*
X100744114Y39438820D02*
X100267923Y39438820D01*
X100220304Y38962629D01*
X100267923Y39010248D01*
X100363161Y39057867D01*
X100601257Y39057867D01*
X100696495Y39010248D01*
X100744114Y38962629D01*
X100791733Y38867391D01*
X100791733Y38629296D01*
X100744114Y38534058D01*
X100696495Y38486439D01*
X100601257Y38438820D01*
X100363161Y38438820D01*
X100267923Y38486439D01*
X100220304Y38534058D01*
%TO.C,DS1*%
X19563514Y90724120D02*
X19563514Y91724120D01*
X19801609Y91724120D01*
X19944466Y91676500D01*
X20039704Y91581262D01*
X20087323Y91486024D01*
X20134942Y91295548D01*
X20134942Y91152691D01*
X20087323Y90962215D01*
X20039704Y90866977D01*
X19944466Y90771739D01*
X19801609Y90724120D01*
X19563514Y90724120D01*
X20515895Y90771739D02*
X20658752Y90724120D01*
X20896847Y90724120D01*
X20992085Y90771739D01*
X21039704Y90819358D01*
X21087323Y90914596D01*
X21087323Y91009834D01*
X21039704Y91105072D01*
X20992085Y91152691D01*
X20896847Y91200310D01*
X20706371Y91247929D01*
X20611133Y91295548D01*
X20563514Y91343167D01*
X20515895Y91438405D01*
X20515895Y91533643D01*
X20563514Y91628881D01*
X20611133Y91676500D01*
X20706371Y91724120D01*
X20944466Y91724120D01*
X21087323Y91676500D01*
X22039704Y90724120D02*
X21468276Y90724120D01*
X21753990Y90724120D02*
X21753990Y91724120D01*
X21658752Y91581262D01*
X21563514Y91486024D01*
X21468276Y91438405D01*
%TO.C,U2*%
X77740780Y41419296D02*
X78550304Y41419296D01*
X78645542Y41466915D01*
X78693161Y41514534D01*
X78740780Y41609772D01*
X78740780Y41800248D01*
X78693161Y41895486D01*
X78645542Y41943105D01*
X78550304Y41990724D01*
X77740780Y41990724D01*
X77836019Y42419296D02*
X77788400Y42466915D01*
X77740780Y42562153D01*
X77740780Y42800248D01*
X77788400Y42895486D01*
X77836019Y42943105D01*
X77931257Y42990724D01*
X78026495Y42990724D01*
X78169352Y42943105D01*
X78740780Y42371677D01*
X78740780Y42990724D01*
D11*
%TO.C,AmOgUs*%
X8570685Y65735200D02*
X9296400Y65735200D01*
X8425542Y65299772D02*
X8933542Y66823772D01*
X9441542Y65299772D01*
X9949542Y65299772D02*
X9949542Y66315772D01*
X9949542Y66170629D02*
X10022114Y66243200D01*
X10167257Y66315772D01*
X10384971Y66315772D01*
X10530114Y66243200D01*
X10602685Y66098058D01*
X10602685Y65299772D01*
X10602685Y66098058D02*
X10675257Y66243200D01*
X10820400Y66315772D01*
X11038114Y66315772D01*
X11183257Y66243200D01*
X11255828Y66098058D01*
X11255828Y65299772D01*
X12271828Y66823772D02*
X12562114Y66823772D01*
X12707257Y66751200D01*
X12852400Y66606058D01*
X12924971Y66315772D01*
X12924971Y65807772D01*
X12852400Y65517486D01*
X12707257Y65372343D01*
X12562114Y65299772D01*
X12271828Y65299772D01*
X12126685Y65372343D01*
X11981542Y65517486D01*
X11908971Y65807772D01*
X11908971Y66315772D01*
X11981542Y66606058D01*
X12126685Y66751200D01*
X12271828Y66823772D01*
X14231257Y66315772D02*
X14231257Y65082058D01*
X14158685Y64936915D01*
X14086114Y64864343D01*
X13940971Y64791772D01*
X13723257Y64791772D01*
X13578114Y64864343D01*
X14231257Y65372343D02*
X14086114Y65299772D01*
X13795828Y65299772D01*
X13650685Y65372343D01*
X13578114Y65444915D01*
X13505542Y65590058D01*
X13505542Y66025486D01*
X13578114Y66170629D01*
X13650685Y66243200D01*
X13795828Y66315772D01*
X14086114Y66315772D01*
X14231257Y66243200D01*
X14956971Y66823772D02*
X14956971Y65590058D01*
X15029542Y65444915D01*
X15102114Y65372343D01*
X15247257Y65299772D01*
X15537542Y65299772D01*
X15682685Y65372343D01*
X15755257Y65444915D01*
X15827828Y65590058D01*
X15827828Y66823772D01*
X16480971Y65372343D02*
X16626114Y65299772D01*
X16916400Y65299772D01*
X17061542Y65372343D01*
X17134114Y65517486D01*
X17134114Y65590058D01*
X17061542Y65735200D01*
X16916400Y65807772D01*
X16698685Y65807772D01*
X16553542Y65880343D01*
X16480971Y66025486D01*
X16480971Y66098058D01*
X16553542Y66243200D01*
X16698685Y66315772D01*
X16916400Y66315772D01*
X17061542Y66243200D01*
D10*
%TO.C,R8*%
X97291733Y50738820D02*
X96958400Y51215010D01*
X96720304Y50738820D02*
X96720304Y51738820D01*
X97101257Y51738820D01*
X97196495Y51691200D01*
X97244114Y51643581D01*
X97291733Y51548343D01*
X97291733Y51405486D01*
X97244114Y51310248D01*
X97196495Y51262629D01*
X97101257Y51215010D01*
X96720304Y51215010D01*
X97863161Y51310248D02*
X97767923Y51357867D01*
X97720304Y51405486D01*
X97672685Y51500724D01*
X97672685Y51548343D01*
X97720304Y51643581D01*
X97767923Y51691200D01*
X97863161Y51738820D01*
X98053638Y51738820D01*
X98148876Y51691200D01*
X98196495Y51643581D01*
X98244114Y51548343D01*
X98244114Y51500724D01*
X98196495Y51405486D01*
X98148876Y51357867D01*
X98053638Y51310248D01*
X97863161Y51310248D01*
X97767923Y51262629D01*
X97720304Y51215010D01*
X97672685Y51119772D01*
X97672685Y50929296D01*
X97720304Y50834058D01*
X97767923Y50786439D01*
X97863161Y50738820D01*
X98053638Y50738820D01*
X98148876Y50786439D01*
X98196495Y50834058D01*
X98244114Y50929296D01*
X98244114Y51119772D01*
X98196495Y51215010D01*
X98148876Y51262629D01*
X98053638Y51310248D01*
%TO.C,R12*%
X61590180Y30573743D02*
X61113990Y30240410D01*
X61590180Y30002315D02*
X60590180Y30002315D01*
X60590180Y30383267D01*
X60637800Y30478505D01*
X60685419Y30526124D01*
X60780657Y30573743D01*
X60923514Y30573743D01*
X61018752Y30526124D01*
X61066371Y30478505D01*
X61113990Y30383267D01*
X61113990Y30002315D01*
X61590180Y31526124D02*
X61590180Y30954696D01*
X61590180Y31240410D02*
X60590180Y31240410D01*
X60733038Y31145172D01*
X60828276Y31049934D01*
X60875895Y30954696D01*
X60685419Y31907077D02*
X60637800Y31954696D01*
X60590180Y32049934D01*
X60590180Y32288029D01*
X60637800Y32383267D01*
X60685419Y32430886D01*
X60780657Y32478505D01*
X60875895Y32478505D01*
X61018752Y32430886D01*
X61590180Y31859458D01*
X61590180Y32478505D01*
D12*
%TO.C,SW4*%
X21738000Y26941200D02*
X27538000Y26941200D01*
X29738000Y27891200D02*
X29738000Y26891200D01*
X21638000Y33441200D02*
X27638000Y33441200D01*
X27738000Y28891200D02*
X27738000Y31491200D01*
X21538000Y28891200D02*
X21538000Y31491200D01*
X29738000Y26891200D02*
X28738000Y26891200D01*
%TO.C,Y1*%
X46758400Y52741200D02*
X46758400Y47641200D01*
X46758400Y47641200D02*
X59358400Y47641200D01*
X59358400Y52741200D02*
X46758400Y52741200D01*
%TO.C,Y2*%
X40408400Y98391200D02*
X40408400Y99491200D01*
X38558400Y96991200D02*
X40358400Y96991200D01*
X38508400Y98391200D02*
X38508400Y99491200D01*
%TO.C,TP14*%
X90125400Y26187400D02*
G75*
G03*
X90125400Y26187400I-1200000J0D01*
G01*
%TO.C,U1*%
X43928400Y12741200D02*
X43928400Y13011200D01*
X43928400Y13011200D02*
X46758400Y13011200D01*
X43928400Y19371200D02*
X45028400Y19371200D01*
X43928400Y19641200D02*
X43928400Y19371200D01*
X42428400Y12741200D02*
X43928400Y12741200D01*
X42428400Y19641200D02*
X43928400Y19641200D01*
%TO.C,TP9*%
X103968400Y52781200D02*
G75*
G03*
X103968400Y52781200I-1200000J0D01*
G01*
%TO.C,TP11*%
X21418400Y93421200D02*
G75*
G03*
X21418400Y93421200I-1200000J0D01*
G01*
%TO.C,Q1*%
X103038400Y59951200D02*
X103038400Y58491200D01*
X103038400Y59951200D02*
X102108400Y59951200D01*
X99878400Y59951200D02*
X99878400Y57791200D01*
X99878400Y59951200D02*
X100808400Y59951200D01*
%TO.C,SW1*%
X81358400Y51491200D02*
X82358400Y51491200D01*
X89458400Y44941200D02*
X83458400Y44941200D01*
X81358400Y50491200D02*
X81358400Y51491200D01*
X89358400Y51441200D02*
X83558400Y51441200D01*
X83358400Y49491200D02*
X83358400Y46891200D01*
X89558400Y49491200D02*
X89558400Y46891200D01*
%TO.C,TP15*%
X39198400Y93421200D02*
G75*
G03*
X39198400Y93421200I-1200000J0D01*
G01*
%TO.C,R9*%
X60043400Y105604200D02*
X56593400Y105604200D01*
X60043400Y101304200D02*
X56593400Y101304200D01*
X56565373Y105586344D02*
G75*
G03*
X56593400Y101304200I1378027J-2132144D01*
G01*
X60068876Y101319812D02*
G75*
G03*
X60043400Y105604200I-1325476J2134388D01*
G01*
%TO.C,TP5*%
X58248400Y95961200D02*
G75*
G03*
X58248400Y95961200I-1200000J0D01*
G01*
%TO.C,TP1*%
X112858400Y65481200D02*
G75*
G03*
X112858400Y65481200I-1200000J0D01*
G01*
%TO.C,TP12*%
X55860800Y29692600D02*
G75*
G03*
X55860800Y29692600I-1200000J0D01*
G01*
%TO.C,D1*%
X43871000Y32097000D02*
X45791000Y32097000D01*
X43871000Y34782000D02*
X43871000Y32097000D01*
X45791000Y32097000D02*
X45791000Y34782000D01*
%TO.C,TP8*%
X83648400Y32461200D02*
G75*
G03*
X83648400Y32461200I-1200000J0D01*
G01*
%TO.C,TP7*%
X48088400Y26111200D02*
G75*
G03*
X48088400Y26111200I-1200000J0D01*
G01*
%TO.C,J2*%
X64778400Y49861200D02*
X64778400Y51191200D01*
X67378400Y52521200D02*
X80138400Y52521200D01*
X67378400Y49861200D02*
X80138400Y49861200D01*
X67378400Y49861200D02*
X67378400Y52521200D01*
X66108400Y49861200D02*
X64778400Y49861200D01*
X80138400Y49861200D02*
X80138400Y52521200D01*
%TO.C,U3*%
X45468400Y101321200D02*
X43818400Y101321200D01*
X49118400Y91041200D02*
X49118400Y101321200D01*
X43818400Y101321200D02*
X43818400Y91041200D01*
X43818400Y91041200D02*
X49118400Y91041200D01*
X49118400Y101321200D02*
X47468400Y101321200D01*
X45468400Y101321200D02*
G75*
G03*
X47468400Y101321200I1000000J0D01*
G01*
%TO.C,SW3*%
X99558400Y30891200D02*
X99558400Y29891200D01*
X99558400Y29891200D02*
X98558400Y29891200D01*
X91458400Y36441200D02*
X97458400Y36441200D01*
X91358400Y31891200D02*
X91358400Y34491200D01*
X97558400Y31891200D02*
X97558400Y34491200D01*
X91558400Y29941200D02*
X97358400Y29941200D01*
%TO.C,TP16*%
X43008400Y107391200D02*
G75*
G03*
X43008400Y107391200I-1200000J0D01*
G01*
%TO.C,TP2*%
X37928400Y42621200D02*
G75*
G03*
X37928400Y42621200I-1200000J0D01*
G01*
%TO.C,TP10*%
X67138400Y101041200D02*
G75*
G03*
X67138400Y101041200I-1200000J0D01*
G01*
%TO.C,J3*%
X80853400Y41716200D02*
X80853400Y43046200D01*
X80853400Y35306200D02*
X86053400Y35306200D01*
X86053400Y43046200D02*
X86053400Y35306200D01*
X83453400Y40446200D02*
X83453400Y43046200D01*
X83453400Y43046200D02*
X86053400Y43046200D01*
X80853400Y40446200D02*
X83453400Y40446200D01*
X80853400Y43046200D02*
X82183400Y43046200D01*
X80853400Y40446200D02*
X80853400Y35306200D01*
%TO.C,TP6*%
X96348400Y94691200D02*
G75*
G03*
X96348400Y94691200I-1200000J0D01*
G01*
%TO.C,TP3*%
X49358400Y9601200D02*
G75*
G03*
X49358400Y9601200I-1200000J0D01*
G01*
%TO.C,SW2*%
X14813700Y45439400D02*
X20813700Y45439400D01*
X22913700Y39889400D02*
X22913700Y38889400D01*
X20913700Y40889400D02*
X20913700Y43489400D01*
X14913700Y38939400D02*
X20713700Y38939400D01*
X14713700Y40889400D02*
X14713700Y43489400D01*
X22913700Y38889400D02*
X21913700Y38889400D01*
%TO.C,SW5*%
X96358400Y41891200D02*
X96358400Y44491200D01*
X96458400Y46441200D02*
X102458400Y46441200D01*
X96558400Y39941200D02*
X102358400Y39941200D01*
X104558400Y40891200D02*
X104558400Y39891200D01*
X102558400Y41891200D02*
X102558400Y44491200D01*
X104558400Y39891200D02*
X103558400Y39891200D01*
%TO.C,DS1*%
X21597800Y84366500D02*
X94597800Y84366500D01*
X90797800Y78866500D02*
X90797800Y64866500D01*
X18457800Y53726500D02*
X98737800Y53726500D01*
X18457800Y90006500D02*
X18457800Y53726500D01*
X90298460Y64366500D02*
X26797800Y64366500D01*
X25097800Y90366500D02*
X28097800Y90366500D01*
X98737800Y53726500D02*
X98737800Y90006500D01*
X94597800Y59366500D02*
X21597800Y59366500D01*
X26797800Y79366500D02*
X90297800Y79366500D01*
X18467800Y90006500D02*
X19257800Y90006500D01*
X94597800Y84366500D02*
X94597800Y59366500D01*
X98737800Y90006500D02*
X19257800Y90006500D01*
X26298080Y64867180D02*
X26298080Y78866500D01*
X21597800Y59366500D02*
X21597800Y84366500D01*
X26298080Y64867180D02*
G75*
G03*
X26798460Y64366800I500380J0D01*
G01*
X90298460Y64366860D02*
G75*
G03*
X90798840Y64867180I40J500340D01*
G01*
X90797800Y78866500D02*
G75*
G03*
X90297800Y79366500I-500000J0D01*
G01*
X26798460Y79368040D02*
G75*
G03*
X26298080Y78867660I0J-500380D01*
G01*
%TO.C,U2*%
X41608400Y39531200D02*
X77288400Y39531200D01*
X77288400Y44831200D02*
X41608400Y44831200D01*
X41608400Y44831200D02*
X41608400Y39531200D01*
X77288400Y39531200D02*
X77288400Y41181200D01*
X77288400Y43181200D02*
X77288400Y44831200D01*
X77288400Y43181200D02*
G75*
G03*
X77288400Y41181200I0J-1000000D01*
G01*
%TO.C,AmOgUs*%
G36*
X11559453Y67756086D02*
G01*
X11507989Y67728214D01*
X11500792Y67724756D01*
X11383686Y67668490D01*
X11248869Y67609857D01*
X11114707Y67557552D01*
X11090169Y67549381D01*
X10992371Y67516813D01*
X10941438Y67502981D01*
X10788426Y67476031D01*
X10592049Y67457104D01*
X10549595Y67455051D01*
X10367057Y67446223D01*
X10128195Y67443410D01*
X9890214Y67448685D01*
X9667860Y67462072D01*
X9475882Y67483593D01*
X9380330Y67500650D01*
X9202396Y67543753D01*
X9154372Y67557693D01*
X9033822Y67592686D01*
X11075504Y67592686D01*
X11090169Y67578021D01*
X11104834Y67592686D01*
X11090169Y67607351D01*
X11075504Y67592686D01*
X9033822Y67592686D01*
X9025933Y67594976D01*
X9007721Y67601092D01*
X8859222Y67650958D01*
X8831739Y67661564D01*
X8743748Y67695520D01*
X8710546Y67708333D01*
X8639183Y67740647D01*
X8588186Y67763739D01*
X8579549Y67768667D01*
X11486127Y67768667D01*
X11500792Y67754002D01*
X11515457Y67768667D01*
X11500792Y67783333D01*
X11486127Y67768667D01*
X8579549Y67768667D01*
X8567767Y67775389D01*
X8528141Y67797998D01*
X11544788Y67797998D01*
X11559453Y67783333D01*
X11574118Y67797998D01*
X11559453Y67812663D01*
X11544788Y67797998D01*
X8528141Y67797998D01*
X8509106Y67808859D01*
X8500423Y67813813D01*
X8485763Y67827328D01*
X8553102Y67827328D01*
X8567767Y67812663D01*
X8582432Y67827328D01*
X8567767Y67841993D01*
X8553102Y67827328D01*
X8485763Y67827328D01*
X8455540Y67855191D01*
X8455429Y67856658D01*
X8494441Y67856658D01*
X8509106Y67841993D01*
X8523771Y67856658D01*
X11632778Y67856658D01*
X11647444Y67841993D01*
X11662109Y67856658D01*
X11647444Y67871323D01*
X11632778Y67856658D01*
X8523771Y67856658D01*
X8509106Y67871323D01*
X8494441Y67856658D01*
X8455429Y67856658D01*
X8453892Y67876899D01*
X8456413Y67895776D01*
X8450446Y67893105D01*
X8439023Y67887992D01*
X8392298Y67887390D01*
X8375211Y67894872D01*
X8327503Y67915764D01*
X8324502Y67917677D01*
X8260093Y67965295D01*
X8245855Y67977441D01*
X8318460Y67977441D01*
X8339108Y67950675D01*
X8347790Y67944649D01*
X8375211Y67937175D01*
X8377120Y67941187D01*
X8356472Y67967953D01*
X8347790Y67973979D01*
X8320369Y67981453D01*
X8318460Y67977441D01*
X8245855Y67977441D01*
X8245134Y67978056D01*
X8230469Y67990566D01*
X11838313Y67990566D01*
X11853501Y67997849D01*
X11874753Y68014233D01*
X11920352Y68057044D01*
X11920154Y68076154D01*
X11915007Y68076635D01*
X11890524Y68056592D01*
X11863679Y68025307D01*
X11838313Y67990566D01*
X8230469Y67990566D01*
X8182642Y68031364D01*
X8181262Y68032640D01*
X8230469Y68032640D01*
X8245134Y68017975D01*
X8259799Y68032640D01*
X8245134Y68047305D01*
X8230469Y68032640D01*
X8181262Y68032640D01*
X8112514Y68096224D01*
X8098863Y68108849D01*
X8015470Y68190710D01*
X7939179Y68269910D01*
X7932350Y68277507D01*
X7966497Y68277507D01*
X7985689Y68249610D01*
X8032618Y68200795D01*
X8039822Y68193956D01*
X8088288Y68152109D01*
X8112514Y68138406D01*
X8113148Y68139735D01*
X8093955Y68167632D01*
X8047026Y68216448D01*
X8039822Y68223286D01*
X7991357Y68265134D01*
X7967130Y68278837D01*
X7966497Y68277507D01*
X7932350Y68277507D01*
X7890873Y68323648D01*
X12201209Y68323648D01*
X12212565Y68330249D01*
X12246093Y68369938D01*
X12293858Y68431454D01*
X12303800Y68454364D01*
X12278202Y68443361D01*
X12243297Y68404634D01*
X12217573Y68360972D01*
X12201209Y68323648D01*
X7890873Y68323648D01*
X7876702Y68339412D01*
X7834755Y68392178D01*
X7820052Y68421171D01*
X7839307Y68419353D01*
X7853707Y68411132D01*
X7873746Y68407635D01*
X7866346Y68424545D01*
X7831866Y68446300D01*
X7818927Y68442696D01*
X7787961Y68453551D01*
X7775850Y68466956D01*
X7745249Y68500825D01*
X7725263Y68531254D01*
X7761185Y68531254D01*
X7775850Y68516589D01*
X7790515Y68531254D01*
X9139707Y68531254D01*
X9154372Y68516589D01*
X9169037Y68531254D01*
X9154372Y68545919D01*
X9139707Y68531254D01*
X7790515Y68531254D01*
X7775850Y68545919D01*
X7761185Y68531254D01*
X7725263Y68531254D01*
X7717189Y68543546D01*
X7701856Y68566891D01*
X7690552Y68589915D01*
X8993056Y68589915D01*
X9007721Y68575249D01*
X9022386Y68589915D01*
X9007721Y68604580D01*
X8993056Y68589915D01*
X7690552Y68589915D01*
X7676151Y68619245D01*
X7702524Y68619245D01*
X7717189Y68604580D01*
X7731855Y68619245D01*
X7717189Y68633910D01*
X7702524Y68619245D01*
X7676151Y68619245D01*
X7668846Y68634124D01*
X7658877Y68677905D01*
X8817074Y68677905D01*
X8831739Y68663240D01*
X8846404Y68677905D01*
X8831739Y68692570D01*
X8817074Y68677905D01*
X7658877Y68677905D01*
X7657284Y68684899D01*
X7660283Y68695409D01*
X7665440Y68717200D01*
X7648043Y68709819D01*
X7620233Y68723967D01*
X7611401Y68736566D01*
X8729083Y68736566D01*
X8743748Y68721901D01*
X8758413Y68736566D01*
X8743748Y68751231D01*
X8729083Y68736566D01*
X7611401Y68736566D01*
X7578741Y68783155D01*
X7539354Y68857349D01*
X8582432Y68857349D01*
X8603080Y68830582D01*
X8611762Y68824557D01*
X8639183Y68817083D01*
X8641092Y68821095D01*
X8620445Y68847861D01*
X8611762Y68853887D01*
X8584342Y68861361D01*
X8582432Y68857349D01*
X7539354Y68857349D01*
X7528949Y68876948D01*
X7486829Y68971208D01*
X8494441Y68971208D01*
X8509106Y68956543D01*
X8523771Y68971208D01*
X8509106Y68985873D01*
X8494441Y68971208D01*
X7486829Y68971208D01*
X7476238Y68994909D01*
X7451709Y69059199D01*
X8435781Y69059199D01*
X8450446Y69044534D01*
X8465111Y69059199D01*
X8450446Y69073864D01*
X8435781Y69059199D01*
X7451709Y69059199D01*
X7425992Y69126603D01*
X7412296Y69166946D01*
X7394169Y69208357D01*
X7391007Y69215581D01*
X7355667Y69262838D01*
X7343549Y69274019D01*
X7312512Y69302658D01*
X7297907Y69316134D01*
X7280184Y69329495D01*
X7248244Y69353573D01*
X7209356Y69382889D01*
X7183681Y69400506D01*
X7356786Y69400506D01*
X7363263Y69347377D01*
X7374951Y69331045D01*
X7394169Y69323433D01*
X7388577Y69366415D01*
X7387775Y69369517D01*
X7370381Y69408832D01*
X7356786Y69400506D01*
X7183681Y69400506D01*
X7081646Y69470519D01*
X7033726Y69502465D01*
X7002518Y69525279D01*
X7325839Y69525279D01*
X7330525Y69508318D01*
X7343549Y69497208D01*
X7348246Y69526039D01*
X7342853Y69564080D01*
X7332841Y69564534D01*
X7325839Y69525279D01*
X7002518Y69525279D01*
X6778671Y69688919D01*
X6770640Y69695743D01*
X7297932Y69695743D01*
X7301806Y69682467D01*
X7312512Y69678782D01*
X7316600Y69719129D01*
X7311991Y69760767D01*
X7301806Y69755792D01*
X7297932Y69695743D01*
X6770640Y69695743D01*
X6517646Y69910702D01*
X6496839Y69930711D01*
X7267121Y69930711D01*
X7271683Y69902443D01*
X7280184Y69893315D01*
X7284812Y69933871D01*
X7285096Y69953771D01*
X7282038Y70007132D01*
X7274425Y70013421D01*
X7271683Y70005099D01*
X7267121Y69930711D01*
X6496839Y69930711D01*
X6264060Y70154567D01*
X6137793Y70291666D01*
X7236643Y70291666D01*
X7241524Y70225480D01*
X7248244Y70205126D01*
X7252862Y70236826D01*
X7254182Y70291069D01*
X7252318Y70360627D01*
X7247090Y70386052D01*
X7241924Y70372131D01*
X7236643Y70291666D01*
X6137793Y70291666D01*
X6031322Y70407270D01*
X5832841Y70655565D01*
X5758303Y70762288D01*
X5482603Y71230318D01*
X5252552Y71732757D01*
X5070212Y72264753D01*
X4991951Y72564164D01*
X4941305Y72789248D01*
X4901010Y72991657D01*
X4869951Y73182889D01*
X4847012Y73374440D01*
X4831079Y73577808D01*
X4821036Y73804489D01*
X4815768Y74065983D01*
X4814160Y74373784D01*
X4814156Y74397305D01*
X4815186Y74688391D01*
X4818957Y74930962D01*
X4826561Y75135140D01*
X4839092Y75311048D01*
X4857643Y75468807D01*
X4883307Y75618539D01*
X4917176Y75770368D01*
X4960344Y75934415D01*
X4992262Y76046714D01*
X5144720Y76477106D01*
X5341598Y76869375D01*
X5582570Y77223121D01*
X5867306Y77537944D01*
X6195478Y77813446D01*
X6566758Y78049225D01*
X6691571Y78114697D01*
X6969949Y78240936D01*
X7293352Y78365440D01*
X7648187Y78484243D01*
X8020861Y78593381D01*
X8397781Y78688888D01*
X8765354Y78766798D01*
X9109988Y78823146D01*
X9128530Y78825609D01*
X9278670Y78845286D01*
X9299031Y79069976D01*
X9319391Y79240568D01*
X9350640Y79436593D01*
X9389540Y79642446D01*
X9432852Y79842523D01*
X9477336Y80021220D01*
X9519753Y80162931D01*
X9534122Y80202475D01*
X9574214Y80308055D01*
X9607883Y80401755D01*
X9624981Y80454002D01*
X9666406Y80565246D01*
X9729762Y80700166D01*
X9804847Y80839975D01*
X9881461Y80965884D01*
X9949401Y81059103D01*
X9959978Y81071021D01*
X10011123Y81119971D01*
X10071198Y81162435D01*
X10148626Y81201740D01*
X10251829Y81241213D01*
X10389230Y81284180D01*
X10569251Y81333969D01*
X10735216Y81377253D01*
X10970906Y81430754D01*
X11256740Y81483939D01*
X11584202Y81535937D01*
X11944777Y81585875D01*
X12329950Y81632882D01*
X12731207Y81676086D01*
X13140032Y81714615D01*
X13547912Y81747598D01*
X13946330Y81774162D01*
X14326771Y81793437D01*
X14680722Y81804549D01*
X14932432Y81806990D01*
X15554501Y81797076D01*
X16123851Y81769407D01*
X16643796Y81723584D01*
X17117652Y81659207D01*
X17548734Y81575876D01*
X17940357Y81473191D01*
X18087876Y81426213D01*
X18334741Y81343284D01*
X18342693Y80748410D01*
X18350644Y80153537D01*
X18241560Y80249313D01*
X18074568Y80368711D01*
X17859915Y80474799D01*
X17595858Y80568041D01*
X17280654Y80648902D01*
X16912559Y80717848D01*
X16489830Y80775344D01*
X16134972Y80811313D01*
X15971615Y80822124D01*
X15757075Y80830599D01*
X15498781Y80836824D01*
X15204159Y80840882D01*
X14880639Y80842856D01*
X14535648Y80842833D01*
X14176614Y80840895D01*
X13810965Y80837127D01*
X13446129Y80831613D01*
X13089534Y80824438D01*
X12748607Y80815685D01*
X12430777Y80805439D01*
X12143472Y80793785D01*
X11894120Y80780805D01*
X11690148Y80766585D01*
X11618113Y80760097D01*
X11311227Y80718947D01*
X11056990Y80660254D01*
X10851573Y80582321D01*
X10691144Y80483450D01*
X10571873Y80361943D01*
X10515266Y80271314D01*
X10461641Y80137514D01*
X10416048Y79968372D01*
X10380821Y79780612D01*
X10358288Y79590958D01*
X10350783Y79416134D01*
X10360637Y79272864D01*
X10369881Y79228432D01*
X10389877Y79161093D01*
X10413876Y79109338D01*
X10449001Y79071614D01*
X10502377Y79046372D01*
X10581129Y79032058D01*
X10692381Y79027123D01*
X10843257Y79030015D01*
X11040882Y79039183D01*
X11199217Y79047853D01*
X11333386Y79053339D01*
X11520879Y79057984D01*
X11756366Y79061806D01*
X12034518Y79064821D01*
X12350005Y79067047D01*
X12697497Y79068501D01*
X13071664Y79069199D01*
X13467176Y79069160D01*
X13878703Y79068401D01*
X14300916Y79066938D01*
X14728485Y79064789D01*
X15156079Y79061971D01*
X15578369Y79058502D01*
X15990025Y79054398D01*
X16385718Y79049676D01*
X16760117Y79044355D01*
X17107892Y79038451D01*
X17423714Y79031981D01*
X17623483Y79027110D01*
X18349407Y79007988D01*
X18349407Y77988888D01*
X18122097Y78004467D01*
X18013613Y78010626D01*
X17850185Y78018084D01*
X17635511Y78026717D01*
X17373289Y78036399D01*
X17067218Y78047008D01*
X16720997Y78058416D01*
X16338324Y78070502D01*
X15922899Y78083138D01*
X15478418Y78096202D01*
X15008582Y78109568D01*
X14976427Y78110467D01*
X14684217Y78117228D01*
X14363509Y78122162D01*
X14021842Y78125332D01*
X13666752Y78126800D01*
X13305779Y78126628D01*
X12946460Y78124880D01*
X12596333Y78121619D01*
X12262935Y78116906D01*
X11953805Y78110806D01*
X11676481Y78103379D01*
X11438499Y78094690D01*
X11247399Y78084800D01*
X11163494Y78078747D01*
X11025300Y78065146D01*
X10845738Y78044287D01*
X10634351Y78017558D01*
X10400677Y77986346D01*
X10154256Y77952037D01*
X9904630Y77916018D01*
X9661337Y77879677D01*
X9433919Y77844400D01*
X9231914Y77811574D01*
X9064863Y77782587D01*
X8942306Y77758824D01*
X8905065Y77750413D01*
X8751900Y77715003D01*
X8583543Y77678950D01*
X8434761Y77649680D01*
X8425945Y77648072D01*
X8251693Y77610515D01*
X8042719Y77556243D01*
X7818465Y77491065D01*
X7598372Y77420791D01*
X7401883Y77351231D01*
X7306566Y77313573D01*
X7091378Y77202848D01*
X6874863Y77054260D01*
X6678535Y76883978D01*
X6555033Y76748722D01*
X6444921Y76591262D01*
X6328904Y76388976D01*
X6213159Y76154438D01*
X6103863Y75900224D01*
X6007194Y75638909D01*
X6001317Y75621448D01*
X5864682Y75123461D01*
X5786304Y74622789D01*
X5765962Y74121334D01*
X5803433Y73621001D01*
X5898494Y73123691D01*
X6050923Y72631308D01*
X6260496Y72145755D01*
X6448629Y71798085D01*
X6535976Y71657178D01*
X6642631Y71496555D01*
X6759599Y71328699D01*
X6877882Y71166093D01*
X6988483Y71021219D01*
X7082406Y70906559D01*
X7125437Y70859085D01*
X7180748Y70777496D01*
X7211949Y70686493D01*
X7212413Y70683104D01*
X7216083Y70663845D01*
X7215339Y70696061D01*
X7210459Y70772752D01*
X7207054Y70819014D01*
X7199932Y70948635D01*
X7194567Y71120224D01*
X7190890Y71325072D01*
X7188828Y71554470D01*
X7188515Y71703204D01*
X8158612Y71703204D01*
X8159900Y71393070D01*
X8165120Y71092707D01*
X8174275Y70813466D01*
X8187370Y70566699D01*
X8204408Y70363754D01*
X8210197Y70313842D01*
X8255635Y69982820D01*
X8303061Y69704269D01*
X8354693Y69471999D01*
X8412751Y69279820D01*
X8479454Y69121542D01*
X8557020Y68990975D01*
X8647668Y68881930D01*
X8753617Y68788217D01*
X8758413Y68784541D01*
X8829322Y68727024D01*
X8875217Y68683104D01*
X8885511Y68666244D01*
X8906163Y68650612D01*
X8944172Y68644124D01*
X9005360Y68631834D01*
X9098286Y68604603D01*
X9178220Y68577155D01*
X9351430Y68526876D01*
X9570721Y68484245D01*
X9823825Y68450873D01*
X10098475Y68428374D01*
X10382403Y68418361D01*
X10386375Y68418317D01*
X10549595Y68416969D01*
X10667576Y68418346D01*
X10753738Y68424481D01*
X10821500Y68437409D01*
X10884280Y68459165D01*
X10913599Y68472594D01*
X12303893Y68472594D01*
X12364294Y68541836D01*
X12413220Y68602804D01*
X12423016Y68630442D01*
X12413403Y68633910D01*
X12392114Y68611693D01*
X12355766Y68557763D01*
X12353002Y68553252D01*
X12303893Y68472594D01*
X10913599Y68472594D01*
X10955496Y68491784D01*
X10993539Y68510386D01*
X11200865Y68644449D01*
X11240893Y68684459D01*
X12439350Y68684459D01*
X12440665Y68665263D01*
X12466938Y68695175D01*
X12495910Y68743898D01*
X12529184Y68806543D01*
X12539393Y68833165D01*
X12531732Y68839148D01*
X12528104Y68839222D01*
X12506725Y68816031D01*
X12472965Y68759381D01*
X12468691Y68751231D01*
X12439350Y68684459D01*
X11240893Y68684459D01*
X11391105Y68834604D01*
X11425289Y68883217D01*
X12542016Y68883217D01*
X12556681Y68868552D01*
X12571347Y68883217D01*
X12556681Y68897882D01*
X12542016Y68883217D01*
X11425289Y68883217D01*
X11466538Y68941878D01*
X12572245Y68941878D01*
X12584348Y68936631D01*
X12600677Y68956543D01*
X12625496Y69010012D01*
X12629109Y69029868D01*
X12617006Y69035115D01*
X12600677Y69015203D01*
X12575858Y68961734D01*
X12572245Y68941878D01*
X11466538Y68941878D01*
X11564239Y69080821D01*
X11568218Y69088529D01*
X12630007Y69088529D01*
X12644672Y69073864D01*
X12659337Y69088529D01*
X12644672Y69103194D01*
X12630007Y69088529D01*
X11568218Y69088529D01*
X11598496Y69147189D01*
X12659337Y69147189D01*
X12674002Y69132524D01*
X12688668Y69147189D01*
X12674002Y69161855D01*
X12659337Y69147189D01*
X11598496Y69147189D01*
X11720245Y69383067D01*
X11859102Y69741313D01*
X11878900Y69801268D01*
X11952092Y70051926D01*
X12022623Y70337734D01*
X12085391Y70635235D01*
X12135293Y70920971D01*
X12157661Y71082986D01*
X12169553Y71227156D01*
X12176925Y71415018D01*
X12180041Y71634378D01*
X12179163Y71873045D01*
X12174555Y72118825D01*
X12166480Y72359526D01*
X12155202Y72582955D01*
X12140983Y72776919D01*
X12124087Y72929227D01*
X12116813Y72974788D01*
X12029182Y73364701D01*
X11915583Y73703592D01*
X11774102Y73993937D01*
X11602828Y74238216D01*
X11399848Y74438905D01*
X11163250Y74598483D01*
X10891120Y74719429D01*
X10732354Y74768572D01*
X10618364Y74795610D01*
X10503096Y74813785D01*
X10370755Y74824585D01*
X10205545Y74829502D01*
X10078275Y74830248D01*
X9743528Y74818971D01*
X9457284Y74783878D01*
X9213654Y74723127D01*
X9006751Y74634875D01*
X8830688Y74517279D01*
X8708831Y74401654D01*
X8590732Y74258040D01*
X8492651Y74104069D01*
X8411550Y73931204D01*
X8344391Y73730911D01*
X8288136Y73494653D01*
X8239747Y73213894D01*
X8211034Y73003190D01*
X8192713Y72814453D01*
X8178307Y72578735D01*
X8167819Y72307388D01*
X8161253Y72011761D01*
X8158612Y71703204D01*
X7188515Y71703204D01*
X7188312Y71799711D01*
X7189269Y72052086D01*
X7191630Y72302886D01*
X7195322Y72543403D01*
X7200276Y72764928D01*
X7206419Y72958753D01*
X7213681Y73116169D01*
X7221991Y73228469D01*
X7227024Y73268090D01*
X7306808Y73668478D01*
X7405032Y74019829D01*
X7525215Y74329835D01*
X7670877Y74606190D01*
X7845539Y74856589D01*
X8052721Y75088724D01*
X8066138Y75102115D01*
X8294386Y75305444D01*
X8532795Y75469613D01*
X8787945Y75596590D01*
X9066416Y75688342D01*
X9374790Y75746835D01*
X9719647Y75774037D01*
X10107567Y75771915D01*
X10277896Y75763194D01*
X10680183Y75730226D01*
X11030538Y75684242D01*
X11334503Y75623978D01*
X11597618Y75548167D01*
X11825422Y75455545D01*
X11973726Y75375917D01*
X12197047Y75208938D01*
X12400833Y74989700D01*
X12582942Y74721961D01*
X12741234Y74409484D01*
X12873568Y74056031D01*
X12977803Y73665361D01*
X12995615Y73580478D01*
X13044202Y73312425D01*
X13080611Y73048248D01*
X13105646Y72775897D01*
X13120113Y72483328D01*
X13124818Y72158491D01*
X13120566Y71789341D01*
X13119254Y71731433D01*
X13101643Y71262647D01*
X13071693Y70842790D01*
X13028193Y70463197D01*
X12969936Y70115202D01*
X12895710Y69790140D01*
X12805392Y69482663D01*
X12769093Y69365583D01*
X12743331Y69270602D01*
X12731376Y69210520D01*
X12732245Y69196491D01*
X12773263Y69183196D01*
X12865538Y69169445D01*
X13001673Y69155665D01*
X13174272Y69142284D01*
X13375938Y69129731D01*
X13599273Y69118434D01*
X13836882Y69108820D01*
X14081367Y69101318D01*
X14325331Y69096357D01*
X14492478Y69094620D01*
X14773460Y69094084D01*
X15022347Y69096525D01*
X15250475Y69102774D01*
X15469180Y69113663D01*
X15689796Y69130025D01*
X15923659Y69152691D01*
X16182105Y69182493D01*
X16476468Y69220263D01*
X16794903Y69263618D01*
X16997383Y69290414D01*
X17213285Y69316840D01*
X17422096Y69340522D01*
X17603302Y69359084D01*
X17674811Y69365508D01*
X17832559Y69379062D01*
X17984883Y69392724D01*
X18113605Y69404830D01*
X18195423Y69413148D01*
X18349407Y69430048D01*
X18349407Y68972398D01*
X18348064Y68785267D01*
X18343719Y68650680D01*
X18335902Y68562578D01*
X18324138Y68514899D01*
X18312744Y68502120D01*
X18259032Y68489762D01*
X18157084Y68471721D01*
X18016891Y68449408D01*
X17848446Y68424233D01*
X17661742Y68397607D01*
X17466772Y68370942D01*
X17273528Y68345649D01*
X17092003Y68323139D01*
X16932191Y68304822D01*
X16868229Y68298144D01*
X16605055Y68275110D01*
X16297503Y68253727D01*
X15959843Y68234637D01*
X15606351Y68218481D01*
X15251297Y68205900D01*
X14908954Y68197534D01*
X14593596Y68194024D01*
X14547608Y68193956D01*
X14346949Y68195412D01*
X14113754Y68199517D01*
X13858408Y68205874D01*
X13591294Y68214088D01*
X13322798Y68223765D01*
X13063304Y68234507D01*
X12823197Y68245920D01*
X12674002Y68254210D01*
X12644672Y68255840D01*
X12612860Y68257608D01*
X12584348Y68259546D01*
X12556681Y68261427D01*
X12442679Y68269176D01*
X12440665Y68269354D01*
X12344344Y68277877D01*
X12303893Y68282099D01*
X12201209Y68292816D01*
X12132007Y68300038D01*
X12036376Y68195669D01*
X11940746Y68091300D01*
X12050735Y68192377D01*
X12112144Y68243239D01*
X12152067Y68265612D01*
X12160723Y68260969D01*
X12140221Y68228133D01*
X12086735Y68168938D01*
X12012299Y68094639D01*
X11928943Y68016489D01*
X11848701Y67945741D01*
X11838313Y67937428D01*
X11783604Y67893650D01*
X11745685Y67871469D01*
X11744127Y67871323D01*
X11731646Y67890698D01*
X11738406Y67907986D01*
X11744253Y67928162D01*
X11732804Y67920207D01*
X11707104Y67871724D01*
X11706104Y67861547D01*
X11680368Y67829980D01*
X11647444Y67808180D01*
X11610606Y67783789D01*
X11559453Y67756086D01*
G37*
%TD*%
%LPC*%
D13*
%TO.C,C7*%
X50520600Y12434200D03*
X50520600Y14134200D03*
%TD*%
D14*
%TO.C,H4*%
X3958400Y58191200D03*
%TD*%
D13*
%TO.C,R14*%
X65938400Y33341200D03*
X65938400Y35041200D03*
%TD*%
D15*
%TO.C,SW4*%
X20638000Y32441200D03*
X28638000Y32441200D03*
X20638000Y27941200D03*
X28638000Y27941200D03*
%TD*%
D16*
%TO.C,Y1*%
X49208400Y50191200D03*
X57708400Y50191200D03*
%TD*%
D17*
%TO.C,Y2*%
X39458400Y97691200D03*
X39458400Y100191200D03*
%TD*%
D18*
%TO.C,TP14*%
X88925400Y26187400D03*
%TD*%
D19*
%TO.C,U1*%
X45658400Y13911200D03*
D20*
X39358400Y16191200D03*
D19*
X45658400Y18471200D03*
%TD*%
D13*
%TO.C,R13*%
X38709600Y34733600D03*
X38709600Y33033600D03*
%TD*%
D21*
%TO.C,R1*%
X72608400Y48191200D03*
X74308400Y48191200D03*
%TD*%
%TO.C,C1*%
X76608400Y48191200D03*
X78308400Y48191200D03*
%TD*%
D13*
%TO.C,C6*%
X43458400Y51041200D03*
X43458400Y49341200D03*
%TD*%
D18*
%TO.C,TP9*%
X102768400Y52781200D03*
%TD*%
%TO.C,TP11*%
X20218400Y93421200D03*
%TD*%
D13*
%TO.C,R7*%
X89458400Y41341200D03*
X89458400Y43041200D03*
%TD*%
D22*
%TO.C,Q1*%
X100508400Y58191200D03*
X102408400Y58191200D03*
X101458400Y60191200D03*
%TD*%
D13*
%TO.C,C5*%
X55651400Y34721800D03*
X55651400Y33021800D03*
%TD*%
D15*
%TO.C,SW1*%
X82458400Y50441200D03*
X90458400Y50441200D03*
X82458400Y45941200D03*
X90458400Y45941200D03*
%TD*%
D13*
%TO.C,R3*%
X77458400Y33341200D03*
X77458400Y35041200D03*
%TD*%
D18*
%TO.C,TP15*%
X37998400Y93421200D03*
%TD*%
D23*
%TO.C,R9*%
X59993400Y103454200D03*
X56593400Y103454200D03*
%TD*%
D18*
%TO.C,TP5*%
X57048400Y95961200D03*
%TD*%
%TO.C,TP1*%
X111658400Y65481200D03*
%TD*%
%TO.C,TP12*%
X54660800Y29692600D03*
%TD*%
D24*
%TO.C,D1*%
X44831000Y32844500D03*
X44831000Y34719500D03*
%TD*%
D21*
%TO.C,R5*%
X105608400Y62191200D03*
X107308400Y62191200D03*
%TD*%
D18*
%TO.C,TP8*%
X82448400Y32461200D03*
%TD*%
%TO.C,TP7*%
X46888400Y26111200D03*
%TD*%
D13*
%TO.C,R6*%
X48488600Y32957400D03*
X48488600Y34657400D03*
%TD*%
%TO.C,R4*%
X73458400Y35041200D03*
X73458400Y33341200D03*
%TD*%
D14*
%TO.C,H3*%
X112958400Y58191200D03*
%TD*%
D13*
%TO.C,C3*%
X52146200Y34530400D03*
X52146200Y32830400D03*
%TD*%
D25*
%TO.C,J2*%
X66108400Y51191200D03*
D26*
X68648400Y51191200D03*
X71188400Y51191200D03*
X73728400Y51191200D03*
X76268400Y51191200D03*
X78808400Y51191200D03*
%TD*%
D14*
%TO.C,H2*%
X58458400Y3691200D03*
%TD*%
D13*
%TO.C,C2*%
X61458400Y50041200D03*
X61458400Y48341200D03*
%TD*%
D27*
%TO.C,U3*%
X42658400Y99991200D03*
D28*
X42658400Y97451200D03*
X42658400Y94911200D03*
X42658400Y92371200D03*
X50278400Y92371200D03*
X50278400Y94911200D03*
X50278400Y97451200D03*
X50278400Y99991200D03*
%TD*%
D14*
%TO.C,H1*%
X58458400Y112691200D03*
%TD*%
D15*
%TO.C,SW3*%
X90458400Y35441200D03*
X98458400Y35441200D03*
X90458400Y30941200D03*
X98458400Y30941200D03*
%TD*%
D13*
%TO.C,R10*%
X70458400Y35041200D03*
X70458400Y33341200D03*
%TD*%
D18*
%TO.C,TP16*%
X41808400Y107391200D03*
%TD*%
D21*
%TO.C,R2*%
X68608400Y48191200D03*
X70308400Y48191200D03*
%TD*%
D18*
%TO.C,TP2*%
X36728400Y42621200D03*
%TD*%
%TO.C,TP10*%
X65938400Y101041200D03*
%TD*%
D25*
%TO.C,J3*%
X82183400Y41716200D03*
D26*
X84723400Y41716200D03*
X82183400Y39176200D03*
X84723400Y39176200D03*
X82183400Y36636200D03*
X84723400Y36636200D03*
%TD*%
D18*
%TO.C,TP6*%
X95148400Y94691200D03*
%TD*%
D13*
%TO.C,R11*%
X35509200Y36843600D03*
X35509200Y38543600D03*
%TD*%
D21*
%TO.C,C4*%
X49608400Y22191200D03*
X51308400Y22191200D03*
%TD*%
D18*
%TO.C,TP3*%
X48158400Y9601200D03*
%TD*%
D15*
%TO.C,SW2*%
X21813700Y39939400D03*
X13813700Y39939400D03*
X21813700Y44439400D03*
X13813700Y44439400D03*
%TD*%
%TO.C,SW5*%
X103458400Y40941200D03*
X95458400Y40941200D03*
X103458400Y45441200D03*
X95458400Y45441200D03*
%TD*%
D29*
%TO.C,DS1*%
X21098700Y87366500D03*
X96097800Y87366500D03*
X96097280Y56365800D03*
X21098700Y56365800D03*
D30*
X26597800Y87366500D03*
D31*
X29137800Y87366500D03*
X31677800Y87366500D03*
X34217800Y87366500D03*
X36757800Y87366500D03*
X39297800Y87366500D03*
X41837800Y87366500D03*
X44377800Y87366500D03*
X46917800Y87366500D03*
X49457800Y87366500D03*
X51997800Y87366500D03*
X54537800Y87366500D03*
X57077800Y87366500D03*
X59617800Y87366500D03*
X62157800Y87366500D03*
X64697800Y87366500D03*
%TD*%
D27*
%TO.C,U2*%
X75958400Y45991200D03*
D28*
X73418400Y45991200D03*
X70878400Y45991200D03*
X68338400Y45991200D03*
X65798400Y45991200D03*
X63258400Y45991200D03*
X60718400Y45991200D03*
X58178400Y45991200D03*
X55638400Y45991200D03*
X53098400Y45991200D03*
X50558400Y45991200D03*
X48018400Y45991200D03*
X45478400Y45991200D03*
X42938400Y45991200D03*
X42938400Y38371200D03*
X45478400Y38371200D03*
X48018400Y38371200D03*
X50558400Y38371200D03*
X53098400Y38371200D03*
X55638400Y38371200D03*
X58178400Y38371200D03*
X60718400Y38371200D03*
X63258400Y38371200D03*
X65798400Y38371200D03*
X68338400Y38371200D03*
X70878400Y38371200D03*
X73418400Y38371200D03*
X75958400Y38371200D03*
%TD*%
D21*
%TO.C,R8*%
X93608400Y51191200D03*
X95308400Y51191200D03*
%TD*%
D13*
%TO.C,R12*%
X61112400Y33643200D03*
X61112400Y35343200D03*
%TD*%
D32*
%TO.C,J1*%
X54958400Y14884400D03*
D33*
X57258400Y20184400D03*
X60958400Y17684400D03*
%TD*%
D34*
%TO.C,BZ1*%
X106458400Y70191200D03*
D18*
X101458400Y70191200D03*
%TD*%
D35*
%TO.C,BT1*%
X66516714Y93294200D03*
D29*
X87006714Y93294200D03*
%TD*%
D36*
%TO.C,RV1*%
X32458400Y97191200D03*
X29918400Y94651200D03*
X27378400Y97191200D03*
%TD*%
M02*
