%TF.GenerationSoftware,KiCad,Pcbnew,(6.0.5)*%
%TF.CreationDate,2022-07-22T17:55:24-05:00*%
%TF.ProjectId,First Round Clock,46697273-7420-4526-9f75-6e6420436c6f,rev?*%
%TF.SameCoordinates,PX574d060PY96dce60*%
%TF.FileFunction,Soldermask,Bot*%
%TF.FilePolarity,Negative*%
%FSLAX46Y46*%
G04 Gerber Fmt 4.6, Leading zero omitted, Abs format (unit mm)*
G04 Created by KiCad (PCBNEW (6.0.5)) date 2022-07-22 17:55:24*
%MOMM*%
%LPD*%
G01*
G04 APERTURE LIST*
G04 Aperture macros list*
%AMRoundRect*
0 Rectangle with rounded corners*
0 $1 Rounding radius*
0 $2 $3 $4 $5 $6 $7 $8 $9 X,Y pos of 4 corners*
0 Add a 4 corners polygon primitive as box body*
4,1,4,$2,$3,$4,$5,$6,$7,$8,$9,$2,$3,0*
0 Add four circle primitives for the rounded corners*
1,1,$1+$1,$2,$3*
1,1,$1+$1,$4,$5*
1,1,$1+$1,$6,$7*
1,1,$1+$1,$8,$9*
0 Add four rect primitives between the rounded corners*
20,1,$1+$1,$2,$3,$4,$5,0*
20,1,$1+$1,$4,$5,$6,$7,0*
20,1,$1+$1,$6,$7,$8,$9,0*
20,1,$1+$1,$8,$9,$2,$3,0*%
G04 Aperture macros list end*
%ADD10C,3.200000*%
%ADD11C,2.000000*%
%ADD12C,1.600000*%
%ADD13R,1.700000X1.700000*%
%ADD14O,1.700000X1.700000*%
%ADD15R,1.600000X1.600000*%
%ADD16O,1.600000X1.600000*%
%ADD17C,3.000000*%
%ADD18R,1.800000X2.600000*%
%ADD19O,1.800000X2.600000*%
%ADD20RoundRect,0.500000X-0.500000X1.750000X-0.500000X-1.750000X0.500000X-1.750000X0.500000X1.750000X0*%
%ADD21RoundRect,0.500000X-1.500000X-0.500000X1.500000X-0.500000X1.500000X0.500000X-1.500000X0.500000X0*%
%ADD22R,2.000000X2.000000*%
%ADD23R,3.000000X3.000000*%
%ADD24C,1.440000*%
G04 APERTURE END LIST*
D10*
%TO.C,H4*%
X3958400Y58191200D03*
%TD*%
D11*
%TO.C,TP14*%
X88925400Y26187400D03*
%TD*%
%TO.C,TP9*%
X102768400Y52781200D03*
%TD*%
%TO.C,TP11*%
X20218400Y93421200D03*
%TD*%
%TO.C,TP15*%
X37998400Y93421200D03*
%TD*%
D12*
%TO.C,R9*%
X59993400Y103454200D03*
X56593400Y103454200D03*
%TD*%
D11*
%TO.C,TP5*%
X57048400Y95961200D03*
%TD*%
%TO.C,TP1*%
X111658400Y65481200D03*
%TD*%
%TO.C,TP12*%
X54660800Y29692600D03*
%TD*%
%TO.C,TP8*%
X82448400Y32461200D03*
%TD*%
%TO.C,TP7*%
X46888400Y26111200D03*
%TD*%
D10*
%TO.C,H3*%
X112958400Y58191200D03*
%TD*%
D13*
%TO.C,J2*%
X66108400Y51191200D03*
D14*
X68648400Y51191200D03*
X71188400Y51191200D03*
X73728400Y51191200D03*
X76268400Y51191200D03*
X78808400Y51191200D03*
%TD*%
D10*
%TO.C,H2*%
X58458400Y3691200D03*
%TD*%
D15*
%TO.C,U3*%
X42658400Y99991200D03*
D16*
X42658400Y97451200D03*
X42658400Y94911200D03*
X42658400Y92371200D03*
X50278400Y92371200D03*
X50278400Y94911200D03*
X50278400Y97451200D03*
X50278400Y99991200D03*
%TD*%
D10*
%TO.C,H1*%
X58458400Y112691200D03*
%TD*%
D11*
%TO.C,TP16*%
X41808400Y107391200D03*
%TD*%
%TO.C,TP2*%
X36728400Y42621200D03*
%TD*%
%TO.C,TP10*%
X65938400Y101041200D03*
%TD*%
D13*
%TO.C,J3*%
X82183400Y41716200D03*
D14*
X84723400Y41716200D03*
X82183400Y39176200D03*
X84723400Y39176200D03*
X82183400Y36636200D03*
X84723400Y36636200D03*
%TD*%
D11*
%TO.C,TP6*%
X95148400Y94691200D03*
%TD*%
%TO.C,TP3*%
X48158400Y9601200D03*
%TD*%
D17*
%TO.C,DS1*%
X21098700Y87366500D03*
X96097800Y87366500D03*
X96097280Y56365800D03*
X21098700Y56365800D03*
D18*
X26597800Y87366500D03*
D19*
X29137800Y87366500D03*
X31677800Y87366500D03*
X34217800Y87366500D03*
X36757800Y87366500D03*
X39297800Y87366500D03*
X41837800Y87366500D03*
X44377800Y87366500D03*
X46917800Y87366500D03*
X49457800Y87366500D03*
X51997800Y87366500D03*
X54537800Y87366500D03*
X57077800Y87366500D03*
X59617800Y87366500D03*
X62157800Y87366500D03*
X64697800Y87366500D03*
%TD*%
D15*
%TO.C,U2*%
X75958400Y45991200D03*
D16*
X73418400Y45991200D03*
X70878400Y45991200D03*
X68338400Y45991200D03*
X65798400Y45991200D03*
X63258400Y45991200D03*
X60718400Y45991200D03*
X58178400Y45991200D03*
X55638400Y45991200D03*
X53098400Y45991200D03*
X50558400Y45991200D03*
X48018400Y45991200D03*
X45478400Y45991200D03*
X42938400Y45991200D03*
X42938400Y38371200D03*
X45478400Y38371200D03*
X48018400Y38371200D03*
X50558400Y38371200D03*
X53098400Y38371200D03*
X55638400Y38371200D03*
X58178400Y38371200D03*
X60718400Y38371200D03*
X63258400Y38371200D03*
X65798400Y38371200D03*
X68338400Y38371200D03*
X70878400Y38371200D03*
X73418400Y38371200D03*
X75958400Y38371200D03*
%TD*%
D20*
%TO.C,J1*%
X54958400Y14884400D03*
D21*
X57258400Y20184400D03*
X60958400Y17684400D03*
%TD*%
D22*
%TO.C,BZ1*%
X106458400Y70191200D03*
D11*
X101458400Y70191200D03*
%TD*%
D23*
%TO.C,BT1*%
X66516714Y93294200D03*
D17*
X87006714Y93294200D03*
%TD*%
D24*
%TO.C,RV1*%
X32458400Y97191200D03*
X29918400Y94651200D03*
X27378400Y97191200D03*
%TD*%
M02*
