M48
; DRILL file {KiCad (6.0.5)} date Fri Jul 22 17:55:51 2022
; FORMAT={-:-/ absolute / inch / decimal}
; #@! TF.CreationDate,2022-07-22T17:55:51-05:00
; #@! TF.GenerationSoftware,Kicad,Pcbnew,(6.0.5)
; #@! TF.FileFunction,MixedPlating,1,2
FMAT,2
INCH
; #@! TA.AperFunction,Plated,PTH,ComponentDrill
T1C0.0315
; #@! TA.AperFunction,Plated,PTH,ComponentDrill
T2C0.0394
; #@! TA.AperFunction,Plated,PTH,ComponentDrill
T3C0.0472
; #@! TA.AperFunction,Plated,PTH,ComponentDrill
T4C0.0591
; #@! TA.AperFunction,Plated,PTH,ComponentDrill
T5C0.0984
; #@! TA.AperFunction,NonPlated,NPTH,ComponentDrill
T6C0.1260
%
G90
G05
T1
X1.0779Y3.8264
X1.1779Y3.7264
X1.2779Y3.8264
X1.6795Y3.9367
X1.6795Y3.8367
X1.6795Y3.7367
X1.6795Y3.6367
X1.6905Y1.8107
X1.6905Y1.5107
X1.7905Y1.8107
X1.7905Y1.5107
X1.8905Y1.8107
X1.8905Y1.5107
X1.9795Y3.9367
X1.9795Y3.8367
X1.9795Y3.7367
X1.9795Y3.6367
X1.9905Y1.8107
X1.9905Y1.5107
X2.0905Y1.8107
X2.0905Y1.5107
X2.1905Y1.8107
X2.1905Y1.5107
X2.2281Y4.073
X2.2905Y1.8107
X2.2905Y1.5107
X2.3619Y4.073
X2.3905Y1.8107
X2.3905Y1.5107
X2.4905Y1.8107
X2.4905Y1.5107
X2.5905Y1.8107
X2.5905Y1.5107
X2.6905Y1.8107
X2.6905Y1.5107
X2.7905Y1.8107
X2.7905Y1.5107
X2.8905Y1.8107
X2.8905Y1.5107
X2.9905Y1.8107
X2.9905Y1.5107
T2
X0.796Y3.678
X1.446Y1.678
X1.496Y3.678
X1.646Y4.228
X1.846Y1.028
X1.896Y0.378
X2.152Y1.169
X2.246Y3.778
X2.596Y3.978
X2.6027Y2.0154
X2.7027Y2.0154
X2.8027Y2.0154
X2.9027Y2.0154
X3.0027Y2.0154
X3.1027Y2.0154
X3.2356Y1.6424
X3.2356Y1.5424
X3.2356Y1.4424
X3.246Y1.278
X3.3356Y1.6424
X3.3356Y1.5424
X3.3356Y1.4424
X3.501Y1.031
X3.746Y3.728
X3.9944Y2.7634
X4.046Y2.078
X4.1913Y2.7634
X4.396Y2.578
T3
X1.0472Y3.4396
X1.1472Y3.4396
X1.2472Y3.4396
X1.3472Y3.4396
X1.4472Y3.4396
X1.5472Y3.4396
X1.6472Y3.4396
X1.7472Y3.4396
X1.8472Y3.4396
X1.9472Y3.4396
X2.0472Y3.4396
X2.1472Y3.4396
X2.2472Y3.4396
X2.3472Y3.4396
X2.4472Y3.4396
X2.5472Y3.4396
T4
X2.6188Y3.673
X3.4255Y3.673
T5
X0.8307Y3.4396
X0.8307Y2.2191
X3.7834Y2.2191
X3.7834Y3.4396
T6
X0.1558Y2.291
X2.3015Y4.4367
X2.3015Y0.1453
X4.4472Y2.291
T2
G00X2.1637Y0.6352
M15
G01X2.1637Y0.5368
M16
G05
G00X2.2149Y0.7947
M15
G01X2.2936Y0.7947
M16
G05
G00X2.3606Y0.6962
M15
G01X2.4393Y0.6962
M16
G05
T0
M30
