%TF.GenerationSoftware,KiCad,Pcbnew,(6.0.5)*%
%TF.CreationDate,2022-07-21T09:59:54-05:00*%
%TF.ProjectId,First Round Clock,46697273-7420-4526-9f75-6e6420436c6f,rev?*%
%TF.SameCoordinates,PX3dc4fd0PYa381e90*%
%TF.FileFunction,Legend,Top*%
%TF.FilePolarity,Positive*%
%FSLAX46Y46*%
G04 Gerber Fmt 4.6, Leading zero omitted, Abs format (unit mm)*
G04 Created by KiCad (PCBNEW (6.0.5)) date 2022-07-21 09:59:54*
%MOMM*%
%LPD*%
G01*
G04 APERTURE LIST*
G04 Aperture macros list*
%AMRoundRect*
0 Rectangle with rounded corners*
0 $1 Rounding radius*
0 $2 $3 $4 $5 $6 $7 $8 $9 X,Y pos of 4 corners*
0 Add a 4 corners polygon primitive as box body*
4,1,4,$2,$3,$4,$5,$6,$7,$8,$9,$2,$3,0*
0 Add four circle primitives for the rounded corners*
1,1,$1+$1,$2,$3*
1,1,$1+$1,$4,$5*
1,1,$1+$1,$6,$7*
1,1,$1+$1,$8,$9*
0 Add four rect primitives between the rounded corners*
20,1,$1+$1,$2,$3,$4,$5,0*
20,1,$1+$1,$4,$5,$6,$7,0*
20,1,$1+$1,$6,$7,$8,$9,0*
20,1,$1+$1,$8,$9,$2,$3,0*%
G04 Aperture macros list end*
%ADD10C,0.150000*%
%ADD11C,0.300000*%
%ADD12C,0.120000*%
%ADD13C,3.200000*%
%ADD14R,1.400000X1.150000*%
%ADD15R,1.600000X1.400000*%
%ADD16R,4.500000X2.000000*%
%ADD17R,1.800000X1.000000*%
%ADD18C,2.000000*%
%ADD19R,2.200000X1.200000*%
%ADD20R,6.400000X5.800000*%
%ADD21R,1.150000X1.400000*%
%ADD22R,0.800000X0.900000*%
%ADD23C,1.600000*%
%ADD24RoundRect,0.243750X0.456250X-0.243750X0.456250X0.243750X-0.456250X0.243750X-0.456250X-0.243750X0*%
%ADD25R,1.700000X1.700000*%
%ADD26O,1.700000X1.700000*%
%ADD27R,1.600000X1.600000*%
%ADD28O,1.600000X1.600000*%
%ADD29C,3.000000*%
%ADD30R,1.800000X2.600000*%
%ADD31O,1.800000X2.600000*%
%ADD32RoundRect,0.500000X-0.500000X1.750000X-0.500000X-1.750000X0.500000X-1.750000X0.500000X1.750000X0*%
%ADD33RoundRect,0.500000X-1.500000X-0.500000X1.500000X-0.500000X1.500000X0.500000X-1.500000X0.500000X0*%
%ADD34R,2.000000X2.000000*%
%ADD35R,3.000000X3.000000*%
%ADD36C,1.440000*%
G04 APERTURE END LIST*
D10*
%TO.C,H4*%
X29968095Y76052420D02*
X29968095Y77052420D01*
X29968095Y76576229D02*
X30539523Y76576229D01*
X30539523Y76052420D02*
X30539523Y77052420D01*
X31444285Y76719086D02*
X31444285Y76052420D01*
X31206190Y77100039D02*
X30968095Y76385753D01*
X31587142Y76385753D01*
%TO.C,R14*%
X93187780Y43603943D02*
X92711590Y43270610D01*
X93187780Y43032515D02*
X92187780Y43032515D01*
X92187780Y43413467D01*
X92235400Y43508705D01*
X92283019Y43556324D01*
X92378257Y43603943D01*
X92521114Y43603943D01*
X92616352Y43556324D01*
X92663971Y43508705D01*
X92711590Y43413467D01*
X92711590Y43032515D01*
X93187780Y44556324D02*
X93187780Y43984896D01*
X93187780Y44270610D02*
X92187780Y44270610D01*
X92330638Y44175372D01*
X92425876Y44080134D01*
X92473495Y43984896D01*
X92521114Y45413467D02*
X93187780Y45413467D01*
X92140161Y45175372D02*
X92854447Y44937277D01*
X92854447Y45556324D01*
%TO.C,SW4*%
X51896666Y38745239D02*
X52039523Y38697620D01*
X52277619Y38697620D01*
X52372857Y38745239D01*
X52420476Y38792858D01*
X52468095Y38888096D01*
X52468095Y38983334D01*
X52420476Y39078572D01*
X52372857Y39126191D01*
X52277619Y39173810D01*
X52087142Y39221429D01*
X51991904Y39269048D01*
X51944285Y39316667D01*
X51896666Y39411905D01*
X51896666Y39507143D01*
X51944285Y39602381D01*
X51991904Y39650000D01*
X52087142Y39697620D01*
X52325238Y39697620D01*
X52468095Y39650000D01*
X52801428Y39697620D02*
X53039523Y38697620D01*
X53230000Y39411905D01*
X53420476Y38697620D01*
X53658571Y39697620D01*
X54468095Y39364286D02*
X54468095Y38697620D01*
X54230000Y39745239D02*
X53991904Y39030953D01*
X54610952Y39030953D01*
%TO.C,Y1*%
X79406809Y67918010D02*
X79406809Y67441820D01*
X79073476Y68441820D02*
X79406809Y67918010D01*
X79740142Y68441820D01*
X80597285Y67441820D02*
X80025857Y67441820D01*
X80311571Y67441820D02*
X80311571Y68441820D01*
X80216333Y68298962D01*
X80121095Y68203724D01*
X80025857Y68156105D01*
%TO.C,Y2*%
X64256190Y111723810D02*
X64732380Y111723810D01*
X63732380Y111390477D02*
X64256190Y111723810D01*
X63732380Y112057143D01*
X63827619Y112342858D02*
X63780000Y112390477D01*
X63732380Y112485715D01*
X63732380Y112723810D01*
X63780000Y112819048D01*
X63827619Y112866667D01*
X63922857Y112914286D01*
X64018095Y112914286D01*
X64160952Y112866667D01*
X64732380Y112295239D01*
X64732380Y112914286D01*
%TO.C,TP14*%
X117337104Y40374820D02*
X117908533Y40374820D01*
X117622819Y39374820D02*
X117622819Y40374820D01*
X118241866Y39374820D02*
X118241866Y40374820D01*
X118622819Y40374820D01*
X118718057Y40327200D01*
X118765676Y40279581D01*
X118813295Y40184343D01*
X118813295Y40041486D01*
X118765676Y39946248D01*
X118718057Y39898629D01*
X118622819Y39851010D01*
X118241866Y39851010D01*
X119765676Y39374820D02*
X119194247Y39374820D01*
X119479961Y39374820D02*
X119479961Y40374820D01*
X119384723Y40231962D01*
X119289485Y40136724D01*
X119194247Y40089105D01*
X120622819Y40041486D02*
X120622819Y39374820D01*
X120384723Y40422439D02*
X120146628Y39708153D01*
X120765676Y39708153D01*
%TO.C,U1*%
X67468095Y25497620D02*
X67468095Y24688096D01*
X67515714Y24592858D01*
X67563333Y24545239D01*
X67658571Y24497620D01*
X67849047Y24497620D01*
X67944285Y24545239D01*
X67991904Y24592858D01*
X68039523Y24688096D01*
X68039523Y25497620D01*
X69039523Y24497620D02*
X68468095Y24497620D01*
X68753809Y24497620D02*
X68753809Y25497620D01*
X68658571Y25354762D01*
X68563333Y25259524D01*
X68468095Y25211905D01*
%TO.C,R13*%
X70032380Y46807143D02*
X69556190Y46473810D01*
X70032380Y46235715D02*
X69032380Y46235715D01*
X69032380Y46616667D01*
X69080000Y46711905D01*
X69127619Y46759524D01*
X69222857Y46807143D01*
X69365714Y46807143D01*
X69460952Y46759524D01*
X69508571Y46711905D01*
X69556190Y46616667D01*
X69556190Y46235715D01*
X70032380Y47759524D02*
X70032380Y47188096D01*
X70032380Y47473810D02*
X69032380Y47473810D01*
X69175238Y47378572D01*
X69270476Y47283334D01*
X69318095Y47188096D01*
X69032380Y48092858D02*
X69032380Y48711905D01*
X69413333Y48378572D01*
X69413333Y48521429D01*
X69460952Y48616667D01*
X69508571Y48664286D01*
X69603809Y48711905D01*
X69841904Y48711905D01*
X69937142Y48664286D01*
X69984761Y48616667D01*
X70032380Y48521429D01*
X70032380Y48235715D01*
X69984761Y48140477D01*
X69937142Y48092858D01*
%TO.C,R1*%
X100239533Y67340220D02*
X99906200Y67816410D01*
X99668104Y67340220D02*
X99668104Y68340220D01*
X100049057Y68340220D01*
X100144295Y68292600D01*
X100191914Y68244981D01*
X100239533Y68149743D01*
X100239533Y68006886D01*
X100191914Y67911648D01*
X100144295Y67864029D01*
X100049057Y67816410D01*
X99668104Y67816410D01*
X101191914Y67340220D02*
X100620485Y67340220D01*
X100906200Y67340220D02*
X100906200Y68340220D01*
X100810961Y68197362D01*
X100715723Y68102124D01*
X100620485Y68054505D01*
%TO.C,C1*%
X106056133Y59104258D02*
X106008514Y59056639D01*
X105865657Y59009020D01*
X105770419Y59009020D01*
X105627561Y59056639D01*
X105532323Y59151877D01*
X105484704Y59247115D01*
X105437085Y59437591D01*
X105437085Y59580448D01*
X105484704Y59770924D01*
X105532323Y59866162D01*
X105627561Y59961400D01*
X105770419Y60009020D01*
X105865657Y60009020D01*
X106008514Y59961400D01*
X106056133Y59913781D01*
X107008514Y59009020D02*
X106437085Y59009020D01*
X106722800Y59009020D02*
X106722800Y60009020D01*
X106627561Y59866162D01*
X106532323Y59770924D01*
X106437085Y59723305D01*
%TO.C,C6*%
X68733942Y63790534D02*
X68781561Y63742915D01*
X68829180Y63600058D01*
X68829180Y63504820D01*
X68781561Y63361962D01*
X68686323Y63266724D01*
X68591085Y63219105D01*
X68400609Y63171486D01*
X68257752Y63171486D01*
X68067276Y63219105D01*
X67972038Y63266724D01*
X67876800Y63361962D01*
X67829180Y63504820D01*
X67829180Y63600058D01*
X67876800Y63742915D01*
X67924419Y63790534D01*
X67829180Y64647677D02*
X67829180Y64457200D01*
X67876800Y64361962D01*
X67924419Y64314343D01*
X68067276Y64219105D01*
X68257752Y64171486D01*
X68638704Y64171486D01*
X68733942Y64219105D01*
X68781561Y64266724D01*
X68829180Y64361962D01*
X68829180Y64552439D01*
X68781561Y64647677D01*
X68733942Y64695296D01*
X68638704Y64742915D01*
X68400609Y64742915D01*
X68305371Y64695296D01*
X68257752Y64647677D01*
X68210133Y64552439D01*
X68210133Y64361962D01*
X68257752Y64266724D01*
X68305371Y64219105D01*
X68400609Y64171486D01*
%TO.C,TP9*%
X131351495Y66714620D02*
X131922923Y66714620D01*
X131637209Y65714620D02*
X131637209Y66714620D01*
X132256257Y65714620D02*
X132256257Y66714620D01*
X132637209Y66714620D01*
X132732447Y66667000D01*
X132780066Y66619381D01*
X132827685Y66524143D01*
X132827685Y66381286D01*
X132780066Y66286048D01*
X132732447Y66238429D01*
X132637209Y66190810D01*
X132256257Y66190810D01*
X133303876Y65714620D02*
X133494352Y65714620D01*
X133589590Y65762239D01*
X133637209Y65809858D01*
X133732447Y65952715D01*
X133780066Y66143191D01*
X133780066Y66524143D01*
X133732447Y66619381D01*
X133684828Y66667000D01*
X133589590Y66714620D01*
X133399114Y66714620D01*
X133303876Y66667000D01*
X133256257Y66619381D01*
X133208638Y66524143D01*
X133208638Y66286048D01*
X133256257Y66190810D01*
X133303876Y66143191D01*
X133399114Y66095572D01*
X133589590Y66095572D01*
X133684828Y66143191D01*
X133732447Y66190810D01*
X133780066Y66286048D01*
%TO.C,TP11*%
X45251904Y109225620D02*
X45823333Y109225620D01*
X45537619Y108225620D02*
X45537619Y109225620D01*
X46156666Y108225620D02*
X46156666Y109225620D01*
X46537619Y109225620D01*
X46632857Y109178000D01*
X46680476Y109130381D01*
X46728095Y109035143D01*
X46728095Y108892286D01*
X46680476Y108797048D01*
X46632857Y108749429D01*
X46537619Y108701810D01*
X46156666Y108701810D01*
X47680476Y108225620D02*
X47109047Y108225620D01*
X47394761Y108225620D02*
X47394761Y109225620D01*
X47299523Y109082762D01*
X47204285Y108987524D01*
X47109047Y108939905D01*
X48632857Y108225620D02*
X48061428Y108225620D01*
X48347142Y108225620D02*
X48347142Y109225620D01*
X48251904Y109082762D01*
X48156666Y108987524D01*
X48061428Y108939905D01*
%TO.C,R7*%
X116809780Y52462134D02*
X116333590Y52128800D01*
X116809780Y51890705D02*
X115809780Y51890705D01*
X115809780Y52271658D01*
X115857400Y52366896D01*
X115905019Y52414515D01*
X116000257Y52462134D01*
X116143114Y52462134D01*
X116238352Y52414515D01*
X116285971Y52366896D01*
X116333590Y52271658D01*
X116333590Y51890705D01*
X115809780Y52795467D02*
X115809780Y53462134D01*
X116809780Y53033562D01*
%TO.C,Q1*%
X131433819Y71735962D02*
X131386200Y71640724D01*
X131290961Y71545486D01*
X131148104Y71402629D01*
X131100485Y71307391D01*
X131100485Y71212153D01*
X131338580Y71259772D02*
X131290961Y71164534D01*
X131195723Y71069296D01*
X131005247Y71021677D01*
X130671914Y71021677D01*
X130481438Y71069296D01*
X130386200Y71164534D01*
X130338580Y71259772D01*
X130338580Y71450248D01*
X130386200Y71545486D01*
X130481438Y71640724D01*
X130671914Y71688343D01*
X131005247Y71688343D01*
X131195723Y71640724D01*
X131290961Y71545486D01*
X131338580Y71450248D01*
X131338580Y71259772D01*
X131338580Y72640724D02*
X131338580Y72069296D01*
X131338580Y72355010D02*
X130338580Y72355010D01*
X130481438Y72259772D01*
X130576676Y72164534D01*
X130624295Y72069296D01*
%TO.C,C5*%
X84558142Y45262134D02*
X84605761Y45214515D01*
X84653380Y45071658D01*
X84653380Y44976420D01*
X84605761Y44833562D01*
X84510523Y44738324D01*
X84415285Y44690705D01*
X84224809Y44643086D01*
X84081952Y44643086D01*
X83891476Y44690705D01*
X83796238Y44738324D01*
X83701000Y44833562D01*
X83653380Y44976420D01*
X83653380Y45071658D01*
X83701000Y45214515D01*
X83748619Y45262134D01*
X83653380Y46166896D02*
X83653380Y45690705D01*
X84129571Y45643086D01*
X84081952Y45690705D01*
X84034333Y45785943D01*
X84034333Y46024039D01*
X84081952Y46119277D01*
X84129571Y46166896D01*
X84224809Y46214515D01*
X84462904Y46214515D01*
X84558142Y46166896D01*
X84605761Y46119277D01*
X84653380Y46024039D01*
X84653380Y45785943D01*
X84605761Y45690705D01*
X84558142Y45643086D01*
%TO.C,SW1*%
X116896666Y61045239D02*
X117039523Y60997620D01*
X117277619Y60997620D01*
X117372857Y61045239D01*
X117420476Y61092858D01*
X117468095Y61188096D01*
X117468095Y61283334D01*
X117420476Y61378572D01*
X117372857Y61426191D01*
X117277619Y61473810D01*
X117087142Y61521429D01*
X116991904Y61569048D01*
X116944285Y61616667D01*
X116896666Y61711905D01*
X116896666Y61807143D01*
X116944285Y61902381D01*
X116991904Y61950000D01*
X117087142Y61997620D01*
X117325238Y61997620D01*
X117468095Y61950000D01*
X117801428Y61997620D02*
X118039523Y60997620D01*
X118230000Y61711905D01*
X118420476Y60997620D01*
X118658571Y61997620D01*
X119563333Y60997620D02*
X118991904Y60997620D01*
X119277619Y60997620D02*
X119277619Y61997620D01*
X119182380Y61854762D01*
X119087142Y61759524D01*
X118991904Y61711905D01*
%TO.C,R3*%
X104682380Y44283334D02*
X104206190Y43950000D01*
X104682380Y43711905D02*
X103682380Y43711905D01*
X103682380Y44092858D01*
X103730000Y44188096D01*
X103777619Y44235715D01*
X103872857Y44283334D01*
X104015714Y44283334D01*
X104110952Y44235715D01*
X104158571Y44188096D01*
X104206190Y44092858D01*
X104206190Y43711905D01*
X103682380Y44616667D02*
X103682380Y45235715D01*
X104063333Y44902381D01*
X104063333Y45045239D01*
X104110952Y45140477D01*
X104158571Y45188096D01*
X104253809Y45235715D01*
X104491904Y45235715D01*
X104587142Y45188096D01*
X104634761Y45140477D01*
X104682380Y45045239D01*
X104682380Y44759524D01*
X104634761Y44664286D01*
X104587142Y44616667D01*
%TO.C,TP15*%
X63031904Y109225620D02*
X63603333Y109225620D01*
X63317619Y108225620D02*
X63317619Y109225620D01*
X63936666Y108225620D02*
X63936666Y109225620D01*
X64317619Y109225620D01*
X64412857Y109178000D01*
X64460476Y109130381D01*
X64508095Y109035143D01*
X64508095Y108892286D01*
X64460476Y108797048D01*
X64412857Y108749429D01*
X64317619Y108701810D01*
X63936666Y108701810D01*
X65460476Y108225620D02*
X64889047Y108225620D01*
X65174761Y108225620D02*
X65174761Y109225620D01*
X65079523Y109082762D01*
X64984285Y108987524D01*
X64889047Y108939905D01*
X66365238Y109225620D02*
X65889047Y109225620D01*
X65841428Y108749429D01*
X65889047Y108797048D01*
X65984285Y108844667D01*
X66222380Y108844667D01*
X66317619Y108797048D01*
X66365238Y108749429D01*
X66412857Y108654191D01*
X66412857Y108416096D01*
X66365238Y108320858D01*
X66317619Y108273239D01*
X66222380Y108225620D01*
X65984285Y108225620D01*
X65889047Y108273239D01*
X65841428Y108320858D01*
%TO.C,R9*%
X85202733Y113187220D02*
X84869400Y113663410D01*
X84631304Y113187220D02*
X84631304Y114187220D01*
X85012257Y114187220D01*
X85107495Y114139600D01*
X85155114Y114091981D01*
X85202733Y113996743D01*
X85202733Y113853886D01*
X85155114Y113758648D01*
X85107495Y113711029D01*
X85012257Y113663410D01*
X84631304Y113663410D01*
X85678923Y113187220D02*
X85869400Y113187220D01*
X85964638Y113234839D01*
X86012257Y113282458D01*
X86107495Y113425315D01*
X86155114Y113615791D01*
X86155114Y113996743D01*
X86107495Y114091981D01*
X86059876Y114139600D01*
X85964638Y114187220D01*
X85774161Y114187220D01*
X85678923Y114139600D01*
X85631304Y114091981D01*
X85583685Y113996743D01*
X85583685Y113758648D01*
X85631304Y113663410D01*
X85678923Y113615791D01*
X85774161Y113568172D01*
X85964638Y113568172D01*
X86059876Y113615791D01*
X86107495Y113663410D01*
X86155114Y113758648D01*
%TO.C,TP5*%
X82481895Y106821220D02*
X83053323Y106821220D01*
X82767609Y105821220D02*
X82767609Y106821220D01*
X83386657Y105821220D02*
X83386657Y106821220D01*
X83767609Y106821220D01*
X83862847Y106773600D01*
X83910466Y106725981D01*
X83958085Y106630743D01*
X83958085Y106487886D01*
X83910466Y106392648D01*
X83862847Y106345029D01*
X83767609Y106297410D01*
X83386657Y106297410D01*
X84862847Y106821220D02*
X84386657Y106821220D01*
X84339038Y106345029D01*
X84386657Y106392648D01*
X84481895Y106440267D01*
X84719990Y106440267D01*
X84815228Y106392648D01*
X84862847Y106345029D01*
X84910466Y106249791D01*
X84910466Y106011696D01*
X84862847Y105916458D01*
X84815228Y105868839D01*
X84719990Y105821220D01*
X84481895Y105821220D01*
X84386657Y105868839D01*
X84339038Y105916458D01*
%TO.C,TP1*%
X137168095Y81285620D02*
X137739523Y81285620D01*
X137453809Y80285620D02*
X137453809Y81285620D01*
X138072857Y80285620D02*
X138072857Y81285620D01*
X138453809Y81285620D01*
X138549047Y81238000D01*
X138596666Y81190381D01*
X138644285Y81095143D01*
X138644285Y80952286D01*
X138596666Y80857048D01*
X138549047Y80809429D01*
X138453809Y80761810D01*
X138072857Y80761810D01*
X139596666Y80285620D02*
X139025238Y80285620D01*
X139310952Y80285620D02*
X139310952Y81285620D01*
X139215714Y81142762D01*
X139120476Y81047524D01*
X139025238Y80999905D01*
%TO.C,TP12*%
X75884304Y42229020D02*
X76455733Y42229020D01*
X76170019Y41229020D02*
X76170019Y42229020D01*
X76789066Y41229020D02*
X76789066Y42229020D01*
X77170019Y42229020D01*
X77265257Y42181400D01*
X77312876Y42133781D01*
X77360495Y42038543D01*
X77360495Y41895686D01*
X77312876Y41800448D01*
X77265257Y41752829D01*
X77170019Y41705210D01*
X76789066Y41705210D01*
X78312876Y41229020D02*
X77741447Y41229020D01*
X78027161Y41229020D02*
X78027161Y42229020D01*
X77931923Y42086162D01*
X77836685Y41990924D01*
X77741447Y41943305D01*
X78693828Y42133781D02*
X78741447Y42181400D01*
X78836685Y42229020D01*
X79074780Y42229020D01*
X79170019Y42181400D01*
X79217638Y42133781D01*
X79265257Y42038543D01*
X79265257Y41943305D01*
X79217638Y41800448D01*
X78646209Y41229020D01*
X79265257Y41229020D01*
%TO.C,D1*%
X73991980Y46965405D02*
X72991980Y46965405D01*
X72991980Y47203500D01*
X73039600Y47346358D01*
X73134838Y47441596D01*
X73230076Y47489215D01*
X73420552Y47536834D01*
X73563409Y47536834D01*
X73753885Y47489215D01*
X73849123Y47441596D01*
X73944361Y47346358D01*
X73991980Y47203500D01*
X73991980Y46965405D01*
X73991980Y48489215D02*
X73991980Y47917786D01*
X73991980Y48203500D02*
X72991980Y48203500D01*
X73134838Y48108262D01*
X73230076Y48013024D01*
X73277695Y47917786D01*
%TO.C,R5*%
X133792933Y72928220D02*
X133459600Y73404410D01*
X133221504Y72928220D02*
X133221504Y73928220D01*
X133602457Y73928220D01*
X133697695Y73880600D01*
X133745314Y73832981D01*
X133792933Y73737743D01*
X133792933Y73594886D01*
X133745314Y73499648D01*
X133697695Y73452029D01*
X133602457Y73404410D01*
X133221504Y73404410D01*
X134697695Y73928220D02*
X134221504Y73928220D01*
X134173885Y73452029D01*
X134221504Y73499648D01*
X134316742Y73547267D01*
X134554838Y73547267D01*
X134650076Y73499648D01*
X134697695Y73452029D01*
X134745314Y73356791D01*
X134745314Y73118696D01*
X134697695Y73023458D01*
X134650076Y72975839D01*
X134554838Y72928220D01*
X134316742Y72928220D01*
X134221504Y72975839D01*
X134173885Y73023458D01*
%TO.C,TP8*%
X107831095Y43676820D02*
X108402523Y43676820D01*
X108116809Y42676820D02*
X108116809Y43676820D01*
X108735857Y42676820D02*
X108735857Y43676820D01*
X109116809Y43676820D01*
X109212047Y43629200D01*
X109259666Y43581581D01*
X109307285Y43486343D01*
X109307285Y43343486D01*
X109259666Y43248248D01*
X109212047Y43200629D01*
X109116809Y43153010D01*
X108735857Y43153010D01*
X109878714Y43248248D02*
X109783476Y43295867D01*
X109735857Y43343486D01*
X109688238Y43438724D01*
X109688238Y43486343D01*
X109735857Y43581581D01*
X109783476Y43629200D01*
X109878714Y43676820D01*
X110069190Y43676820D01*
X110164428Y43629200D01*
X110212047Y43581581D01*
X110259666Y43486343D01*
X110259666Y43438724D01*
X110212047Y43343486D01*
X110164428Y43295867D01*
X110069190Y43248248D01*
X109878714Y43248248D01*
X109783476Y43200629D01*
X109735857Y43153010D01*
X109688238Y43057772D01*
X109688238Y42867296D01*
X109735857Y42772058D01*
X109783476Y42724439D01*
X109878714Y42676820D01*
X110069190Y42676820D01*
X110164428Y42724439D01*
X110212047Y42772058D01*
X110259666Y42867296D01*
X110259666Y43057772D01*
X110212047Y43153010D01*
X110164428Y43200629D01*
X110069190Y43248248D01*
%TO.C,TP7*%
X68156295Y39587420D02*
X68727723Y39587420D01*
X68442009Y38587420D02*
X68442009Y39587420D01*
X69061057Y38587420D02*
X69061057Y39587420D01*
X69442009Y39587420D01*
X69537247Y39539800D01*
X69584866Y39492181D01*
X69632485Y39396943D01*
X69632485Y39254086D01*
X69584866Y39158848D01*
X69537247Y39111229D01*
X69442009Y39063610D01*
X69061057Y39063610D01*
X69965819Y39587420D02*
X70632485Y39587420D01*
X70203914Y38587420D01*
%TO.C,R6*%
X78954333Y44023020D02*
X78621000Y44499210D01*
X78382904Y44023020D02*
X78382904Y45023020D01*
X78763857Y45023020D01*
X78859095Y44975400D01*
X78906714Y44927781D01*
X78954333Y44832543D01*
X78954333Y44689686D01*
X78906714Y44594448D01*
X78859095Y44546829D01*
X78763857Y44499210D01*
X78382904Y44499210D01*
X79811476Y45023020D02*
X79621000Y45023020D01*
X79525761Y44975400D01*
X79478142Y44927781D01*
X79382904Y44784924D01*
X79335285Y44594448D01*
X79335285Y44213496D01*
X79382904Y44118258D01*
X79430523Y44070639D01*
X79525761Y44023020D01*
X79716238Y44023020D01*
X79811476Y44070639D01*
X79859095Y44118258D01*
X79906714Y44213496D01*
X79906714Y44451591D01*
X79859095Y44546829D01*
X79811476Y44594448D01*
X79716238Y44642067D01*
X79525761Y44642067D01*
X79430523Y44594448D01*
X79382904Y44546829D01*
X79335285Y44451591D01*
%TO.C,R4*%
X100858580Y44029334D02*
X100382390Y43696000D01*
X100858580Y43457905D02*
X99858580Y43457905D01*
X99858580Y43838858D01*
X99906200Y43934096D01*
X99953819Y43981715D01*
X100049057Y44029334D01*
X100191914Y44029334D01*
X100287152Y43981715D01*
X100334771Y43934096D01*
X100382390Y43838858D01*
X100382390Y43457905D01*
X100191914Y44886477D02*
X100858580Y44886477D01*
X99810961Y44648381D02*
X100525247Y44410286D01*
X100525247Y45029334D01*
%TO.C,H3*%
X139928695Y75900020D02*
X139928695Y76900020D01*
X139928695Y76423829D02*
X140500123Y76423829D01*
X140500123Y75900020D02*
X140500123Y76900020D01*
X140881076Y76900020D02*
X141500123Y76900020D01*
X141166790Y76519067D01*
X141309647Y76519067D01*
X141404885Y76471448D01*
X141452504Y76423829D01*
X141500123Y76328591D01*
X141500123Y76090496D01*
X141452504Y75995258D01*
X141404885Y75947639D01*
X141309647Y75900020D01*
X141023933Y75900020D01*
X140928695Y75947639D01*
X140881076Y75995258D01*
%TO.C,C3*%
X75937142Y26283334D02*
X75984761Y26235715D01*
X76032380Y26092858D01*
X76032380Y25997620D01*
X75984761Y25854762D01*
X75889523Y25759524D01*
X75794285Y25711905D01*
X75603809Y25664286D01*
X75460952Y25664286D01*
X75270476Y25711905D01*
X75175238Y25759524D01*
X75080000Y25854762D01*
X75032380Y25997620D01*
X75032380Y26092858D01*
X75080000Y26235715D01*
X75127619Y26283334D01*
X75032380Y26616667D02*
X75032380Y27235715D01*
X75413333Y26902381D01*
X75413333Y27045239D01*
X75460952Y27140477D01*
X75508571Y27188096D01*
X75603809Y27235715D01*
X75841904Y27235715D01*
X75937142Y27188096D01*
X75984761Y27140477D01*
X76032380Y27045239D01*
X76032380Y26759524D01*
X75984761Y26664286D01*
X75937142Y26616667D01*
%TO.C,J2*%
X90002380Y64116667D02*
X90716666Y64116667D01*
X90859523Y64069048D01*
X90954761Y63973810D01*
X91002380Y63830953D01*
X91002380Y63735715D01*
X90097619Y64545239D02*
X90050000Y64592858D01*
X90002380Y64688096D01*
X90002380Y64926191D01*
X90050000Y65021429D01*
X90097619Y65069048D01*
X90192857Y65116667D01*
X90288095Y65116667D01*
X90430952Y65069048D01*
X91002380Y64497620D01*
X91002380Y65116667D01*
%TO.C,H2*%
X89001695Y19512020D02*
X89001695Y20512020D01*
X89001695Y20035829D02*
X89573123Y20035829D01*
X89573123Y19512020D02*
X89573123Y20512020D01*
X90001695Y20416781D02*
X90049314Y20464400D01*
X90144552Y20512020D01*
X90382647Y20512020D01*
X90477885Y20464400D01*
X90525504Y20416781D01*
X90573123Y20321543D01*
X90573123Y20226305D01*
X90525504Y20083448D01*
X89954076Y19512020D01*
X90573123Y19512020D01*
%TO.C,C2*%
X90237142Y62283334D02*
X90284761Y62235715D01*
X90332380Y62092858D01*
X90332380Y61997620D01*
X90284761Y61854762D01*
X90189523Y61759524D01*
X90094285Y61711905D01*
X89903809Y61664286D01*
X89760952Y61664286D01*
X89570476Y61711905D01*
X89475238Y61759524D01*
X89380000Y61854762D01*
X89332380Y61997620D01*
X89332380Y62092858D01*
X89380000Y62235715D01*
X89427619Y62283334D01*
X89427619Y62664286D02*
X89380000Y62711905D01*
X89332380Y62807143D01*
X89332380Y63045239D01*
X89380000Y63140477D01*
X89427619Y63188096D01*
X89522857Y63235715D01*
X89618095Y63235715D01*
X89760952Y63188096D01*
X90332380Y62616667D01*
X90332380Y63235715D01*
%TO.C,U3*%
X72478095Y116127620D02*
X72478095Y115318096D01*
X72525714Y115222858D01*
X72573333Y115175239D01*
X72668571Y115127620D01*
X72859047Y115127620D01*
X72954285Y115175239D01*
X73001904Y115222858D01*
X73049523Y115318096D01*
X73049523Y116127620D01*
X73430476Y116127620D02*
X74049523Y116127620D01*
X73716190Y115746667D01*
X73859047Y115746667D01*
X73954285Y115699048D01*
X74001904Y115651429D01*
X74049523Y115556191D01*
X74049523Y115318096D01*
X74001904Y115222858D01*
X73954285Y115175239D01*
X73859047Y115127620D01*
X73573333Y115127620D01*
X73478095Y115175239D01*
X73430476Y115222858D01*
%TO.C,H1*%
X79218095Y125447620D02*
X79218095Y126447620D01*
X79218095Y125971429D02*
X79789523Y125971429D01*
X79789523Y125447620D02*
X79789523Y126447620D01*
X80789523Y125447620D02*
X80218095Y125447620D01*
X80503809Y125447620D02*
X80503809Y126447620D01*
X80408571Y126304762D01*
X80313333Y126209524D01*
X80218095Y126161905D01*
%TO.C,SW3*%
X119896666Y41745239D02*
X120039523Y41697620D01*
X120277619Y41697620D01*
X120372857Y41745239D01*
X120420476Y41792858D01*
X120468095Y41888096D01*
X120468095Y41983334D01*
X120420476Y42078572D01*
X120372857Y42126191D01*
X120277619Y42173810D01*
X120087142Y42221429D01*
X119991904Y42269048D01*
X119944285Y42316667D01*
X119896666Y42411905D01*
X119896666Y42507143D01*
X119944285Y42602381D01*
X119991904Y42650000D01*
X120087142Y42697620D01*
X120325238Y42697620D01*
X120468095Y42650000D01*
X120801428Y42697620D02*
X121039523Y41697620D01*
X121230000Y42411905D01*
X121420476Y41697620D01*
X121658571Y42697620D01*
X121944285Y42697620D02*
X122563333Y42697620D01*
X122230000Y42316667D01*
X122372857Y42316667D01*
X122468095Y42269048D01*
X122515714Y42221429D01*
X122563333Y42126191D01*
X122563333Y41888096D01*
X122515714Y41792858D01*
X122468095Y41745239D01*
X122372857Y41697620D01*
X122087142Y41697620D01*
X121991904Y41745239D01*
X121944285Y41792858D01*
%TO.C,R10*%
X97708980Y43629343D02*
X97232790Y43296010D01*
X97708980Y43057915D02*
X96708980Y43057915D01*
X96708980Y43438867D01*
X96756600Y43534105D01*
X96804219Y43581724D01*
X96899457Y43629343D01*
X97042314Y43629343D01*
X97137552Y43581724D01*
X97185171Y43534105D01*
X97232790Y43438867D01*
X97232790Y43057915D01*
X97708980Y44581724D02*
X97708980Y44010296D01*
X97708980Y44296010D02*
X96708980Y44296010D01*
X96851838Y44200772D01*
X96947076Y44105534D01*
X96994695Y44010296D01*
X96708980Y45200772D02*
X96708980Y45296010D01*
X96756600Y45391248D01*
X96804219Y45438867D01*
X96899457Y45486486D01*
X97089933Y45534105D01*
X97328028Y45534105D01*
X97518504Y45486486D01*
X97613742Y45438867D01*
X97661361Y45391248D01*
X97708980Y45296010D01*
X97708980Y45200772D01*
X97661361Y45105534D01*
X97613742Y45057915D01*
X97518504Y45010296D01*
X97328028Y44962677D01*
X97089933Y44962677D01*
X96899457Y45010296D01*
X96804219Y45057915D01*
X96756600Y45105534D01*
X96708980Y45200772D01*
%TO.C,TP16*%
X66841904Y123195620D02*
X67413333Y123195620D01*
X67127619Y122195620D02*
X67127619Y123195620D01*
X67746666Y122195620D02*
X67746666Y123195620D01*
X68127619Y123195620D01*
X68222857Y123148000D01*
X68270476Y123100381D01*
X68318095Y123005143D01*
X68318095Y122862286D01*
X68270476Y122767048D01*
X68222857Y122719429D01*
X68127619Y122671810D01*
X67746666Y122671810D01*
X69270476Y122195620D02*
X68699047Y122195620D01*
X68984761Y122195620D02*
X68984761Y123195620D01*
X68889523Y123052762D01*
X68794285Y122957524D01*
X68699047Y122909905D01*
X70127619Y123195620D02*
X69937142Y123195620D01*
X69841904Y123148000D01*
X69794285Y123100381D01*
X69699047Y122957524D01*
X69651428Y122767048D01*
X69651428Y122386096D01*
X69699047Y122290858D01*
X69746666Y122243239D01*
X69841904Y122195620D01*
X70032380Y122195620D01*
X70127619Y122243239D01*
X70175238Y122290858D01*
X70222857Y122386096D01*
X70222857Y122624191D01*
X70175238Y122719429D01*
X70127619Y122767048D01*
X70032380Y122814667D01*
X69841904Y122814667D01*
X69746666Y122767048D01*
X69699047Y122719429D01*
X69651428Y122624191D01*
%TO.C,R2*%
X93063333Y60997620D02*
X92730000Y61473810D01*
X92491904Y60997620D02*
X92491904Y61997620D01*
X92872857Y61997620D01*
X92968095Y61950000D01*
X93015714Y61902381D01*
X93063333Y61807143D01*
X93063333Y61664286D01*
X93015714Y61569048D01*
X92968095Y61521429D01*
X92872857Y61473810D01*
X92491904Y61473810D01*
X93444285Y61902381D02*
X93491904Y61950000D01*
X93587142Y61997620D01*
X93825238Y61997620D01*
X93920476Y61950000D01*
X93968095Y61902381D01*
X94015714Y61807143D01*
X94015714Y61711905D01*
X93968095Y61569048D01*
X93396666Y60997620D01*
X94015714Y60997620D01*
%TO.C,TP2*%
X62238095Y58425620D02*
X62809523Y58425620D01*
X62523809Y57425620D02*
X62523809Y58425620D01*
X63142857Y57425620D02*
X63142857Y58425620D01*
X63523809Y58425620D01*
X63619047Y58378000D01*
X63666666Y58330381D01*
X63714285Y58235143D01*
X63714285Y58092286D01*
X63666666Y57997048D01*
X63619047Y57949429D01*
X63523809Y57901810D01*
X63142857Y57901810D01*
X64095238Y58330381D02*
X64142857Y58378000D01*
X64238095Y58425620D01*
X64476190Y58425620D01*
X64571428Y58378000D01*
X64619047Y58330381D01*
X64666666Y58235143D01*
X64666666Y58139905D01*
X64619047Y57997048D01*
X64047619Y57425620D01*
X64666666Y57425620D01*
%TO.C,TP10*%
X90971904Y116845620D02*
X91543333Y116845620D01*
X91257619Y115845620D02*
X91257619Y116845620D01*
X91876666Y115845620D02*
X91876666Y116845620D01*
X92257619Y116845620D01*
X92352857Y116798000D01*
X92400476Y116750381D01*
X92448095Y116655143D01*
X92448095Y116512286D01*
X92400476Y116417048D01*
X92352857Y116369429D01*
X92257619Y116321810D01*
X91876666Y116321810D01*
X93400476Y115845620D02*
X92829047Y115845620D01*
X93114761Y115845620D02*
X93114761Y116845620D01*
X93019523Y116702762D01*
X92924285Y116607524D01*
X92829047Y116559905D01*
X94019523Y116845620D02*
X94114761Y116845620D01*
X94210000Y116798000D01*
X94257619Y116750381D01*
X94305238Y116655143D01*
X94352857Y116464667D01*
X94352857Y116226572D01*
X94305238Y116036096D01*
X94257619Y115940858D01*
X94210000Y115893239D01*
X94114761Y115845620D01*
X94019523Y115845620D01*
X93924285Y115893239D01*
X93876666Y115940858D01*
X93829047Y116036096D01*
X93781428Y116226572D01*
X93781428Y116464667D01*
X93829047Y116655143D01*
X93876666Y116750381D01*
X93924285Y116798000D01*
X94019523Y116845620D01*
%TO.C,J3*%
X109891666Y57852620D02*
X109891666Y57138334D01*
X109844047Y56995477D01*
X109748809Y56900239D01*
X109605952Y56852620D01*
X109510714Y56852620D01*
X110272619Y57852620D02*
X110891666Y57852620D01*
X110558333Y57471667D01*
X110701190Y57471667D01*
X110796428Y57424048D01*
X110844047Y57376429D01*
X110891666Y57281191D01*
X110891666Y57043096D01*
X110844047Y56947858D01*
X110796428Y56900239D01*
X110701190Y56852620D01*
X110415476Y56852620D01*
X110320238Y56900239D01*
X110272619Y56947858D01*
%TO.C,TP6*%
X120658095Y110495620D02*
X121229523Y110495620D01*
X120943809Y109495620D02*
X120943809Y110495620D01*
X121562857Y109495620D02*
X121562857Y110495620D01*
X121943809Y110495620D01*
X122039047Y110448000D01*
X122086666Y110400381D01*
X122134285Y110305143D01*
X122134285Y110162286D01*
X122086666Y110067048D01*
X122039047Y110019429D01*
X121943809Y109971810D01*
X121562857Y109971810D01*
X122991428Y110495620D02*
X122800952Y110495620D01*
X122705714Y110448000D01*
X122658095Y110400381D01*
X122562857Y110257524D01*
X122515238Y110067048D01*
X122515238Y109686096D01*
X122562857Y109590858D01*
X122610476Y109543239D01*
X122705714Y109495620D01*
X122896190Y109495620D01*
X122991428Y109543239D01*
X123039047Y109590858D01*
X123086666Y109686096D01*
X123086666Y109924191D01*
X123039047Y110019429D01*
X122991428Y110067048D01*
X122896190Y110114667D01*
X122705714Y110114667D01*
X122610476Y110067048D01*
X122562857Y110019429D01*
X122515238Y109924191D01*
%TO.C,R11*%
X66032380Y46807143D02*
X65556190Y46473810D01*
X66032380Y46235715D02*
X65032380Y46235715D01*
X65032380Y46616667D01*
X65080000Y46711905D01*
X65127619Y46759524D01*
X65222857Y46807143D01*
X65365714Y46807143D01*
X65460952Y46759524D01*
X65508571Y46711905D01*
X65556190Y46616667D01*
X65556190Y46235715D01*
X66032380Y47759524D02*
X66032380Y47188096D01*
X66032380Y47473810D02*
X65032380Y47473810D01*
X65175238Y47378572D01*
X65270476Y47283334D01*
X65318095Y47188096D01*
X66032380Y48711905D02*
X66032380Y48140477D01*
X66032380Y48426191D02*
X65032380Y48426191D01*
X65175238Y48330953D01*
X65270476Y48235715D01*
X65318095Y48140477D01*
%TO.C,C4*%
X77063333Y36742858D02*
X77015714Y36695239D01*
X76872857Y36647620D01*
X76777619Y36647620D01*
X76634761Y36695239D01*
X76539523Y36790477D01*
X76491904Y36885715D01*
X76444285Y37076191D01*
X76444285Y37219048D01*
X76491904Y37409524D01*
X76539523Y37504762D01*
X76634761Y37600000D01*
X76777619Y37647620D01*
X76872857Y37647620D01*
X77015714Y37600000D01*
X77063333Y37552381D01*
X77920476Y37314286D02*
X77920476Y36647620D01*
X77682380Y37695239D02*
X77444285Y36980953D01*
X78063333Y36980953D01*
%TO.C,TP3*%
X73642695Y20994620D02*
X74214123Y20994620D01*
X73928409Y19994620D02*
X73928409Y20994620D01*
X74547457Y19994620D02*
X74547457Y20994620D01*
X74928409Y20994620D01*
X75023647Y20947000D01*
X75071266Y20899381D01*
X75118885Y20804143D01*
X75118885Y20661286D01*
X75071266Y20566048D01*
X75023647Y20518429D01*
X74928409Y20470810D01*
X74547457Y20470810D01*
X75452219Y20994620D02*
X76071266Y20994620D01*
X75737933Y20613667D01*
X75880790Y20613667D01*
X75976028Y20566048D01*
X76023647Y20518429D01*
X76071266Y20423191D01*
X76071266Y20185096D01*
X76023647Y20089858D01*
X75976028Y20042239D01*
X75880790Y19994620D01*
X75595076Y19994620D01*
X75499838Y20042239D01*
X75452219Y20089858D01*
%TO.C,SW2*%
X44896666Y50745239D02*
X45039523Y50697620D01*
X45277619Y50697620D01*
X45372857Y50745239D01*
X45420476Y50792858D01*
X45468095Y50888096D01*
X45468095Y50983334D01*
X45420476Y51078572D01*
X45372857Y51126191D01*
X45277619Y51173810D01*
X45087142Y51221429D01*
X44991904Y51269048D01*
X44944285Y51316667D01*
X44896666Y51411905D01*
X44896666Y51507143D01*
X44944285Y51602381D01*
X44991904Y51650000D01*
X45087142Y51697620D01*
X45325238Y51697620D01*
X45468095Y51650000D01*
X45801428Y51697620D02*
X46039523Y50697620D01*
X46230000Y51411905D01*
X46420476Y50697620D01*
X46658571Y51697620D01*
X46991904Y51602381D02*
X47039523Y51650000D01*
X47134761Y51697620D01*
X47372857Y51697620D01*
X47468095Y51650000D01*
X47515714Y51602381D01*
X47563333Y51507143D01*
X47563333Y51411905D01*
X47515714Y51269048D01*
X46944285Y50697620D01*
X47563333Y50697620D01*
%TO.C,SW5*%
X124896666Y51745239D02*
X125039523Y51697620D01*
X125277619Y51697620D01*
X125372857Y51745239D01*
X125420476Y51792858D01*
X125468095Y51888096D01*
X125468095Y51983334D01*
X125420476Y52078572D01*
X125372857Y52126191D01*
X125277619Y52173810D01*
X125087142Y52221429D01*
X124991904Y52269048D01*
X124944285Y52316667D01*
X124896666Y52411905D01*
X124896666Y52507143D01*
X124944285Y52602381D01*
X124991904Y52650000D01*
X125087142Y52697620D01*
X125325238Y52697620D01*
X125468095Y52650000D01*
X125801428Y52697620D02*
X126039523Y51697620D01*
X126230000Y52411905D01*
X126420476Y51697620D01*
X126658571Y52697620D01*
X127515714Y52697620D02*
X127039523Y52697620D01*
X126991904Y52221429D01*
X127039523Y52269048D01*
X127134761Y52316667D01*
X127372857Y52316667D01*
X127468095Y52269048D01*
X127515714Y52221429D01*
X127563333Y52126191D01*
X127563333Y51888096D01*
X127515714Y51792858D01*
X127468095Y51745239D01*
X127372857Y51697620D01*
X127134761Y51697620D01*
X127039523Y51745239D01*
X126991904Y51792858D01*
%TO.C,DS1*%
X46335114Y103982920D02*
X46335114Y104982920D01*
X46573209Y104982920D01*
X46716066Y104935300D01*
X46811304Y104840062D01*
X46858923Y104744824D01*
X46906542Y104554348D01*
X46906542Y104411491D01*
X46858923Y104221015D01*
X46811304Y104125777D01*
X46716066Y104030539D01*
X46573209Y103982920D01*
X46335114Y103982920D01*
X47287495Y104030539D02*
X47430352Y103982920D01*
X47668447Y103982920D01*
X47763685Y104030539D01*
X47811304Y104078158D01*
X47858923Y104173396D01*
X47858923Y104268634D01*
X47811304Y104363872D01*
X47763685Y104411491D01*
X47668447Y104459110D01*
X47477971Y104506729D01*
X47382733Y104554348D01*
X47335114Y104601967D01*
X47287495Y104697205D01*
X47287495Y104792443D01*
X47335114Y104887681D01*
X47382733Y104935300D01*
X47477971Y104982920D01*
X47716066Y104982920D01*
X47858923Y104935300D01*
X48811304Y103982920D02*
X48239876Y103982920D01*
X48525590Y103982920D02*
X48525590Y104982920D01*
X48430352Y104840062D01*
X48335114Y104744824D01*
X48239876Y104697205D01*
%TO.C,U2*%
X104512380Y54678096D02*
X105321904Y54678096D01*
X105417142Y54725715D01*
X105464761Y54773334D01*
X105512380Y54868572D01*
X105512380Y55059048D01*
X105464761Y55154286D01*
X105417142Y55201905D01*
X105321904Y55249524D01*
X104512380Y55249524D01*
X104607619Y55678096D02*
X104560000Y55725715D01*
X104512380Y55820953D01*
X104512380Y56059048D01*
X104560000Y56154286D01*
X104607619Y56201905D01*
X104702857Y56249524D01*
X104798095Y56249524D01*
X104940952Y56201905D01*
X105512380Y55630477D01*
X105512380Y56249524D01*
D11*
%TO.C,AmOgUs*%
X35342285Y78994000D02*
X36068000Y78994000D01*
X35197142Y78558572D02*
X35705142Y80082572D01*
X36213142Y78558572D01*
X36721142Y78558572D02*
X36721142Y79574572D01*
X36721142Y79429429D02*
X36793714Y79502000D01*
X36938857Y79574572D01*
X37156571Y79574572D01*
X37301714Y79502000D01*
X37374285Y79356858D01*
X37374285Y78558572D01*
X37374285Y79356858D02*
X37446857Y79502000D01*
X37592000Y79574572D01*
X37809714Y79574572D01*
X37954857Y79502000D01*
X38027428Y79356858D01*
X38027428Y78558572D01*
X39043428Y80082572D02*
X39333714Y80082572D01*
X39478857Y80010000D01*
X39624000Y79864858D01*
X39696571Y79574572D01*
X39696571Y79066572D01*
X39624000Y78776286D01*
X39478857Y78631143D01*
X39333714Y78558572D01*
X39043428Y78558572D01*
X38898285Y78631143D01*
X38753142Y78776286D01*
X38680571Y79066572D01*
X38680571Y79574572D01*
X38753142Y79864858D01*
X38898285Y80010000D01*
X39043428Y80082572D01*
X41002857Y79574572D02*
X41002857Y78340858D01*
X40930285Y78195715D01*
X40857714Y78123143D01*
X40712571Y78050572D01*
X40494857Y78050572D01*
X40349714Y78123143D01*
X41002857Y78631143D02*
X40857714Y78558572D01*
X40567428Y78558572D01*
X40422285Y78631143D01*
X40349714Y78703715D01*
X40277142Y78848858D01*
X40277142Y79284286D01*
X40349714Y79429429D01*
X40422285Y79502000D01*
X40567428Y79574572D01*
X40857714Y79574572D01*
X41002857Y79502000D01*
X41728571Y80082572D02*
X41728571Y78848858D01*
X41801142Y78703715D01*
X41873714Y78631143D01*
X42018857Y78558572D01*
X42309142Y78558572D01*
X42454285Y78631143D01*
X42526857Y78703715D01*
X42599428Y78848858D01*
X42599428Y80082572D01*
X43252571Y78631143D02*
X43397714Y78558572D01*
X43688000Y78558572D01*
X43833142Y78631143D01*
X43905714Y78776286D01*
X43905714Y78848858D01*
X43833142Y78994000D01*
X43688000Y79066572D01*
X43470285Y79066572D01*
X43325142Y79139143D01*
X43252571Y79284286D01*
X43252571Y79356858D01*
X43325142Y79502000D01*
X43470285Y79574572D01*
X43688000Y79574572D01*
X43833142Y79502000D01*
D10*
%TO.C,R8*%
X124063333Y63997620D02*
X123730000Y64473810D01*
X123491904Y63997620D02*
X123491904Y64997620D01*
X123872857Y64997620D01*
X123968095Y64950000D01*
X124015714Y64902381D01*
X124063333Y64807143D01*
X124063333Y64664286D01*
X124015714Y64569048D01*
X123968095Y64521429D01*
X123872857Y64473810D01*
X123491904Y64473810D01*
X124634761Y64569048D02*
X124539523Y64616667D01*
X124491904Y64664286D01*
X124444285Y64759524D01*
X124444285Y64807143D01*
X124491904Y64902381D01*
X124539523Y64950000D01*
X124634761Y64997620D01*
X124825238Y64997620D01*
X124920476Y64950000D01*
X124968095Y64902381D01*
X125015714Y64807143D01*
X125015714Y64759524D01*
X124968095Y64664286D01*
X124920476Y64616667D01*
X124825238Y64569048D01*
X124634761Y64569048D01*
X124539523Y64521429D01*
X124491904Y64473810D01*
X124444285Y64378572D01*
X124444285Y64188096D01*
X124491904Y64092858D01*
X124539523Y64045239D01*
X124634761Y63997620D01*
X124825238Y63997620D01*
X124920476Y64045239D01*
X124968095Y64092858D01*
X125015714Y64188096D01*
X125015714Y64378572D01*
X124968095Y64473810D01*
X124920476Y64521429D01*
X124825238Y64569048D01*
%TO.C,R12*%
X88361780Y43832543D02*
X87885590Y43499210D01*
X88361780Y43261115D02*
X87361780Y43261115D01*
X87361780Y43642067D01*
X87409400Y43737305D01*
X87457019Y43784924D01*
X87552257Y43832543D01*
X87695114Y43832543D01*
X87790352Y43784924D01*
X87837971Y43737305D01*
X87885590Y43642067D01*
X87885590Y43261115D01*
X88361780Y44784924D02*
X88361780Y44213496D01*
X88361780Y44499210D02*
X87361780Y44499210D01*
X87504638Y44403972D01*
X87599876Y44308734D01*
X87647495Y44213496D01*
X87457019Y45165877D02*
X87409400Y45213496D01*
X87361780Y45308734D01*
X87361780Y45546829D01*
X87409400Y45642067D01*
X87457019Y45689686D01*
X87552257Y45737305D01*
X87647495Y45737305D01*
X87790352Y45689686D01*
X88361780Y45118258D01*
X88361780Y45737305D01*
D12*
%TO.C,SW4*%
X58330000Y40150000D02*
X57330000Y40150000D01*
X50130000Y42150000D02*
X50130000Y44750000D01*
X56330000Y42150000D02*
X56330000Y44750000D01*
X50230000Y46700000D02*
X56230000Y46700000D01*
X58330000Y41150000D02*
X58330000Y40150000D01*
X50330000Y40200000D02*
X56130000Y40200000D01*
%TO.C,Y1*%
X73530000Y66000000D02*
X73530000Y60900000D01*
X73530000Y60900000D02*
X86130000Y60900000D01*
X86130000Y66000000D02*
X73530000Y66000000D01*
%TO.C,Y2*%
X67180000Y111650000D02*
X67180000Y112750000D01*
X65330000Y110250000D02*
X67130000Y110250000D01*
X65280000Y111650000D02*
X65280000Y112750000D01*
%TO.C,TP14*%
X116897000Y39446200D02*
G75*
G03*
X116897000Y39446200I-1200000J0D01*
G01*
%TO.C,U1*%
X70700000Y26000000D02*
X70700000Y26270000D01*
X70700000Y26270000D02*
X73530000Y26270000D01*
X70700000Y32630000D02*
X71800000Y32630000D01*
X70700000Y32900000D02*
X70700000Y32630000D01*
X69200000Y26000000D02*
X70700000Y26000000D01*
X69200000Y32900000D02*
X70700000Y32900000D01*
%TO.C,TP9*%
X130740000Y66040000D02*
G75*
G03*
X130740000Y66040000I-1200000J0D01*
G01*
%TO.C,TP11*%
X48190000Y106680000D02*
G75*
G03*
X48190000Y106680000I-1200000J0D01*
G01*
%TO.C,Q1*%
X129810000Y73210000D02*
X129810000Y71750000D01*
X129810000Y73210000D02*
X128880000Y73210000D01*
X126650000Y73210000D02*
X126650000Y71050000D01*
X126650000Y73210000D02*
X127580000Y73210000D01*
%TO.C,SW1*%
X108130000Y64750000D02*
X109130000Y64750000D01*
X116230000Y58200000D02*
X110230000Y58200000D01*
X108130000Y63750000D02*
X108130000Y64750000D01*
X116130000Y64700000D02*
X110330000Y64700000D01*
X110130000Y62750000D02*
X110130000Y60150000D01*
X116330000Y62750000D02*
X116330000Y60150000D01*
%TO.C,TP15*%
X65970000Y106680000D02*
G75*
G03*
X65970000Y106680000I-1200000J0D01*
G01*
%TO.C,R9*%
X86955000Y119600000D02*
X83505000Y119600000D01*
X86955000Y115300000D02*
X83505000Y115300000D01*
X83476973Y119582144D02*
G75*
G03*
X83505000Y115300000I1378027J-2132144D01*
G01*
X86980476Y115315612D02*
G75*
G03*
X86955000Y119600000I-1325476J2134388D01*
G01*
%TO.C,TP5*%
X85020000Y109220000D02*
G75*
G03*
X85020000Y109220000I-1200000J0D01*
G01*
%TO.C,TP1*%
X139630000Y78740000D02*
G75*
G03*
X139630000Y78740000I-1200000J0D01*
G01*
%TO.C,TP12*%
X82632400Y42951400D02*
G75*
G03*
X82632400Y42951400I-1200000J0D01*
G01*
%TO.C,D1*%
X74579600Y46018500D02*
X76499600Y46018500D01*
X74579600Y48703500D02*
X74579600Y46018500D01*
X76499600Y46018500D02*
X76499600Y48703500D01*
%TO.C,TP8*%
X110420000Y45720000D02*
G75*
G03*
X110420000Y45720000I-1200000J0D01*
G01*
%TO.C,TP7*%
X74860000Y39370000D02*
G75*
G03*
X74860000Y39370000I-1200000J0D01*
G01*
%TO.C,J2*%
X91550000Y63120000D02*
X91550000Y64450000D01*
X94150000Y65780000D02*
X106910000Y65780000D01*
X94150000Y63120000D02*
X106910000Y63120000D01*
X94150000Y63120000D02*
X94150000Y65780000D01*
X92880000Y63120000D02*
X91550000Y63120000D01*
X106910000Y63120000D02*
X106910000Y65780000D01*
%TO.C,U3*%
X72240000Y114580000D02*
X70590000Y114580000D01*
X75890000Y104300000D02*
X75890000Y114580000D01*
X70590000Y114580000D02*
X70590000Y104300000D01*
X70590000Y104300000D02*
X75890000Y104300000D01*
X75890000Y114580000D02*
X74240000Y114580000D01*
X72240000Y114580000D02*
G75*
G03*
X74240000Y114580000I1000000J0D01*
G01*
%TO.C,SW3*%
X118330000Y43200000D02*
X124130000Y43200000D01*
X124330000Y45150000D02*
X124330000Y47750000D01*
X118130000Y45150000D02*
X118130000Y47750000D01*
X118230000Y49700000D02*
X124230000Y49700000D01*
X126330000Y43150000D02*
X125330000Y43150000D01*
X126330000Y44150000D02*
X126330000Y43150000D01*
%TO.C,TP16*%
X69780000Y120650000D02*
G75*
G03*
X69780000Y120650000I-1200000J0D01*
G01*
%TO.C,TP2*%
X64700000Y55880000D02*
G75*
G03*
X64700000Y55880000I-1200000J0D01*
G01*
%TO.C,TP10*%
X93910000Y114300000D02*
G75*
G03*
X93910000Y114300000I-1200000J0D01*
G01*
%TO.C,J3*%
X107625000Y54975000D02*
X107625000Y56305000D01*
X107625000Y48565000D02*
X112825000Y48565000D01*
X112825000Y56305000D02*
X112825000Y48565000D01*
X110225000Y53705000D02*
X110225000Y56305000D01*
X110225000Y56305000D02*
X112825000Y56305000D01*
X107625000Y53705000D02*
X110225000Y53705000D01*
X107625000Y56305000D02*
X108955000Y56305000D01*
X107625000Y53705000D02*
X107625000Y48565000D01*
%TO.C,TP6*%
X123120000Y107950000D02*
G75*
G03*
X123120000Y107950000I-1200000J0D01*
G01*
%TO.C,TP3*%
X76130000Y22860000D02*
G75*
G03*
X76130000Y22860000I-1200000J0D01*
G01*
%TO.C,SW2*%
X43230000Y58700000D02*
X49230000Y58700000D01*
X51330000Y53150000D02*
X51330000Y52150000D01*
X49330000Y54150000D02*
X49330000Y56750000D01*
X43330000Y52200000D02*
X49130000Y52200000D01*
X43130000Y54150000D02*
X43130000Y56750000D01*
X51330000Y52150000D02*
X50330000Y52150000D01*
%TO.C,SW5*%
X123130000Y55150000D02*
X123130000Y57750000D01*
X123230000Y59700000D02*
X129230000Y59700000D01*
X123330000Y53200000D02*
X129130000Y53200000D01*
X131330000Y54150000D02*
X131330000Y53150000D01*
X129330000Y55150000D02*
X129330000Y57750000D01*
X131330000Y53150000D02*
X130330000Y53150000D01*
%TO.C,DS1*%
X48369400Y97625300D02*
X121369400Y97625300D01*
X117569400Y92125300D02*
X117569400Y78125300D01*
X45229400Y66985300D02*
X125509400Y66985300D01*
X45229400Y103265300D02*
X45229400Y66985300D01*
X117070060Y77625300D02*
X53569400Y77625300D01*
X51869400Y103625300D02*
X54869400Y103625300D01*
X125509400Y66985300D02*
X125509400Y103265300D01*
X121369400Y72625300D02*
X48369400Y72625300D01*
X53569400Y92625300D02*
X117069400Y92625300D01*
X45239400Y103265300D02*
X46029400Y103265300D01*
X121369400Y97625300D02*
X121369400Y72625300D01*
X125509400Y103265300D02*
X46029400Y103265300D01*
X53069680Y78125980D02*
X53069680Y92125300D01*
X48369400Y72625300D02*
X48369400Y97625300D01*
X53069680Y78125980D02*
G75*
G03*
X53570060Y77625600I500380J0D01*
G01*
X117070060Y77625660D02*
G75*
G03*
X117570440Y78125980I40J500340D01*
G01*
X117569400Y92125300D02*
G75*
G03*
X117069400Y92625300I-500000J0D01*
G01*
X53570060Y92626840D02*
G75*
G03*
X53069680Y92126460I0J-500380D01*
G01*
%TO.C,U2*%
X68380000Y52790000D02*
X104060000Y52790000D01*
X104060000Y58090000D02*
X68380000Y58090000D01*
X68380000Y58090000D02*
X68380000Y52790000D01*
X104060000Y52790000D02*
X104060000Y54440000D01*
X104060000Y56440000D02*
X104060000Y58090000D01*
X104060000Y56440000D02*
G75*
G03*
X104060000Y54440000I0J-1000000D01*
G01*
%TO.C,AmOgUs*%
G36*
X38331053Y81014886D02*
G01*
X38279589Y80987014D01*
X38272392Y80983556D01*
X38155286Y80927290D01*
X38020469Y80868657D01*
X37886307Y80816352D01*
X37861769Y80808181D01*
X37763971Y80775613D01*
X37713038Y80761781D01*
X37560026Y80734831D01*
X37363649Y80715904D01*
X37321195Y80713851D01*
X37138657Y80705023D01*
X36899795Y80702210D01*
X36661814Y80707485D01*
X36439460Y80720872D01*
X36247482Y80742393D01*
X36151930Y80759450D01*
X35973996Y80802553D01*
X35925972Y80816493D01*
X35805422Y80851486D01*
X37847104Y80851486D01*
X37861769Y80836821D01*
X37876434Y80851486D01*
X37861769Y80866151D01*
X37847104Y80851486D01*
X35805422Y80851486D01*
X35797533Y80853776D01*
X35779321Y80859892D01*
X35630822Y80909758D01*
X35603339Y80920364D01*
X35515348Y80954320D01*
X35482146Y80967133D01*
X35410783Y80999447D01*
X35359786Y81022539D01*
X35351149Y81027467D01*
X38257727Y81027467D01*
X38272392Y81012802D01*
X38287057Y81027467D01*
X38272392Y81042133D01*
X38257727Y81027467D01*
X35351149Y81027467D01*
X35339367Y81034189D01*
X35299741Y81056798D01*
X38316388Y81056798D01*
X38331053Y81042133D01*
X38345718Y81056798D01*
X38331053Y81071463D01*
X38316388Y81056798D01*
X35299741Y81056798D01*
X35280706Y81067659D01*
X35272023Y81072613D01*
X35257363Y81086128D01*
X35324702Y81086128D01*
X35339367Y81071463D01*
X35354032Y81086128D01*
X35339367Y81100793D01*
X35324702Y81086128D01*
X35257363Y81086128D01*
X35227140Y81113991D01*
X35227029Y81115458D01*
X35266041Y81115458D01*
X35280706Y81100793D01*
X35295371Y81115458D01*
X38404378Y81115458D01*
X38419044Y81100793D01*
X38433709Y81115458D01*
X38419044Y81130123D01*
X38404378Y81115458D01*
X35295371Y81115458D01*
X35280706Y81130123D01*
X35266041Y81115458D01*
X35227029Y81115458D01*
X35225492Y81135699D01*
X35228013Y81154576D01*
X35222046Y81151905D01*
X35210623Y81146792D01*
X35163898Y81146190D01*
X35146811Y81153672D01*
X35099103Y81174564D01*
X35096102Y81176477D01*
X35031693Y81224095D01*
X35017455Y81236241D01*
X35090060Y81236241D01*
X35110708Y81209475D01*
X35119390Y81203449D01*
X35146811Y81195975D01*
X35148720Y81199987D01*
X35128072Y81226753D01*
X35119390Y81232779D01*
X35091969Y81240253D01*
X35090060Y81236241D01*
X35017455Y81236241D01*
X35016734Y81236856D01*
X35002069Y81249366D01*
X38609913Y81249366D01*
X38625101Y81256649D01*
X38646353Y81273033D01*
X38691952Y81315844D01*
X38691754Y81334954D01*
X38686607Y81335435D01*
X38662124Y81315392D01*
X38635279Y81284107D01*
X38609913Y81249366D01*
X35002069Y81249366D01*
X34954242Y81290164D01*
X34952862Y81291440D01*
X35002069Y81291440D01*
X35016734Y81276775D01*
X35031399Y81291440D01*
X35016734Y81306105D01*
X35002069Y81291440D01*
X34952862Y81291440D01*
X34884114Y81355024D01*
X34870463Y81367649D01*
X34787070Y81449510D01*
X34710779Y81528710D01*
X34703950Y81536307D01*
X34738097Y81536307D01*
X34757289Y81508410D01*
X34804218Y81459595D01*
X34811422Y81452756D01*
X34859888Y81410909D01*
X34884114Y81397206D01*
X34884748Y81398535D01*
X34865555Y81426432D01*
X34818626Y81475248D01*
X34811422Y81482086D01*
X34762957Y81523934D01*
X34738730Y81537637D01*
X34738097Y81536307D01*
X34703950Y81536307D01*
X34662473Y81582448D01*
X38972809Y81582448D01*
X38984165Y81589049D01*
X39017693Y81628738D01*
X39065458Y81690254D01*
X39075400Y81713164D01*
X39049802Y81702161D01*
X39014897Y81663434D01*
X38989173Y81619772D01*
X38972809Y81582448D01*
X34662473Y81582448D01*
X34648302Y81598212D01*
X34606355Y81650978D01*
X34591652Y81679971D01*
X34610907Y81678153D01*
X34625307Y81669932D01*
X34645346Y81666435D01*
X34637946Y81683345D01*
X34603466Y81705100D01*
X34590527Y81701496D01*
X34559561Y81712351D01*
X34547450Y81725756D01*
X34516849Y81759625D01*
X34496863Y81790054D01*
X34532785Y81790054D01*
X34547450Y81775389D01*
X34562115Y81790054D01*
X35911307Y81790054D01*
X35925972Y81775389D01*
X35940637Y81790054D01*
X35925972Y81804719D01*
X35911307Y81790054D01*
X34562115Y81790054D01*
X34547450Y81804719D01*
X34532785Y81790054D01*
X34496863Y81790054D01*
X34488789Y81802346D01*
X34473456Y81825691D01*
X34462152Y81848715D01*
X35764656Y81848715D01*
X35779321Y81834049D01*
X35793986Y81848715D01*
X35779321Y81863380D01*
X35764656Y81848715D01*
X34462152Y81848715D01*
X34447751Y81878045D01*
X34474124Y81878045D01*
X34488789Y81863380D01*
X34503455Y81878045D01*
X34488789Y81892710D01*
X34474124Y81878045D01*
X34447751Y81878045D01*
X34440446Y81892924D01*
X34430477Y81936705D01*
X35588674Y81936705D01*
X35603339Y81922040D01*
X35618004Y81936705D01*
X35603339Y81951370D01*
X35588674Y81936705D01*
X34430477Y81936705D01*
X34428884Y81943699D01*
X34431883Y81954209D01*
X34437040Y81976000D01*
X34419643Y81968619D01*
X34391833Y81982767D01*
X34383001Y81995366D01*
X35500683Y81995366D01*
X35515348Y81980701D01*
X35530013Y81995366D01*
X35515348Y82010031D01*
X35500683Y81995366D01*
X34383001Y81995366D01*
X34350341Y82041955D01*
X34310954Y82116149D01*
X35354032Y82116149D01*
X35374680Y82089382D01*
X35383362Y82083357D01*
X35410783Y82075883D01*
X35412692Y82079895D01*
X35392045Y82106661D01*
X35383362Y82112687D01*
X35355942Y82120161D01*
X35354032Y82116149D01*
X34310954Y82116149D01*
X34300549Y82135748D01*
X34258429Y82230008D01*
X35266041Y82230008D01*
X35280706Y82215343D01*
X35295371Y82230008D01*
X35280706Y82244673D01*
X35266041Y82230008D01*
X34258429Y82230008D01*
X34247838Y82253709D01*
X34223309Y82317999D01*
X35207381Y82317999D01*
X35222046Y82303334D01*
X35236711Y82317999D01*
X35222046Y82332664D01*
X35207381Y82317999D01*
X34223309Y82317999D01*
X34197592Y82385403D01*
X34183896Y82425746D01*
X34165769Y82467157D01*
X34162607Y82474381D01*
X34127267Y82521638D01*
X34115149Y82532819D01*
X34084112Y82561458D01*
X34069507Y82574934D01*
X34051784Y82588295D01*
X34019844Y82612373D01*
X33980956Y82641689D01*
X33955281Y82659306D01*
X34128386Y82659306D01*
X34134863Y82606177D01*
X34146551Y82589845D01*
X34165769Y82582233D01*
X34160177Y82625215D01*
X34159375Y82628317D01*
X34141981Y82667632D01*
X34128386Y82659306D01*
X33955281Y82659306D01*
X33853246Y82729319D01*
X33805326Y82761265D01*
X33774118Y82784079D01*
X34097439Y82784079D01*
X34102125Y82767118D01*
X34115149Y82756008D01*
X34119846Y82784839D01*
X34114453Y82822880D01*
X34104441Y82823334D01*
X34097439Y82784079D01*
X33774118Y82784079D01*
X33550271Y82947719D01*
X33542240Y82954543D01*
X34069532Y82954543D01*
X34073406Y82941267D01*
X34084112Y82937582D01*
X34088200Y82977929D01*
X34083591Y83019567D01*
X34073406Y83014592D01*
X34069532Y82954543D01*
X33542240Y82954543D01*
X33289246Y83169502D01*
X33268439Y83189511D01*
X34038721Y83189511D01*
X34043283Y83161243D01*
X34051784Y83152115D01*
X34056412Y83192671D01*
X34056696Y83212571D01*
X34053638Y83265932D01*
X34046025Y83272221D01*
X34043283Y83263899D01*
X34038721Y83189511D01*
X33268439Y83189511D01*
X33035660Y83413367D01*
X32909393Y83550466D01*
X34008243Y83550466D01*
X34013124Y83484280D01*
X34019844Y83463926D01*
X34024462Y83495626D01*
X34025782Y83549869D01*
X34023918Y83619427D01*
X34018690Y83644852D01*
X34013524Y83630931D01*
X34008243Y83550466D01*
X32909393Y83550466D01*
X32802922Y83666070D01*
X32604441Y83914365D01*
X32529903Y84021088D01*
X32254203Y84489118D01*
X32024152Y84991557D01*
X31841812Y85523553D01*
X31763551Y85822964D01*
X31712905Y86048048D01*
X31672610Y86250457D01*
X31641551Y86441689D01*
X31618612Y86633240D01*
X31602679Y86836608D01*
X31592636Y87063289D01*
X31587368Y87324783D01*
X31585760Y87632584D01*
X31585756Y87656105D01*
X31586786Y87947191D01*
X31590557Y88189762D01*
X31598161Y88393940D01*
X31610692Y88569848D01*
X31629243Y88727607D01*
X31654907Y88877339D01*
X31688776Y89029168D01*
X31731944Y89193215D01*
X31763862Y89305514D01*
X31916320Y89735906D01*
X32113198Y90128175D01*
X32354170Y90481921D01*
X32638906Y90796744D01*
X32967078Y91072246D01*
X33338358Y91308025D01*
X33463171Y91373497D01*
X33741549Y91499736D01*
X34064952Y91624240D01*
X34419787Y91743043D01*
X34792461Y91852181D01*
X35169381Y91947688D01*
X35536954Y92025598D01*
X35881588Y92081946D01*
X35900130Y92084409D01*
X36050270Y92104086D01*
X36070631Y92328776D01*
X36090991Y92499368D01*
X36122240Y92695393D01*
X36161140Y92901246D01*
X36204452Y93101323D01*
X36248936Y93280020D01*
X36291353Y93421731D01*
X36305722Y93461275D01*
X36345814Y93566855D01*
X36379483Y93660555D01*
X36396581Y93712802D01*
X36438006Y93824046D01*
X36501362Y93958966D01*
X36576447Y94098775D01*
X36653061Y94224684D01*
X36721001Y94317903D01*
X36731578Y94329821D01*
X36782723Y94378771D01*
X36842798Y94421235D01*
X36920226Y94460540D01*
X37023429Y94500013D01*
X37160830Y94542980D01*
X37340851Y94592769D01*
X37506816Y94636053D01*
X37742506Y94689554D01*
X38028340Y94742739D01*
X38355802Y94794737D01*
X38716377Y94844675D01*
X39101550Y94891682D01*
X39502807Y94934886D01*
X39911632Y94973415D01*
X40319512Y95006398D01*
X40717930Y95032962D01*
X41098371Y95052237D01*
X41452322Y95063349D01*
X41704032Y95065790D01*
X42326101Y95055876D01*
X42895451Y95028207D01*
X43415396Y94982384D01*
X43889252Y94918007D01*
X44320334Y94834676D01*
X44711957Y94731991D01*
X44859476Y94685013D01*
X45106341Y94602084D01*
X45114293Y94007210D01*
X45122244Y93412337D01*
X45013160Y93508113D01*
X44846168Y93627511D01*
X44631515Y93733599D01*
X44367458Y93826841D01*
X44052254Y93907702D01*
X43684159Y93976648D01*
X43261430Y94034144D01*
X42906572Y94070113D01*
X42743215Y94080924D01*
X42528675Y94089399D01*
X42270381Y94095624D01*
X41975759Y94099682D01*
X41652239Y94101656D01*
X41307248Y94101633D01*
X40948214Y94099695D01*
X40582565Y94095927D01*
X40217729Y94090413D01*
X39861134Y94083238D01*
X39520207Y94074485D01*
X39202377Y94064239D01*
X38915072Y94052585D01*
X38665720Y94039605D01*
X38461748Y94025385D01*
X38389713Y94018897D01*
X38082827Y93977747D01*
X37828590Y93919054D01*
X37623173Y93841121D01*
X37462744Y93742250D01*
X37343473Y93620743D01*
X37286866Y93530114D01*
X37233241Y93396314D01*
X37187648Y93227172D01*
X37152421Y93039412D01*
X37129888Y92849758D01*
X37122383Y92674934D01*
X37132237Y92531664D01*
X37141481Y92487232D01*
X37161477Y92419893D01*
X37185476Y92368138D01*
X37220601Y92330414D01*
X37273977Y92305172D01*
X37352729Y92290858D01*
X37463981Y92285923D01*
X37614857Y92288815D01*
X37812482Y92297983D01*
X37970817Y92306653D01*
X38104986Y92312139D01*
X38292479Y92316784D01*
X38527966Y92320606D01*
X38806118Y92323621D01*
X39121605Y92325847D01*
X39469097Y92327301D01*
X39843264Y92327999D01*
X40238776Y92327960D01*
X40650303Y92327201D01*
X41072516Y92325738D01*
X41500085Y92323589D01*
X41927679Y92320771D01*
X42349969Y92317302D01*
X42761625Y92313198D01*
X43157318Y92308476D01*
X43531717Y92303155D01*
X43879492Y92297251D01*
X44195314Y92290781D01*
X44395083Y92285910D01*
X45121007Y92266788D01*
X45121007Y91247688D01*
X44893697Y91263267D01*
X44785213Y91269426D01*
X44621785Y91276884D01*
X44407111Y91285517D01*
X44144889Y91295199D01*
X43838818Y91305808D01*
X43492597Y91317216D01*
X43109924Y91329302D01*
X42694499Y91341938D01*
X42250018Y91355002D01*
X41780182Y91368368D01*
X41748027Y91369267D01*
X41455817Y91376028D01*
X41135109Y91380962D01*
X40793442Y91384132D01*
X40438352Y91385600D01*
X40077379Y91385428D01*
X39718060Y91383680D01*
X39367933Y91380419D01*
X39034535Y91375706D01*
X38725405Y91369606D01*
X38448081Y91362179D01*
X38210099Y91353490D01*
X38018999Y91343600D01*
X37935094Y91337547D01*
X37796900Y91323946D01*
X37617338Y91303087D01*
X37405951Y91276358D01*
X37172277Y91245146D01*
X36925856Y91210837D01*
X36676230Y91174818D01*
X36432937Y91138477D01*
X36205519Y91103200D01*
X36003514Y91070374D01*
X35836463Y91041387D01*
X35713906Y91017624D01*
X35676665Y91009213D01*
X35523500Y90973803D01*
X35355143Y90937750D01*
X35206361Y90908480D01*
X35197545Y90906872D01*
X35023293Y90869315D01*
X34814319Y90815043D01*
X34590065Y90749865D01*
X34369972Y90679591D01*
X34173483Y90610031D01*
X34078166Y90572373D01*
X33862978Y90461648D01*
X33646463Y90313060D01*
X33450135Y90142778D01*
X33326633Y90007522D01*
X33216521Y89850062D01*
X33100504Y89647776D01*
X32984759Y89413238D01*
X32875463Y89159024D01*
X32778794Y88897709D01*
X32772917Y88880248D01*
X32636282Y88382261D01*
X32557904Y87881589D01*
X32537562Y87380134D01*
X32575033Y86879801D01*
X32670094Y86382491D01*
X32822523Y85890108D01*
X33032096Y85404555D01*
X33220229Y85056885D01*
X33307576Y84915978D01*
X33414231Y84755355D01*
X33531199Y84587499D01*
X33649482Y84424893D01*
X33760083Y84280019D01*
X33854006Y84165359D01*
X33897037Y84117885D01*
X33952348Y84036296D01*
X33983549Y83945293D01*
X33984013Y83941904D01*
X33987683Y83922645D01*
X33986939Y83954861D01*
X33982059Y84031552D01*
X33978654Y84077814D01*
X33971532Y84207435D01*
X33966167Y84379024D01*
X33962490Y84583872D01*
X33960428Y84813270D01*
X33960115Y84962004D01*
X34930212Y84962004D01*
X34931500Y84651870D01*
X34936720Y84351507D01*
X34945875Y84072266D01*
X34958970Y83825499D01*
X34976008Y83622554D01*
X34981797Y83572642D01*
X35027235Y83241620D01*
X35074661Y82963069D01*
X35126293Y82730799D01*
X35184351Y82538620D01*
X35251054Y82380342D01*
X35328620Y82249775D01*
X35419268Y82140730D01*
X35525217Y82047017D01*
X35530013Y82043341D01*
X35600922Y81985824D01*
X35646817Y81941904D01*
X35657111Y81925044D01*
X35677763Y81909412D01*
X35715772Y81902924D01*
X35776960Y81890634D01*
X35869886Y81863403D01*
X35949820Y81835955D01*
X36123030Y81785676D01*
X36342321Y81743045D01*
X36595425Y81709673D01*
X36870075Y81687174D01*
X37154003Y81677161D01*
X37157975Y81677117D01*
X37321195Y81675769D01*
X37439176Y81677146D01*
X37525338Y81683281D01*
X37593100Y81696209D01*
X37655880Y81717965D01*
X37685199Y81731394D01*
X39075493Y81731394D01*
X39135894Y81800636D01*
X39184820Y81861604D01*
X39194616Y81889242D01*
X39185003Y81892710D01*
X39163714Y81870493D01*
X39127366Y81816563D01*
X39124602Y81812052D01*
X39075493Y81731394D01*
X37685199Y81731394D01*
X37727096Y81750584D01*
X37765139Y81769186D01*
X37972465Y81903249D01*
X38012493Y81943259D01*
X39210950Y81943259D01*
X39212265Y81924063D01*
X39238538Y81953975D01*
X39267510Y82002698D01*
X39300784Y82065343D01*
X39310993Y82091965D01*
X39303332Y82097948D01*
X39299704Y82098022D01*
X39278325Y82074831D01*
X39244565Y82018181D01*
X39240291Y82010031D01*
X39210950Y81943259D01*
X38012493Y81943259D01*
X38162705Y82093404D01*
X38196889Y82142017D01*
X39313616Y82142017D01*
X39328281Y82127352D01*
X39342947Y82142017D01*
X39328281Y82156682D01*
X39313616Y82142017D01*
X38196889Y82142017D01*
X38238138Y82200678D01*
X39343845Y82200678D01*
X39355948Y82195431D01*
X39372277Y82215343D01*
X39397096Y82268812D01*
X39400709Y82288668D01*
X39388606Y82293915D01*
X39372277Y82274003D01*
X39347458Y82220534D01*
X39343845Y82200678D01*
X38238138Y82200678D01*
X38335839Y82339621D01*
X38339818Y82347329D01*
X39401607Y82347329D01*
X39416272Y82332664D01*
X39430937Y82347329D01*
X39416272Y82361994D01*
X39401607Y82347329D01*
X38339818Y82347329D01*
X38370096Y82405989D01*
X39430937Y82405989D01*
X39445602Y82391324D01*
X39460268Y82405989D01*
X39445602Y82420655D01*
X39430937Y82405989D01*
X38370096Y82405989D01*
X38491845Y82641867D01*
X38630702Y83000113D01*
X38650500Y83060068D01*
X38723692Y83310726D01*
X38794223Y83596534D01*
X38856991Y83894035D01*
X38906893Y84179771D01*
X38929261Y84341786D01*
X38941153Y84485956D01*
X38948525Y84673818D01*
X38951641Y84893178D01*
X38950763Y85131845D01*
X38946155Y85377625D01*
X38938080Y85618326D01*
X38926802Y85841755D01*
X38912583Y86035719D01*
X38895687Y86188027D01*
X38888413Y86233588D01*
X38800782Y86623501D01*
X38687183Y86962392D01*
X38545702Y87252737D01*
X38374428Y87497016D01*
X38171448Y87697705D01*
X37934850Y87857283D01*
X37662720Y87978229D01*
X37503954Y88027372D01*
X37389964Y88054410D01*
X37274696Y88072585D01*
X37142355Y88083385D01*
X36977145Y88088302D01*
X36849875Y88089048D01*
X36515128Y88077771D01*
X36228884Y88042678D01*
X35985254Y87981927D01*
X35778351Y87893675D01*
X35602288Y87776079D01*
X35480431Y87660454D01*
X35362332Y87516840D01*
X35264251Y87362869D01*
X35183150Y87190004D01*
X35115991Y86989711D01*
X35059736Y86753453D01*
X35011347Y86472694D01*
X34982634Y86261990D01*
X34964313Y86073253D01*
X34949907Y85837535D01*
X34939419Y85566188D01*
X34932853Y85270561D01*
X34930212Y84962004D01*
X33960115Y84962004D01*
X33959912Y85058511D01*
X33960869Y85310886D01*
X33963230Y85561686D01*
X33966922Y85802203D01*
X33971876Y86023728D01*
X33978019Y86217553D01*
X33985281Y86374969D01*
X33993591Y86487269D01*
X33998624Y86526890D01*
X34078408Y86927278D01*
X34176632Y87278629D01*
X34296815Y87588635D01*
X34442477Y87864990D01*
X34617139Y88115389D01*
X34824321Y88347524D01*
X34837738Y88360915D01*
X35065986Y88564244D01*
X35304395Y88728413D01*
X35559545Y88855390D01*
X35838016Y88947142D01*
X36146390Y89005635D01*
X36491247Y89032837D01*
X36879167Y89030715D01*
X37049496Y89021994D01*
X37451783Y88989026D01*
X37802138Y88943042D01*
X38106103Y88882778D01*
X38369218Y88806967D01*
X38597022Y88714345D01*
X38745326Y88634717D01*
X38968647Y88467738D01*
X39172433Y88248500D01*
X39354542Y87980761D01*
X39512834Y87668284D01*
X39645168Y87314831D01*
X39749403Y86924161D01*
X39767215Y86839278D01*
X39815802Y86571225D01*
X39852211Y86307048D01*
X39877246Y86034697D01*
X39891713Y85742128D01*
X39896418Y85417291D01*
X39892166Y85048141D01*
X39890854Y84990233D01*
X39873243Y84521447D01*
X39843293Y84101590D01*
X39799793Y83721997D01*
X39741536Y83374002D01*
X39667310Y83048940D01*
X39576992Y82741463D01*
X39540693Y82624383D01*
X39514931Y82529402D01*
X39502976Y82469320D01*
X39503845Y82455291D01*
X39544863Y82441996D01*
X39637138Y82428245D01*
X39773273Y82414465D01*
X39945872Y82401084D01*
X40147538Y82388531D01*
X40370873Y82377234D01*
X40608482Y82367620D01*
X40852967Y82360118D01*
X41096931Y82355157D01*
X41264078Y82353420D01*
X41545060Y82352884D01*
X41793947Y82355325D01*
X42022075Y82361574D01*
X42240780Y82372463D01*
X42461396Y82388825D01*
X42695259Y82411491D01*
X42953705Y82441293D01*
X43248068Y82479063D01*
X43566503Y82522418D01*
X43768983Y82549214D01*
X43984885Y82575640D01*
X44193696Y82599322D01*
X44374902Y82617884D01*
X44446411Y82624308D01*
X44604159Y82637862D01*
X44756483Y82651524D01*
X44885205Y82663630D01*
X44967023Y82671948D01*
X45121007Y82688848D01*
X45121007Y82231198D01*
X45119664Y82044067D01*
X45115319Y81909480D01*
X45107502Y81821378D01*
X45095738Y81773699D01*
X45084344Y81760920D01*
X45030632Y81748562D01*
X44928684Y81730521D01*
X44788491Y81708208D01*
X44620046Y81683033D01*
X44433342Y81656407D01*
X44238372Y81629742D01*
X44045128Y81604449D01*
X43863603Y81581939D01*
X43703791Y81563622D01*
X43639829Y81556944D01*
X43376655Y81533910D01*
X43069103Y81512527D01*
X42731443Y81493437D01*
X42377951Y81477281D01*
X42022897Y81464700D01*
X41680554Y81456334D01*
X41365196Y81452824D01*
X41319208Y81452756D01*
X41118549Y81454212D01*
X40885354Y81458317D01*
X40630008Y81464674D01*
X40362894Y81472888D01*
X40094398Y81482565D01*
X39834904Y81493307D01*
X39594797Y81504720D01*
X39445602Y81513010D01*
X39416272Y81514640D01*
X39384460Y81516408D01*
X39355948Y81518346D01*
X39328281Y81520227D01*
X39214279Y81527976D01*
X39212265Y81528154D01*
X39115944Y81536677D01*
X39075493Y81540899D01*
X38972809Y81551616D01*
X38903607Y81558838D01*
X38807976Y81454469D01*
X38712346Y81350100D01*
X38822335Y81451177D01*
X38883744Y81502039D01*
X38923667Y81524412D01*
X38932323Y81519769D01*
X38911821Y81486933D01*
X38858335Y81427738D01*
X38783899Y81353439D01*
X38700543Y81275289D01*
X38620301Y81204541D01*
X38609913Y81196228D01*
X38555204Y81152450D01*
X38517285Y81130269D01*
X38515727Y81130123D01*
X38503246Y81149498D01*
X38510006Y81166786D01*
X38515853Y81186962D01*
X38504404Y81179007D01*
X38478704Y81130524D01*
X38477704Y81120347D01*
X38451968Y81088780D01*
X38419044Y81066980D01*
X38382206Y81042589D01*
X38331053Y81014886D01*
G37*
%TD*%
%LPC*%
D13*
%TO.C,H4*%
X30730000Y71450000D03*
%TD*%
D14*
%TO.C,R14*%
X92710000Y46600000D03*
X92710000Y48300000D03*
%TD*%
D15*
%TO.C,SW4*%
X57230000Y41200000D03*
X49230000Y41200000D03*
X57230000Y45700000D03*
X49230000Y45700000D03*
%TD*%
D16*
%TO.C,Y1*%
X75980000Y63450000D03*
X84480000Y63450000D03*
%TD*%
D17*
%TO.C,Y2*%
X66230000Y110950000D03*
X66230000Y113450000D03*
%TD*%
D18*
%TO.C,TP14*%
X115697000Y39446200D03*
%TD*%
D19*
%TO.C,U1*%
X72430000Y27170000D03*
D20*
X66130000Y29450000D03*
D19*
X72430000Y31730000D03*
%TD*%
D14*
%TO.C,R13*%
X71230000Y46600000D03*
X71230000Y48300000D03*
%TD*%
D21*
%TO.C,R1*%
X99380000Y61450000D03*
X101080000Y61450000D03*
%TD*%
%TO.C,C1*%
X103380000Y61450000D03*
X105080000Y61450000D03*
%TD*%
D14*
%TO.C,C6*%
X70230000Y64300000D03*
X70230000Y62600000D03*
%TD*%
D18*
%TO.C,TP9*%
X129540000Y66040000D03*
%TD*%
%TO.C,TP11*%
X46990000Y106680000D03*
%TD*%
D14*
%TO.C,R7*%
X116230000Y54600000D03*
X116230000Y56300000D03*
%TD*%
D22*
%TO.C,Q1*%
X127280000Y71450000D03*
X129180000Y71450000D03*
X128230000Y73450000D03*
%TD*%
D14*
%TO.C,C5*%
X82423000Y47980600D03*
X82423000Y46280600D03*
%TD*%
D15*
%TO.C,SW1*%
X109230000Y63700000D03*
X117230000Y63700000D03*
X109230000Y59200000D03*
X117230000Y59200000D03*
%TD*%
D14*
%TO.C,R3*%
X104230000Y46600000D03*
X104230000Y48300000D03*
%TD*%
D18*
%TO.C,TP15*%
X64770000Y106680000D03*
%TD*%
D23*
%TO.C,R9*%
X86905000Y117450000D03*
X83505000Y117450000D03*
%TD*%
D18*
%TO.C,TP5*%
X83820000Y109220000D03*
%TD*%
%TO.C,TP1*%
X138430000Y78740000D03*
%TD*%
%TO.C,TP12*%
X81432400Y42951400D03*
%TD*%
D24*
%TO.C,D1*%
X75539600Y46766000D03*
X75539600Y48641000D03*
%TD*%
D21*
%TO.C,R5*%
X132380000Y75450000D03*
X134080000Y75450000D03*
%TD*%
D18*
%TO.C,TP8*%
X109220000Y45720000D03*
%TD*%
%TO.C,TP7*%
X73660000Y39370000D03*
%TD*%
D14*
%TO.C,R6*%
X79248000Y46089200D03*
X79248000Y47789200D03*
%TD*%
%TO.C,R4*%
X100230000Y48300000D03*
X100230000Y46600000D03*
%TD*%
D13*
%TO.C,H3*%
X139730000Y71450000D03*
%TD*%
D14*
%TO.C,C3*%
X77230000Y25600000D03*
X77230000Y27300000D03*
%TD*%
D25*
%TO.C,J2*%
X92880000Y64450000D03*
D26*
X95420000Y64450000D03*
X97960000Y64450000D03*
X100500000Y64450000D03*
X103040000Y64450000D03*
X105580000Y64450000D03*
%TD*%
D13*
%TO.C,H2*%
X85230000Y16950000D03*
%TD*%
D14*
%TO.C,C2*%
X88230000Y63300000D03*
X88230000Y61600000D03*
%TD*%
D27*
%TO.C,U3*%
X69430000Y113250000D03*
D28*
X69430000Y110710000D03*
X69430000Y108170000D03*
X69430000Y105630000D03*
X77050000Y105630000D03*
X77050000Y108170000D03*
X77050000Y110710000D03*
X77050000Y113250000D03*
%TD*%
D13*
%TO.C,H1*%
X85230000Y125950000D03*
%TD*%
D15*
%TO.C,SW3*%
X125230000Y44200000D03*
X117230000Y44200000D03*
X125230000Y48700000D03*
X117230000Y48700000D03*
%TD*%
D14*
%TO.C,R10*%
X97230000Y48300000D03*
X97230000Y46600000D03*
%TD*%
D18*
%TO.C,TP16*%
X68580000Y120650000D03*
%TD*%
D21*
%TO.C,R2*%
X95380000Y61450000D03*
X97080000Y61450000D03*
%TD*%
D18*
%TO.C,TP2*%
X63500000Y55880000D03*
%TD*%
%TO.C,TP10*%
X92710000Y114300000D03*
%TD*%
D25*
%TO.C,J3*%
X108955000Y54975000D03*
D26*
X111495000Y54975000D03*
X108955000Y52435000D03*
X111495000Y52435000D03*
X108955000Y49895000D03*
X111495000Y49895000D03*
%TD*%
D18*
%TO.C,TP6*%
X121920000Y107950000D03*
%TD*%
D14*
%TO.C,R11*%
X67230000Y46600000D03*
X67230000Y48300000D03*
%TD*%
D21*
%TO.C,C4*%
X76380000Y35450000D03*
X78080000Y35450000D03*
%TD*%
D18*
%TO.C,TP3*%
X74930000Y22860000D03*
%TD*%
D15*
%TO.C,SW2*%
X50230000Y53200000D03*
X42230000Y53200000D03*
X50230000Y57700000D03*
X42230000Y57700000D03*
%TD*%
%TO.C,SW5*%
X130230000Y54200000D03*
X122230000Y54200000D03*
X130230000Y58700000D03*
X122230000Y58700000D03*
%TD*%
D29*
%TO.C,DS1*%
X47870300Y100625300D03*
X122869400Y100625300D03*
X122868880Y69624600D03*
X47870300Y69624600D03*
D30*
X53369400Y100625300D03*
D31*
X55909400Y100625300D03*
X58449400Y100625300D03*
X60989400Y100625300D03*
X63529400Y100625300D03*
X66069400Y100625300D03*
X68609400Y100625300D03*
X71149400Y100625300D03*
X73689400Y100625300D03*
X76229400Y100625300D03*
X78769400Y100625300D03*
X81309400Y100625300D03*
X83849400Y100625300D03*
X86389400Y100625300D03*
X88929400Y100625300D03*
X91469400Y100625300D03*
%TD*%
D27*
%TO.C,U2*%
X102730000Y59250000D03*
D28*
X100190000Y59250000D03*
X97650000Y59250000D03*
X95110000Y59250000D03*
X92570000Y59250000D03*
X90030000Y59250000D03*
X87490000Y59250000D03*
X84950000Y59250000D03*
X82410000Y59250000D03*
X79870000Y59250000D03*
X77330000Y59250000D03*
X74790000Y59250000D03*
X72250000Y59250000D03*
X69710000Y59250000D03*
X69710000Y51630000D03*
X72250000Y51630000D03*
X74790000Y51630000D03*
X77330000Y51630000D03*
X79870000Y51630000D03*
X82410000Y51630000D03*
X84950000Y51630000D03*
X87490000Y51630000D03*
X90030000Y51630000D03*
X92570000Y51630000D03*
X95110000Y51630000D03*
X97650000Y51630000D03*
X100190000Y51630000D03*
X102730000Y51630000D03*
%TD*%
D21*
%TO.C,R8*%
X120380000Y64450000D03*
X122080000Y64450000D03*
%TD*%
D14*
%TO.C,R12*%
X87884000Y46902000D03*
X87884000Y48602000D03*
%TD*%
D32*
%TO.C,J1*%
X81730000Y26450000D03*
D33*
X84030000Y31750000D03*
X87730000Y29250000D03*
%TD*%
D34*
%TO.C,BZ1*%
X133230000Y83450000D03*
D18*
X128230000Y83450000D03*
%TD*%
D35*
%TO.C,BT1*%
X93288314Y106553000D03*
D29*
X113778314Y106553000D03*
%TD*%
D36*
%TO.C,RV1*%
X59230000Y110450000D03*
X56690000Y107910000D03*
X54150000Y110450000D03*
%TD*%
M02*
