M48
; DRILL file {KiCad (6.0.5)} date Thu Jul 21 10:01:08 2022
; FORMAT={-:-/ absolute / inch / decimal}
; #@! TF.CreationDate,2022-07-21T10:01:08-05:00
; #@! TF.GenerationSoftware,Kicad,Pcbnew,(6.0.5)
; #@! TF.FileFunction,MixedPlating,1,2
FMAT,2
INCH
; #@! TA.AperFunction,Plated,PTH,ComponentDrill
T1C0.0315
; #@! TA.AperFunction,Plated,PTH,ComponentDrill
T2C0.0394
; #@! TA.AperFunction,Plated,PTH,ComponentDrill
T3C0.0472
; #@! TA.AperFunction,Plated,PTH,ComponentDrill
T4C0.0591
; #@! TA.AperFunction,Plated,PTH,ComponentDrill
T5C0.0984
; #@! TA.AperFunction,NonPlated,NPTH,ComponentDrill
T6C0.1260
%
G90
G05
T1
X2.1319Y4.3484
X2.2319Y4.2484
X2.3319Y4.3484
X2.7335Y4.4587
X2.7335Y4.3587
X2.7335Y4.2587
X2.7335Y4.1587
X2.7445Y2.3327
X2.7445Y2.0327
X2.8445Y2.3327
X2.8445Y2.0327
X2.9445Y2.3327
X2.9445Y2.0327
X3.0335Y4.4587
X3.0335Y4.3587
X3.0335Y4.2587
X3.0335Y4.1587
X3.0445Y2.3327
X3.0445Y2.0327
X3.1445Y2.3327
X3.1445Y2.0327
X3.2445Y2.3327
X3.2445Y2.0327
X3.2876Y4.624
X3.3445Y2.3327
X3.3445Y2.0327
X3.4215Y4.624
X3.4445Y2.3327
X3.4445Y2.0327
X3.5445Y2.3327
X3.5445Y2.0327
X3.6445Y2.3327
X3.6445Y2.0327
X3.7445Y2.3327
X3.7445Y2.0327
X3.8445Y2.3327
X3.8445Y2.0327
X3.9445Y2.3327
X3.9445Y2.0327
X4.0445Y2.3327
X4.0445Y2.0327
T2
X1.85Y4.2
X2.5Y2.2
X2.55Y4.2
X2.7Y4.75
X2.9Y1.55
X2.95Y0.9
X3.206Y1.691
X3.3Y4.3
X3.65Y4.5
X3.6567Y2.5374
X3.7567Y2.5374
X3.8567Y2.5374
X3.9567Y2.5374
X4.0567Y2.5374
X4.1567Y2.5374
X4.2896Y2.1644
X4.2896Y2.0644
X4.2896Y1.9644
X4.3Y1.8
X4.3896Y2.1644
X4.3896Y2.0644
X4.3896Y1.9644
X4.555Y1.553
X4.8Y4.25
X5.0484Y3.2854
X5.1Y2.6
X5.2453Y3.2854
X5.45Y3.1
T3
X2.1012Y3.9616
X2.2012Y3.9616
X2.3012Y3.9616
X2.4012Y3.9616
X2.5012Y3.9616
X2.6012Y3.9616
X2.7012Y3.9616
X2.8012Y3.9616
X2.9012Y3.9616
X3.0012Y3.9616
X3.1012Y3.9616
X3.2012Y3.9616
X3.3012Y3.9616
X3.4012Y3.9616
X3.5012Y3.9616
X3.6012Y3.9616
T4
X3.6728Y4.195
X4.4795Y4.195
T5
X1.8847Y3.9616
X1.8847Y2.7411
X4.8374Y2.7411
X4.8374Y3.9616
T6
X1.2098Y2.813
X3.3555Y4.9587
X3.3555Y0.6673
X5.5012Y2.813
T2
G00X3.2177Y1.0906
M15
G01X3.2177Y0.9921
M16
G05
G00X3.2689Y1.25
M15
G01X3.3476Y1.25
M16
G05
G00X3.4146Y1.1516
M15
G01X3.4933Y1.1516
M16
G05
T0
M30
