%TF.GenerationSoftware,KiCad,Pcbnew,(6.0.5)*%
%TF.CreationDate,2022-07-22T17:55:24-05:00*%
%TF.ProjectId,First Round Clock,46697273-7420-4526-9f75-6e6420436c6f,rev?*%
%TF.SameCoordinates,PX574d060PY96dce60*%
%TF.FileFunction,Paste,Top*%
%TF.FilePolarity,Positive*%
%FSLAX46Y46*%
G04 Gerber Fmt 4.6, Leading zero omitted, Abs format (unit mm)*
G04 Created by KiCad (PCBNEW (6.0.5)) date 2022-07-22 17:55:24*
%MOMM*%
%LPD*%
G01*
G04 APERTURE LIST*
G04 Aperture macros list*
%AMRoundRect*
0 Rectangle with rounded corners*
0 $1 Rounding radius*
0 $2 $3 $4 $5 $6 $7 $8 $9 X,Y pos of 4 corners*
0 Add a 4 corners polygon primitive as box body*
4,1,4,$2,$3,$4,$5,$6,$7,$8,$9,$2,$3,0*
0 Add four circle primitives for the rounded corners*
1,1,$1+$1,$2,$3*
1,1,$1+$1,$4,$5*
1,1,$1+$1,$6,$7*
1,1,$1+$1,$8,$9*
0 Add four rect primitives between the rounded corners*
20,1,$1+$1,$2,$3,$4,$5,0*
20,1,$1+$1,$4,$5,$6,$7,0*
20,1,$1+$1,$6,$7,$8,$9,0*
20,1,$1+$1,$8,$9,$2,$3,0*%
G04 Aperture macros list end*
%ADD10R,1.400000X1.150000*%
%ADD11R,1.600000X1.400000*%
%ADD12R,4.500000X2.000000*%
%ADD13R,1.800000X1.000000*%
%ADD14R,3.050000X2.750000*%
%ADD15R,2.200000X1.200000*%
%ADD16R,1.150000X1.400000*%
%ADD17R,0.800000X0.900000*%
%ADD18RoundRect,0.243750X0.456250X-0.243750X0.456250X0.243750X-0.456250X0.243750X-0.456250X-0.243750X0*%
G04 APERTURE END LIST*
D10*
%TO.C,C7*%
X50520600Y12434200D03*
X50520600Y14134200D03*
%TD*%
%TO.C,R14*%
X65938400Y33341200D03*
X65938400Y35041200D03*
%TD*%
D11*
%TO.C,SW4*%
X20638000Y32441200D03*
X28638000Y32441200D03*
X20638000Y27941200D03*
X28638000Y27941200D03*
%TD*%
D12*
%TO.C,Y1*%
X49208400Y50191200D03*
X57708400Y50191200D03*
%TD*%
D13*
%TO.C,Y2*%
X39458400Y97691200D03*
X39458400Y100191200D03*
%TD*%
D14*
%TO.C,U1*%
X37683400Y14666200D03*
X41033400Y14666200D03*
X41033400Y17716200D03*
X37683400Y17716200D03*
D15*
X45658400Y13911200D03*
X45658400Y18471200D03*
%TD*%
D10*
%TO.C,R13*%
X38709600Y34733600D03*
X38709600Y33033600D03*
%TD*%
D16*
%TO.C,R1*%
X72608400Y48191200D03*
X74308400Y48191200D03*
%TD*%
%TO.C,C1*%
X76608400Y48191200D03*
X78308400Y48191200D03*
%TD*%
D10*
%TO.C,C6*%
X43458400Y51041200D03*
X43458400Y49341200D03*
%TD*%
%TO.C,R7*%
X89458400Y41341200D03*
X89458400Y43041200D03*
%TD*%
D17*
%TO.C,Q1*%
X100508400Y58191200D03*
X102408400Y58191200D03*
X101458400Y60191200D03*
%TD*%
D10*
%TO.C,C5*%
X55651400Y34721800D03*
X55651400Y33021800D03*
%TD*%
D11*
%TO.C,SW1*%
X82458400Y50441200D03*
X90458400Y50441200D03*
X82458400Y45941200D03*
X90458400Y45941200D03*
%TD*%
D10*
%TO.C,R3*%
X77458400Y33341200D03*
X77458400Y35041200D03*
%TD*%
D18*
%TO.C,D1*%
X44831000Y32844500D03*
X44831000Y34719500D03*
%TD*%
D16*
%TO.C,R5*%
X105608400Y62191200D03*
X107308400Y62191200D03*
%TD*%
D10*
%TO.C,R6*%
X48488600Y32957400D03*
X48488600Y34657400D03*
%TD*%
%TO.C,R4*%
X73458400Y35041200D03*
X73458400Y33341200D03*
%TD*%
%TO.C,C3*%
X52146200Y34530400D03*
X52146200Y32830400D03*
%TD*%
%TO.C,C2*%
X61458400Y50041200D03*
X61458400Y48341200D03*
%TD*%
D11*
%TO.C,SW3*%
X90458400Y35441200D03*
X98458400Y35441200D03*
X90458400Y30941200D03*
X98458400Y30941200D03*
%TD*%
D10*
%TO.C,R10*%
X70458400Y35041200D03*
X70458400Y33341200D03*
%TD*%
D16*
%TO.C,R2*%
X68608400Y48191200D03*
X70308400Y48191200D03*
%TD*%
D10*
%TO.C,R11*%
X35509200Y36843600D03*
X35509200Y38543600D03*
%TD*%
D16*
%TO.C,C4*%
X49608400Y22191200D03*
X51308400Y22191200D03*
%TD*%
D11*
%TO.C,SW2*%
X21813700Y39939400D03*
X13813700Y39939400D03*
X21813700Y44439400D03*
X13813700Y44439400D03*
%TD*%
%TO.C,SW5*%
X103458400Y40941200D03*
X95458400Y40941200D03*
X103458400Y45441200D03*
X95458400Y45441200D03*
%TD*%
D16*
%TO.C,R8*%
X93608400Y51191200D03*
X95308400Y51191200D03*
%TD*%
D10*
%TO.C,R12*%
X61112400Y33643200D03*
X61112400Y35343200D03*
%TD*%
M02*
