%TF.GenerationSoftware,KiCad,Pcbnew,(6.0.5)*%
%TF.CreationDate,2022-07-18T04:00:38-05:00*%
%TF.ProjectId,First Round Clock,46697273-7420-4526-9f75-6e6420436c6f,rev?*%
%TF.SameCoordinates,PX3dc4fd0PYa381e90*%
%TF.FileFunction,Soldermask,Bot*%
%TF.FilePolarity,Negative*%
%FSLAX46Y46*%
G04 Gerber Fmt 4.6, Leading zero omitted, Abs format (unit mm)*
G04 Created by KiCad (PCBNEW (6.0.5)) date 2022-07-18 04:00:38*
%MOMM*%
%LPD*%
G01*
G04 APERTURE LIST*
G04 Aperture macros list*
%AMRoundRect*
0 Rectangle with rounded corners*
0 $1 Rounding radius*
0 $2 $3 $4 $5 $6 $7 $8 $9 X,Y pos of 4 corners*
0 Add a 4 corners polygon primitive as box body*
4,1,4,$2,$3,$4,$5,$6,$7,$8,$9,$2,$3,0*
0 Add four circle primitives for the rounded corners*
1,1,$1+$1,$2,$3*
1,1,$1+$1,$4,$5*
1,1,$1+$1,$6,$7*
1,1,$1+$1,$8,$9*
0 Add four rect primitives between the rounded corners*
20,1,$1+$1,$2,$3,$4,$5,0*
20,1,$1+$1,$4,$5,$6,$7,0*
20,1,$1+$1,$6,$7,$8,$9,0*
20,1,$1+$1,$8,$9,$2,$3,0*%
G04 Aperture macros list end*
%ADD10C,3.200000*%
%ADD11C,1.600000*%
%ADD12O,1.700000X1.700000*%
%ADD13R,1.700000X1.700000*%
%ADD14R,1.600000X1.600000*%
%ADD15O,1.600000X1.600000*%
%ADD16C,3.000000*%
%ADD17O,1.800000X2.600000*%
%ADD18R,1.800000X2.600000*%
%ADD19RoundRect,0.500000X-0.500000X1.750000X-0.500000X-1.750000X0.500000X-1.750000X0.500000X1.750000X0*%
%ADD20RoundRect,0.500000X-1.500000X-0.500000X1.500000X-0.500000X1.500000X0.500000X-1.500000X0.500000X0*%
%ADD21C,2.000000*%
%ADD22R,2.000000X2.000000*%
%ADD23R,3.000000X3.000000*%
%ADD24C,1.440000*%
G04 APERTURE END LIST*
D10*
%TO.C,H4*%
X30730000Y71450000D03*
%TD*%
D11*
%TO.C,R9*%
X83505000Y117450000D03*
X86905000Y117450000D03*
%TD*%
D10*
%TO.C,H3*%
X139730000Y71450000D03*
%TD*%
D12*
%TO.C,J2*%
X105580000Y64450000D03*
X103040000Y64450000D03*
X100500000Y64450000D03*
X97960000Y64450000D03*
X95420000Y64450000D03*
D13*
X92880000Y64450000D03*
%TD*%
D10*
%TO.C,H2*%
X85230000Y16950000D03*
%TD*%
D14*
%TO.C,U3*%
X69430000Y113250000D03*
D15*
X69430000Y110710000D03*
X69430000Y108170000D03*
X69430000Y105630000D03*
X77050000Y105630000D03*
X77050000Y108170000D03*
X77050000Y110710000D03*
X77050000Y113250000D03*
%TD*%
D10*
%TO.C,H1*%
X85230000Y125950000D03*
%TD*%
D13*
%TO.C,J3*%
X108955000Y54975000D03*
D12*
X111495000Y54975000D03*
X108955000Y52435000D03*
X111495000Y52435000D03*
X108955000Y49895000D03*
X111495000Y49895000D03*
%TD*%
D16*
%TO.C,DS1*%
X122869400Y100625300D03*
X122868880Y69624600D03*
X47870300Y69624600D03*
X47870300Y100625300D03*
D17*
X91469400Y100625300D03*
X88929400Y100625300D03*
X86389400Y100625300D03*
X83849400Y100625300D03*
X81309400Y100625300D03*
X78769400Y100625300D03*
X76229400Y100625300D03*
X73689400Y100625300D03*
X71149400Y100625300D03*
X68609400Y100625300D03*
X66069400Y100625300D03*
X63529400Y100625300D03*
X60989400Y100625300D03*
X58449400Y100625300D03*
X55909400Y100625300D03*
D18*
X53369400Y100625300D03*
%TD*%
D14*
%TO.C,U2*%
X102730000Y59250000D03*
D15*
X100190000Y59250000D03*
X97650000Y59250000D03*
X95110000Y59250000D03*
X92570000Y59250000D03*
X90030000Y59250000D03*
X87490000Y59250000D03*
X84950000Y59250000D03*
X82410000Y59250000D03*
X79870000Y59250000D03*
X77330000Y59250000D03*
X74790000Y59250000D03*
X72250000Y59250000D03*
X69710000Y59250000D03*
X69710000Y51630000D03*
X72250000Y51630000D03*
X74790000Y51630000D03*
X77330000Y51630000D03*
X79870000Y51630000D03*
X82410000Y51630000D03*
X84950000Y51630000D03*
X87490000Y51630000D03*
X90030000Y51630000D03*
X92570000Y51630000D03*
X95110000Y51630000D03*
X97650000Y51630000D03*
X100190000Y51630000D03*
X102730000Y51630000D03*
%TD*%
D19*
%TO.C,J1*%
X81730000Y26450000D03*
D20*
X84030000Y31750000D03*
X87730000Y29250000D03*
%TD*%
D21*
%TO.C,BZ1*%
X128230000Y83450000D03*
D22*
X133230000Y83450000D03*
%TD*%
D23*
%TO.C,BT1*%
X93288314Y106553000D03*
D16*
X113778314Y106553000D03*
%TD*%
D24*
%TO.C,RV1*%
X59230000Y110450000D03*
X56690000Y107910000D03*
X54150000Y110450000D03*
%TD*%
M02*
