%TF.GenerationSoftware,KiCad,Pcbnew,(6.0.5)*%
%TF.CreationDate,2022-07-18T04:00:38-05:00*%
%TF.ProjectId,First Round Clock,46697273-7420-4526-9f75-6e6420436c6f,rev?*%
%TF.SameCoordinates,PX3dc4fd0PYa381e90*%
%TF.FileFunction,Paste,Top*%
%TF.FilePolarity,Positive*%
%FSLAX46Y46*%
G04 Gerber Fmt 4.6, Leading zero omitted, Abs format (unit mm)*
G04 Created by KiCad (PCBNEW (6.0.5)) date 2022-07-18 04:00:38*
%MOMM*%
%LPD*%
G01*
G04 APERTURE LIST*
G04 Aperture macros list*
%AMRoundRect*
0 Rectangle with rounded corners*
0 $1 Rounding radius*
0 $2 $3 $4 $5 $6 $7 $8 $9 X,Y pos of 4 corners*
0 Add a 4 corners polygon primitive as box body*
4,1,4,$2,$3,$4,$5,$6,$7,$8,$9,$2,$3,0*
0 Add four circle primitives for the rounded corners*
1,1,$1+$1,$2,$3*
1,1,$1+$1,$4,$5*
1,1,$1+$1,$6,$7*
1,1,$1+$1,$8,$9*
0 Add four rect primitives between the rounded corners*
20,1,$1+$1,$2,$3,$4,$5,0*
20,1,$1+$1,$4,$5,$6,$7,0*
20,1,$1+$1,$6,$7,$8,$9,0*
20,1,$1+$1,$8,$9,$2,$3,0*%
G04 Aperture macros list end*
%ADD10R,1.400000X1.150000*%
%ADD11R,1.600000X1.400000*%
%ADD12R,4.500000X2.000000*%
%ADD13R,1.800000X1.000000*%
%ADD14R,3.050000X2.750000*%
%ADD15R,2.200000X1.200000*%
%ADD16R,1.150000X1.400000*%
%ADD17R,0.800000X0.900000*%
%ADD18RoundRect,0.243750X0.456250X-0.243750X0.456250X0.243750X-0.456250X0.243750X-0.456250X-0.243750X0*%
G04 APERTURE END LIST*
D10*
%TO.C,R14*%
X92710000Y46600000D03*
X92710000Y48300000D03*
%TD*%
D11*
%TO.C,SW4*%
X49230000Y41200000D03*
X57230000Y41200000D03*
X49230000Y45700000D03*
X57230000Y45700000D03*
%TD*%
D12*
%TO.C,Y1*%
X75980000Y63450000D03*
X84480000Y63450000D03*
%TD*%
D13*
%TO.C,Y2*%
X66230000Y110950000D03*
X66230000Y113450000D03*
%TD*%
D14*
%TO.C,U1*%
X67805000Y27925000D03*
X67805000Y30975000D03*
X64455000Y27925000D03*
X64455000Y30975000D03*
D15*
X72430000Y27170000D03*
X72430000Y31730000D03*
%TD*%
D10*
%TO.C,R13*%
X71230000Y46600000D03*
X71230000Y48300000D03*
%TD*%
D16*
%TO.C,R1*%
X99380000Y61450000D03*
X101080000Y61450000D03*
%TD*%
%TO.C,C1*%
X103380000Y61450000D03*
X105080000Y61450000D03*
%TD*%
D10*
%TO.C,C6*%
X70230000Y64300000D03*
X70230000Y62600000D03*
%TD*%
%TO.C,R7*%
X116230000Y54600000D03*
X116230000Y56300000D03*
%TD*%
D17*
%TO.C,Q1*%
X127280000Y71450000D03*
X129180000Y71450000D03*
X128230000Y73450000D03*
%TD*%
D10*
%TO.C,C5*%
X83820000Y48348000D03*
X83820000Y46648000D03*
%TD*%
D11*
%TO.C,SW1*%
X117230000Y63700000D03*
X109230000Y63700000D03*
X117230000Y59200000D03*
X109230000Y59200000D03*
%TD*%
D10*
%TO.C,R3*%
X104230000Y46600000D03*
X104230000Y48300000D03*
%TD*%
D18*
%TO.C,D1*%
X78232000Y46512500D03*
X78232000Y48387500D03*
%TD*%
D16*
%TO.C,R5*%
X132380000Y75450000D03*
X134080000Y75450000D03*
%TD*%
D10*
%TO.C,R6*%
X81026000Y46648000D03*
X81026000Y48348000D03*
%TD*%
%TO.C,R4*%
X100230000Y48300000D03*
X100230000Y46600000D03*
%TD*%
%TO.C,C3*%
X77230000Y25600000D03*
X77230000Y27300000D03*
%TD*%
%TO.C,C2*%
X88230000Y63300000D03*
X88230000Y61600000D03*
%TD*%
D11*
%TO.C,SW3*%
X117230000Y44200000D03*
X125230000Y44200000D03*
X117230000Y48700000D03*
X125230000Y48700000D03*
%TD*%
D10*
%TO.C,R10*%
X97230000Y48300000D03*
X97230000Y46600000D03*
%TD*%
D16*
%TO.C,R2*%
X95380000Y61450000D03*
X97080000Y61450000D03*
%TD*%
D10*
%TO.C,R11*%
X67230000Y46600000D03*
X67230000Y48300000D03*
%TD*%
D16*
%TO.C,C4*%
X76380000Y35450000D03*
X78080000Y35450000D03*
%TD*%
D11*
%TO.C,SW2*%
X42230000Y53200000D03*
X50230000Y53200000D03*
X42230000Y57700000D03*
X50230000Y57700000D03*
%TD*%
%TO.C,SW5*%
X122230000Y54200000D03*
X130230000Y54200000D03*
X122230000Y58700000D03*
X130230000Y58700000D03*
%TD*%
D16*
%TO.C,R8*%
X120380000Y64450000D03*
X122080000Y64450000D03*
%TD*%
D10*
%TO.C,R12*%
X87884000Y46902000D03*
X87884000Y48602000D03*
%TD*%
M02*
